{"glyphs":{"0":{"ha":543,"x_min":127,"x_max":410,"o":"m 277 -9 q 325 2 303 -9 q 359 31 346 14 q 383 77 373 48 q 398 132 393 105 q 406 197 404 159 q 410 264 409 232 q 410 334 410 296 q 379 824 410 595 q 227 1046 352 1046 q 158 1027 177 1046 q 140 1007 146 1017 q 132 983 134 998 q 129 954 130 966 q 128 925 128 942 q 127 814 128 863 q 127 703 127 764 q 131 462 127 558 q 144 267 134 366 q 233 8 164 60 q 255 -3 237 4 q 277 -9 272 -9 m 217 1016 q 275 996 250 1016 q 313 946 298 977 q 339 871 327 915 q 357 739 353 822 q 358 706 358 726 q 366 515 358 664 q 374 321 374 366 q 371 218 374 282 q 348 87 367 154 q 324 39 339 56 q 290 22 309 22 q 243 50 264 22 q 209 125 222 77 q 173 334 182 224 q 165 506 165 436 l 165 642 q 162 772 165 695 q 159 901 159 868 l 159 925 q 158 947 158 935 q 171 999 158 983 q 217 1016 184 1016 z "},"1":{"ha":502,"x_min":94,"x_max":395,"o":"m 364 9 q 252 7 326 9 q 140 4 178 4 q 124 10 129 4 q 119 31 119 16 q 122 40 119 35 q 130 44 125 44 l 169 44 l 209 43 q 231 45 224 43 q 241 52 238 47 q 243 71 243 58 q 212 871 243 389 l 213 915 l 214 960 q 210 991 214 983 q 193 1003 205 1000 q 150 1006 181 1006 l 134 1004 l 118 1003 q 94 1018 94 1003 q 123 1035 94 1032 q 232 1038 148 1038 q 248 1031 241 1038 q 254 1015 254 1024 l 254 972 q 258 842 254 939 q 261 710 261 745 q 269 552 261 703 l 271 513 q 279 244 279 340 l 279 227 l 283 151 q 286 69 286 92 q 285 59 286 64 l 283 49 l 290 45 q 321 47 300 45 q 352 49 342 49 q 395 29 395 49 q 364 9 395 9 z "},"2":{"ha":488,"x_min":100,"x_max":368,"o":"m 100 17 q 110 -3 100 5 q 134 -11 120 -11 q 238 -5 170 -11 q 337 1 307 1 q 349 20 349 1 q 329 41 349 41 q 162 26 238 41 q 155 33 155 26 q 158 49 155 37 q 191 125 169 78 l 222 194 l 262 285 q 314 446 290 348 q 353 646 338 544 q 368 822 368 748 q 366 873 368 838 q 363 924 363 907 l 366 926 q 348 1001 365 967 q 301 1055 331 1035 q 234 1075 272 1075 q 193 1053 211 1075 q 169 1005 176 1031 q 161 954 161 979 q 161 941 161 944 q 166 931 162 935 q 179 926 171 926 q 203 977 197 926 q 217 1019 205 998 q 247 1047 229 1039 q 333 847 333 1047 q 294 521 333 678 q 174 186 256 364 l 100 17 z "},"3":{"ha":461,"x_min":62,"x_max":356,"o":"m 142 50 q 170 13 142 27 q 229 -1 197 -1 q 275 8 254 -1 q 308 32 295 18 q 330 70 321 47 q 345 112 340 92 q 352 161 349 132 q 356 249 356 205 q 355 297 356 286 q 345 345 353 308 q 336 399 340 365 q 323 466 329 441 q 309 519 318 491 q 233 603 287 581 q 256 637 237 608 q 278 669 272 665 q 303 747 303 713 q 248 1010 303 930 l 243 1011 q 216 1035 233 1026 q 181 1044 199 1044 q 112 1021 140 1044 q 62 951 85 998 q 70 938 62 943 q 85 932 77 932 q 118 972 103 932 q 140 999 124 987 q 177 1011 156 1011 q 218 991 201 1011 q 244 944 235 971 q 258 877 253 917 q 266 766 266 822 q 252 699 266 734 q 230 656 242 674 q 207 627 218 639 q 192 610 196 614 q 177 589 178 594 l 184 582 l 184 576 q 210 571 196 571 q 218 572 214 571 q 224 572 220 572 q 269 507 250 545 q 297 436 288 470 q 312 357 307 403 q 318 287 317 315 q 319 201 319 258 q 213 25 319 25 q 195 37 206 28 q 172 52 182 47 q 153 57 163 56 l 142 50 z "},"4":{"ha":448,"x_min":116,"x_max":362,"o":"m 279 -17 l 301 0 l 301 20 l 296 29 l 301 46 q 295 79 295 56 q 296 103 295 96 q 288 202 292 113 q 284 338 284 291 q 296 362 284 355 q 323 368 307 369 q 333 367 327 367 q 354 371 346 367 q 362 385 362 376 q 336 400 362 400 q 309 397 325 400 q 284 395 294 395 q 274 480 279 400 q 270 611 270 559 q 266 709 270 644 q 262 807 262 774 l 250 822 q 231 818 239 822 q 223 806 223 813 q 229 749 223 789 q 234 694 233 720 q 244 395 244 446 q 212 386 236 391 q 174 382 188 382 q 161 408 161 382 q 165 427 161 416 q 170 446 170 437 q 165 466 170 454 q 161 486 161 478 q 169 661 161 545 q 177 836 177 779 q 174 875 177 853 l 177 879 q 173 926 173 903 q 176 982 173 949 q 178 1038 178 1015 q 171 1052 178 1047 q 153 1057 163 1057 q 137 1039 137 1057 q 140 1022 137 1032 q 142 1004 142 1011 l 142 783 q 136 647 142 733 q 129 511 129 561 q 123 477 129 499 q 116 443 116 456 l 129 415 q 121 371 121 376 l 121 367 q 130 361 124 364 q 141 353 135 356 q 159 351 146 351 q 200 355 174 351 q 241 359 227 359 q 255 298 255 353 l 254 267 l 252 236 q 257 165 252 209 q 262 94 262 121 q 256 45 262 68 l 258 41 l 258 -8 l 279 -17 z "},"5":{"ha":502,"x_min":105,"x_max":374,"o":"m 269 -14 q 308 16 290 -3 q 336 54 325 35 q 355 100 347 73 q 366 149 362 128 q 372 201 370 170 q 374 297 374 242 q 368 414 374 347 q 340 564 360 491 q 294 656 319 637 q 257 669 285 663 q 199 677 229 674 q 174 681 174 681 l 176 682 q 158 916 166 800 l 153 972 q 149 1047 149 1017 l 154 1046 l 163 1048 l 219 1042 l 223 1044 l 252 1044 l 268 1057 q 229 1076 268 1076 l 226 1076 l 119 1075 l 105 1061 q 123 916 106 1017 q 138 766 138 815 q 132 696 138 734 q 133 675 132 696 q 136 652 134 658 q 145 637 138 644 q 166 631 153 631 q 181 637 170 631 q 197 643 193 643 q 199 642 198 643 q 201 642 199 642 l 207 646 l 239 646 q 294 592 271 646 q 325 458 316 536 q 340 222 340 325 q 334 169 340 202 q 319 100 329 136 q 291 37 309 62 q 252 12 273 12 q 235 18 246 12 q 216 24 222 24 q 190 8 190 24 q 258 -14 190 -14 l 269 -14 m 147 905 q 149 907 147 907 l 147 905 z "},"6":{"ha":475,"x_min":121,"x_max":347,"o":"m 251 -20 q 294 -12 275 -20 q 321 8 311 -4 q 338 39 332 20 q 345 73 343 56 q 347 115 347 90 l 347 157 q 346 183 346 163 l 345 210 q 338 323 345 254 q 336 340 338 328 q 327 404 333 376 q 312 473 321 433 q 293 529 304 505 q 265 577 281 553 q 231 608 251 597 q 189 619 212 619 q 158 608 174 619 q 165 739 159 649 q 188 912 171 827 q 224 1015 204 998 q 241 1024 231 1020 q 264 1037 256 1030 q 272 1051 272 1043 q 266 1060 272 1055 q 255 1064 260 1064 q 212 1047 231 1064 q 178 998 192 1030 q 154 928 163 964 q 139 847 144 892 q 128 755 132 790 q 123 677 125 720 q 121 553 121 614 l 121 547 q 142 250 121 400 q 145 218 144 241 q 148 183 147 195 l 151 146 q 159 86 152 118 q 175 33 165 55 q 205 -5 185 9 q 251 -20 225 -20 m 158 514 q 199 589 158 562 q 245 561 225 589 q 277 484 265 533 q 308 275 301 384 q 313 118 313 184 q 262 8 313 8 q 220 22 233 8 q 208 37 212 31 q 202 53 204 43 q 195 94 197 75 l 193 113 q 158 494 158 309 l 158 514 z "},"7":{"ha":407,"x_min":111,"x_max":301,"o":"m 129 -18 q 153 4 144 -18 q 162 47 162 25 q 161 58 162 53 q 198 257 170 71 q 256 662 227 444 q 291 946 286 880 q 292 961 292 949 l 292 975 q 301 1038 292 1013 q 289 1055 298 1048 q 270 1063 279 1063 q 197 1061 245 1063 q 123 1059 147 1059 l 111 1046 l 132 1032 q 172 1034 144 1032 q 214 1036 199 1036 q 262 1028 262 1036 q 248 886 262 979 q 238 822 245 874 q 213 597 223 696 q 177 310 194 422 q 137 97 161 198 q 127 66 132 76 q 116 26 119 41 q 112 -3 112 12 l 129 -18 z "},"8":{"ha":461,"x_min":100,"x_max":341,"o":"m 130 126 q 150 16 130 75 q 180 -34 160 -15 q 224 -53 199 -53 q 290 -34 266 -53 q 338 31 315 -15 q 337 37 337 35 q 339 54 337 43 q 341 71 341 66 q 250 539 341 264 q 243 554 249 543 q 232 589 232 581 q 252 684 232 592 q 280 903 280 833 q 254 1057 280 998 q 244 1071 251 1065 q 233 1079 238 1076 q 219 1086 227 1082 l 205 1092 l 180 1092 q 142 1082 159 1092 q 117 1055 125 1072 q 100 978 100 1021 q 163 699 100 892 l 174 668 l 184 636 q 189 618 185 630 q 195 589 195 595 q 183 536 195 570 q 175 513 177 522 q 130 126 130 338 m 134 975 q 166 1064 134 1038 q 183 1060 172 1060 q 191 1061 188 1060 l 198 1061 q 231 1027 218 1061 q 245 967 241 996 q 248 905 248 939 q 207 657 248 789 q 178 729 195 665 q 148 870 161 794 q 134 975 134 946 m 180 40 q 162 114 162 86 q 169 275 162 186 q 188 437 175 364 q 218 534 200 511 q 231 502 225 522 q 245 449 237 481 q 255 406 251 420 q 308 81 308 212 q 287 3 308 32 q 224 -26 267 -26 q 193 -7 205 -26 q 179 36 180 12 l 180 40 z "},"9":{"ha":502,"x_min":116,"x_max":367,"o":"m 319 -32 q 343 7 343 -32 q 342 23 343 16 q 342 39 342 30 q 347 90 342 58 q 351 142 351 123 q 353 376 351 220 q 355 610 355 532 q 360 637 355 621 q 365 665 365 654 l 366 747 q 367 829 367 784 q 357 1051 367 1034 q 318 1076 347 1065 q 267 1086 290 1086 q 186 1061 220 1086 q 134 991 153 1035 q 116 892 116 947 q 165 732 116 804 q 229 671 189 695 q 315 640 268 646 l 325 643 l 326 568 l 328 493 q 324 300 328 444 q 321 106 321 156 q 308 -18 321 18 l 319 -32 m 307 676 q 230 721 265 682 q 173 817 194 761 q 153 926 153 872 q 182 1024 153 988 q 268 1060 211 1060 q 318 1039 303 1060 q 333 977 333 1018 q 326 679 333 796 l 307 676 z "},"\r":{"ha":463,"x_min":0,"x_max":0,"o":""}," ":{"ha":475,"x_min":0,"x_max":0,"o":""},"A":{"ha":543,"x_min":83,"x_max":431,"o":"m 401 0 q 382 7 391 0 q 374 24 374 14 l 374 205 q 339 227 374 216 q 259 244 304 237 q 187 250 213 250 q 170 198 183 250 q 144 94 158 153 q 127 14 131 35 q 112 3 124 3 q 92 10 101 3 q 83 26 83 17 q 84 28 83 28 l 84 31 l 100 100 l 129 228 l 149 319 q 202 595 170 410 q 252 864 237 793 q 277 962 264 916 q 298 1019 286 994 q 317 1042 309 1042 q 349 1028 339 1042 q 371 889 357 1016 q 397 637 386 762 l 416 407 q 424 226 416 347 q 431 45 431 99 l 431 39 q 427 12 431 20 q 401 0 422 0 m 346 269 q 373 282 373 269 q 363 517 373 368 q 343 781 354 667 q 326 942 338 840 l 323 957 q 321 974 321 967 q 301 897 310 943 q 277 761 292 852 q 220 450 245 557 q 208 403 218 435 q 193 343 198 368 q 188 297 188 318 l 188 289 q 328 269 247 269 l 336 269 q 346 269 340 269 z "},"Á":{"ha":543,"x_min":83,"x_max":442,"o":"m 239 1268 q 247 1253 239 1259 q 264 1248 254 1248 q 438 1367 367 1335 l 442 1388 q 412 1410 442 1410 q 360 1369 407 1405 q 277 1304 308 1329 q 239 1268 239 1274 m 374 24 q 382 7 374 14 q 401 0 391 0 q 427 12 422 0 q 431 39 431 20 l 431 45 q 424 226 431 99 q 416 407 416 347 l 397 637 q 371 889 386 762 q 349 1028 357 1016 q 317 1042 339 1042 q 298 1019 309 1042 q 277 962 286 994 q 252 864 264 916 q 202 595 237 793 q 149 319 170 410 l 129 228 l 100 100 l 84 31 l 84 28 q 83 26 83 28 q 92 10 83 17 q 112 3 101 3 q 127 14 124 3 q 144 94 131 35 q 170 198 158 153 q 187 250 183 250 q 259 244 213 250 q 339 227 304 237 q 374 205 374 216 l 374 24 m 188 297 q 193 343 188 318 q 208 403 198 368 q 220 450 218 435 q 277 761 245 557 q 301 897 292 852 q 321 974 310 943 q 323 957 321 967 l 326 942 q 343 781 338 840 q 363 517 354 667 q 373 282 373 368 q 346 269 373 269 q 336 269 340 269 l 328 269 q 188 289 247 269 l 188 297 z "},"Ă":{"ha":543,"x_min":83,"x_max":445,"o":"m 239 1316 q 260 1222 239 1265 q 292 1187 271 1200 q 340 1175 313 1175 q 370 1179 358 1175 q 392 1189 385 1184 q 408 1205 400 1194 q 419 1225 415 1216 q 430 1248 424 1234 q 437 1263 434 1258 q 441 1272 439 1269 l 437 1282 l 441 1292 q 445 1303 445 1301 q 438 1317 445 1312 q 424 1323 432 1323 q 399 1297 399 1323 q 399 1287 399 1291 q 400 1277 400 1282 q 393 1247 400 1263 q 375 1218 387 1230 q 353 1206 364 1206 l 318 1206 l 303 1217 q 281 1252 288 1228 q 268 1307 273 1275 q 254 1329 264 1327 l 239 1316 m 374 24 q 382 7 374 14 q 401 0 391 0 q 427 12 422 0 q 431 39 431 20 l 431 45 q 424 226 431 99 q 416 407 416 347 l 397 637 q 371 889 386 762 q 349 1028 357 1016 q 317 1042 339 1042 q 298 1019 309 1042 q 277 962 286 994 q 252 864 264 916 q 202 595 237 793 q 149 319 170 410 l 129 228 l 100 100 l 84 31 l 84 28 q 83 26 83 28 q 92 10 83 17 q 112 3 101 3 q 127 14 124 3 q 144 94 131 35 q 170 198 158 153 q 187 250 183 250 q 259 244 213 250 q 339 227 304 237 q 374 205 374 216 l 374 24 m 188 297 q 193 343 188 318 q 208 403 198 368 q 220 450 218 435 q 277 761 245 557 q 301 897 292 852 q 321 974 310 943 q 323 957 321 967 l 326 942 q 343 781 338 840 q 363 517 354 667 q 373 282 373 368 q 346 269 373 269 q 336 269 340 269 l 328 269 q 188 289 247 269 l 188 297 z "},"Ǎ":{"ha":543,"x_min":83,"x_max":431,"o":"m 369 1389 q 329 1181 361 1301 q 308 1240 323 1197 q 283 1314 292 1284 q 271 1361 272 1347 l 247 1393 l 222 1375 q 247 1296 222 1354 q 298 1189 271 1238 q 338 1140 326 1140 q 358 1169 358 1140 q 364 1221 358 1195 q 383 1282 370 1246 q 399 1332 393 1312 l 398 1340 l 408 1361 l 407 1368 q 412 1383 412 1380 q 387 1400 412 1396 l 369 1389 m 374 24 q 382 7 374 14 q 401 0 391 0 q 427 12 422 0 q 431 39 431 20 l 431 45 q 424 226 431 99 q 416 407 416 347 l 397 637 q 371 889 386 762 q 349 1028 357 1016 q 317 1042 339 1042 q 298 1019 309 1042 q 277 962 286 994 q 252 864 264 916 q 202 595 237 793 q 149 319 170 410 l 129 228 l 100 100 l 84 31 l 84 28 q 83 26 83 28 q 92 10 83 17 q 112 3 101 3 q 127 14 124 3 q 144 94 131 35 q 170 198 158 153 q 187 250 183 250 q 259 244 213 250 q 339 227 304 237 q 374 205 374 216 l 374 24 m 188 297 q 193 343 188 318 q 208 403 198 368 q 220 450 218 435 q 277 761 245 557 q 301 897 292 852 q 321 974 310 943 q 323 957 321 967 l 326 942 q 343 781 338 840 q 363 517 354 667 q 373 282 373 368 q 346 269 373 269 q 336 269 340 269 l 328 269 q 188 289 247 269 l 188 297 z "},"Â":{"ha":543,"x_min":83,"x_max":431,"o":"m 394 1140 q 419 1157 419 1144 q 414 1172 419 1160 l 415 1179 l 405 1200 l 406 1208 q 390 1259 400 1228 q 371 1319 377 1293 q 365 1371 365 1345 q 345 1400 365 1400 q 305 1351 332 1400 q 253 1244 277 1302 q 229 1165 229 1185 l 254 1147 l 277 1179 q 290 1227 279 1194 q 314 1300 299 1257 q 336 1360 330 1343 q 376 1152 368 1239 l 394 1140 m 374 24 q 382 7 374 14 q 401 0 391 0 q 427 12 422 0 q 431 39 431 20 l 431 45 q 424 226 431 99 q 416 407 416 347 l 397 637 q 371 889 386 762 q 349 1028 357 1016 q 317 1042 339 1042 q 298 1019 309 1042 q 277 962 286 994 q 252 864 264 916 q 202 595 237 793 q 149 319 170 410 l 129 228 l 100 100 l 84 31 l 84 28 q 83 26 83 28 q 92 10 83 17 q 112 3 101 3 q 127 14 124 3 q 144 94 131 35 q 170 198 158 153 q 187 250 183 250 q 259 244 213 250 q 339 227 304 237 q 374 205 374 216 l 374 24 m 188 297 q 193 343 188 318 q 208 403 198 368 q 220 450 218 435 q 277 761 245 557 q 301 897 292 852 q 321 974 310 943 q 323 957 321 967 l 326 942 q 343 781 338 840 q 363 517 354 667 q 373 282 373 368 q 346 269 373 269 q 336 269 340 269 l 328 269 q 188 289 247 269 l 188 297 z "},"Ȁ":{"ha":543,"x_min":-18,"x_max":431,"o":"m 423 1282 q 367 1337 421 1291 q 256 1426 313 1383 q 191 1469 199 1469 q 182 1461 189 1469 q 176 1448 176 1454 q 185 1434 176 1439 q 311 1336 285 1354 q 359 1305 327 1329 q 417 1274 394 1279 l 423 1282 m 183 1350 q 88 1418 111 1404 q 10 1459 17 1459 q -7 1447 3 1459 q -18 1425 -16 1436 l 54 1384 q 129 1347 77 1375 q 147 1336 131 1346 l 163 1326 q 213 1293 186 1310 q 241 1278 236 1278 q 249 1289 249 1278 q 183 1350 249 1299 m 374 24 q 382 7 374 14 q 401 0 391 0 q 427 12 422 0 q 431 39 431 20 l 431 45 q 424 226 431 99 q 416 407 416 347 l 397 637 q 371 889 386 762 q 349 1028 357 1016 q 317 1042 339 1042 q 298 1019 309 1042 q 277 962 286 994 q 252 864 264 916 q 202 595 237 793 q 149 319 170 410 l 129 228 l 100 100 l 84 31 l 84 28 q 83 26 83 28 q 92 10 83 17 q 112 3 101 3 q 127 14 124 3 q 144 94 131 35 q 170 198 158 153 q 187 250 183 250 q 259 244 213 250 q 339 227 304 237 q 374 205 374 216 l 374 24 m 188 297 q 193 343 188 318 q 208 403 198 368 q 220 450 218 435 q 277 761 245 557 q 301 897 292 852 q 321 974 310 943 q 323 957 321 967 l 326 942 q 343 781 338 840 q 363 517 354 667 q 373 282 373 368 q 346 269 373 269 q 336 269 340 269 l 328 269 q 188 289 247 269 l 188 297 z "},"Ä":{"ha":543,"x_min":83,"x_max":515,"o":"m 451 1265 q 460 1244 451 1254 q 479 1234 469 1234 q 515 1266 515 1234 q 506 1288 515 1277 q 485 1299 496 1299 q 461 1289 472 1299 q 451 1265 451 1278 m 139 1263 q 147 1240 139 1251 q 165 1229 155 1229 q 190 1235 179 1229 q 200 1253 200 1242 q 193 1285 200 1272 q 172 1298 186 1298 q 150 1287 160 1298 q 139 1263 139 1276 m 374 24 q 382 7 374 14 q 401 0 391 0 q 427 12 422 0 q 431 39 431 20 l 431 45 q 424 226 431 99 q 416 407 416 347 l 397 637 q 371 889 386 762 q 349 1028 357 1016 q 317 1042 339 1042 q 298 1019 309 1042 q 277 962 286 994 q 252 864 264 916 q 202 595 237 793 q 149 319 170 410 l 129 228 l 100 100 l 84 31 l 84 28 q 83 26 83 28 q 92 10 83 17 q 112 3 101 3 q 127 14 124 3 q 144 94 131 35 q 170 198 158 153 q 187 250 183 250 q 259 244 213 250 q 339 227 304 237 q 374 205 374 216 l 374 24 m 188 297 q 193 343 188 318 q 208 403 198 368 q 220 450 218 435 q 277 761 245 557 q 301 897 292 852 q 321 974 310 943 q 323 957 321 967 l 326 942 q 343 781 338 840 q 363 517 354 667 q 373 282 373 368 q 346 269 373 269 q 336 269 340 269 l 328 269 q 188 289 247 269 l 188 297 z "},"Ȧ":{"ha":543,"x_min":83,"x_max":431,"o":"m 284 1311 q 293 1288 284 1299 q 315 1278 302 1278 q 353 1312 353 1278 q 343 1336 353 1324 q 320 1348 332 1348 q 295 1336 307 1348 q 284 1311 284 1324 m 374 24 q 382 7 374 14 q 401 0 391 0 q 427 12 422 0 q 431 39 431 20 l 431 45 q 424 226 431 99 q 416 407 416 347 l 397 637 q 371 889 386 762 q 349 1028 357 1016 q 317 1042 339 1042 q 298 1019 309 1042 q 277 962 286 994 q 252 864 264 916 q 202 595 237 793 q 149 319 170 410 l 129 228 l 100 100 l 84 31 l 84 28 q 83 26 83 28 q 92 10 83 17 q 112 3 101 3 q 127 14 124 3 q 144 94 131 35 q 170 198 158 153 q 187 250 183 250 q 259 244 213 250 q 339 227 304 237 q 374 205 374 216 l 374 24 m 188 297 q 193 343 188 318 q 208 403 198 368 q 220 450 218 435 q 277 761 245 557 q 301 897 292 852 q 321 974 310 943 q 323 957 321 967 l 326 942 q 343 781 338 840 q 363 517 354 667 q 373 282 373 368 q 346 269 373 269 q 336 269 340 269 l 328 269 q 188 289 247 269 l 188 297 z "},"À":{"ha":543,"x_min":83,"x_max":431,"o":"m 191 1323 q 262 1296 196 1320 q 331 1273 328 1273 q 341 1277 336 1273 q 347 1284 347 1280 q 321 1311 347 1296 q 264 1337 298 1324 q 209 1358 227 1352 q 198 1361 202 1360 q 192 1363 193 1362 q 138 1379 180 1379 l 130 1379 q 121 1348 121 1373 q 168 1320 121 1320 q 191 1323 179 1320 m 374 24 q 382 7 374 14 q 401 0 391 0 q 427 12 422 0 q 431 39 431 20 l 431 45 q 424 226 431 99 q 416 407 416 347 l 397 637 q 371 889 386 762 q 349 1028 357 1016 q 317 1042 339 1042 q 298 1019 309 1042 q 277 962 286 994 q 252 864 264 916 q 202 595 237 793 q 149 319 170 410 l 129 228 l 100 100 l 84 31 l 84 28 q 83 26 83 28 q 92 10 83 17 q 112 3 101 3 q 127 14 124 3 q 144 94 131 35 q 170 198 158 153 q 187 250 183 250 q 259 244 213 250 q 339 227 304 237 q 374 205 374 216 l 374 24 m 188 297 q 193 343 188 318 q 208 403 198 368 q 220 450 218 435 q 277 761 245 557 q 301 897 292 852 q 321 974 310 943 q 323 957 321 967 l 326 942 q 343 781 338 840 q 363 517 354 667 q 373 282 373 368 q 346 269 373 269 q 336 269 340 269 l 328 269 q 188 289 247 269 l 188 297 z "},"Ȃ":{"ha":543,"x_min":83,"x_max":438,"o":"m 248 1235 q 261 1257 257 1236 q 274 1312 267 1289 q 296 1346 281 1335 l 311 1357 l 346 1357 q 369 1345 357 1357 q 387 1317 380 1333 q 393 1286 393 1300 q 393 1277 393 1281 q 392 1267 392 1272 q 417 1240 392 1240 q 432 1246 425 1240 q 438 1260 438 1252 q 435 1272 438 1263 l 431 1282 l 434 1292 q 430 1300 433 1295 q 423 1316 427 1306 q 416 1332 419 1326 q 412 1340 414 1337 q 385 1375 397 1369 q 334 1389 360 1389 q 285 1376 306 1389 q 254 1341 264 1364 q 233 1247 233 1299 l 248 1235 m 374 24 q 382 7 374 14 q 401 0 391 0 q 427 12 422 0 q 431 39 431 20 l 431 45 q 424 226 431 99 q 416 407 416 347 l 397 637 q 371 889 386 762 q 349 1028 357 1016 q 317 1042 339 1042 q 298 1019 309 1042 q 277 962 286 994 q 252 864 264 916 q 202 595 237 793 q 149 319 170 410 l 129 228 l 100 100 l 84 31 l 84 28 q 83 26 83 28 q 92 10 83 17 q 112 3 101 3 q 127 14 124 3 q 144 94 131 35 q 170 198 158 153 q 187 250 183 250 q 259 244 213 250 q 339 227 304 237 q 374 205 374 216 l 374 24 m 188 297 q 193 343 188 318 q 208 403 198 368 q 220 450 218 435 q 277 761 245 557 q 301 897 292 852 q 321 974 310 943 q 323 957 321 967 l 326 942 q 343 781 338 840 q 363 517 354 667 q 373 282 373 368 q 346 269 373 269 q 336 269 340 269 l 328 269 q 188 289 247 269 l 188 297 z "},"Ā":{"ha":543,"x_min":83,"x_max":486,"o":"m 486 1255 q 479 1268 486 1263 q 456 1275 472 1273 q 425 1277 440 1277 q 385 1278 409 1278 l 307 1278 q 218 1266 219 1278 q 221 1257 218 1261 q 248 1246 225 1251 q 292 1244 260 1244 l 319 1244 l 397 1244 q 486 1255 484 1244 m 374 24 q 382 7 374 14 q 401 0 391 0 q 427 12 422 0 q 431 39 431 20 l 431 45 q 424 226 431 99 q 416 407 416 347 l 397 637 q 371 889 386 762 q 349 1028 357 1016 q 317 1042 339 1042 q 298 1019 309 1042 q 277 962 286 994 q 252 864 264 916 q 202 595 237 793 q 149 319 170 410 l 129 228 l 100 100 l 84 31 l 84 28 q 83 26 83 28 q 92 10 83 17 q 112 3 101 3 q 127 14 124 3 q 144 94 131 35 q 170 198 158 153 q 187 250 183 250 q 259 244 213 250 q 339 227 304 237 q 374 205 374 216 l 374 24 m 188 297 q 193 343 188 318 q 208 403 198 368 q 220 450 218 435 q 277 761 245 557 q 301 897 292 852 q 321 974 310 943 q 323 957 321 967 l 326 942 q 343 781 338 840 q 363 517 354 667 q 373 282 373 368 q 346 269 373 269 q 336 269 340 269 l 328 269 q 188 289 247 269 l 188 297 z "},"Ą":{"ha":543,"x_min":83,"x_max":449,"o":"m 434 -253 q 449 -267 449 -253 q 430 -294 449 -284 q 389 -304 411 -304 q 338 -287 363 -304 q 299 -242 314 -269 q 284 -195 284 -216 q 294 -129 284 -163 q 318 -69 303 -96 q 370 5 349 -17 l 378 12 q 374 24 374 18 l 374 205 q 339 227 374 216 q 259 244 304 237 q 187 250 213 250 q 170 198 183 250 q 144 94 158 153 q 127 14 131 35 q 112 3 124 3 q 92 10 101 3 q 83 26 83 17 q 84 28 83 28 l 84 31 l 100 100 l 129 228 l 149 319 q 202 595 170 410 q 252 864 237 793 q 277 962 264 916 q 298 1019 286 994 q 317 1042 309 1042 q 349 1028 339 1042 q 371 889 357 1016 q 397 637 386 762 l 416 407 q 424 226 416 347 q 431 45 431 99 l 431 39 q 427 12 431 20 q 418 3 424 4 l 410 -8 q 381 -50 394 -30 q 359 -96 369 -70 q 347 -149 347 -125 q 344 -181 347 -164 l 343 -195 q 342 -210 342 -201 q 358 -248 342 -229 q 389 -267 373 -267 q 412 -260 397 -267 q 434 -253 425 -253 m 346 269 q 373 282 373 269 q 363 517 373 368 q 343 781 354 667 q 326 942 338 840 l 323 957 q 321 974 321 967 q 301 897 310 943 q 277 761 292 852 q 220 450 245 557 q 208 403 218 435 q 193 343 198 368 q 188 297 188 318 l 188 289 q 328 269 247 269 l 336 269 q 346 269 340 269 z "},"Å":{"ha":543,"x_min":83,"x_max":431,"o":"m 246 1286 q 256 1251 246 1267 q 281 1223 265 1234 q 314 1213 296 1213 q 378 1233 354 1213 q 403 1292 403 1254 q 391 1328 403 1309 q 362 1359 380 1347 q 327 1372 344 1372 q 289 1359 307 1372 q 258 1326 270 1346 q 246 1286 246 1306 m 278 1293 q 294 1329 278 1312 q 327 1345 310 1345 q 356 1325 346 1345 q 367 1278 367 1305 q 347 1251 367 1263 q 309 1239 327 1239 q 289 1250 296 1239 q 280 1269 282 1259 q 278 1293 278 1279 m 374 24 q 382 7 374 14 q 401 0 391 0 q 427 12 422 0 q 431 39 431 20 l 431 45 q 424 226 431 99 q 416 407 416 347 l 397 637 q 371 889 386 762 q 349 1028 357 1016 q 317 1042 339 1042 q 298 1019 309 1042 q 277 962 286 994 q 252 864 264 916 q 202 595 237 793 q 149 319 170 410 l 129 228 l 100 100 l 84 31 l 84 28 q 83 26 83 28 q 92 10 83 17 q 112 3 101 3 q 127 14 124 3 q 144 94 131 35 q 170 198 158 153 q 187 250 183 250 q 259 244 213 250 q 339 227 304 237 q 374 205 374 216 l 374 24 m 188 297 q 193 343 188 318 q 208 403 198 368 q 220 450 218 435 q 277 761 245 557 q 301 897 292 852 q 321 974 310 943 q 323 957 321 967 l 326 942 q 343 781 338 840 q 363 517 354 667 q 373 282 373 368 q 346 269 373 269 q 336 269 340 269 l 328 269 q 188 289 247 269 l 188 297 z "},"Ǻ":{"ha":543,"x_min":83,"x_max":501,"o":"m 298 1475 q 306 1460 298 1466 q 323 1455 313 1455 q 497 1574 426 1542 l 501 1595 q 471 1617 501 1617 q 419 1576 466 1612 q 336 1511 367 1536 q 298 1475 298 1480 m 246 1286 q 256 1251 246 1267 q 281 1223 265 1234 q 314 1213 296 1213 q 378 1233 354 1213 q 403 1292 403 1254 q 391 1328 403 1309 q 362 1359 380 1347 q 327 1372 344 1372 q 289 1359 307 1372 q 258 1326 270 1346 q 246 1286 246 1306 m 278 1293 q 294 1329 278 1312 q 327 1345 310 1345 q 356 1325 346 1345 q 367 1278 367 1305 q 347 1251 367 1263 q 309 1239 327 1239 q 289 1250 296 1239 q 280 1269 282 1259 q 278 1293 278 1279 m 374 24 q 382 7 374 14 q 401 0 391 0 q 427 12 422 0 q 431 39 431 20 l 431 45 q 424 226 431 99 q 416 407 416 347 l 397 637 q 371 889 386 762 q 349 1028 357 1016 q 317 1042 339 1042 q 298 1019 309 1042 q 277 962 286 994 q 252 864 264 916 q 202 595 237 793 q 149 319 170 410 l 129 228 l 100 100 l 84 31 l 84 28 q 83 26 83 28 q 92 10 83 17 q 112 3 101 3 q 127 14 124 3 q 144 94 131 35 q 170 198 158 153 q 187 250 183 250 q 259 244 213 250 q 339 227 304 237 q 374 205 374 216 l 374 24 m 188 297 q 193 343 188 318 q 208 403 198 368 q 220 450 218 435 q 277 761 245 557 q 301 897 292 852 q 321 974 310 943 q 323 957 321 967 l 326 942 q 343 781 338 840 q 363 517 354 667 q 373 282 373 368 q 346 269 373 269 q 336 269 340 269 l 328 269 q 188 289 247 269 l 188 297 z "},"Ã":{"ha":543,"x_min":83,"x_max":459,"o":"m 166 1211 q 175 1195 166 1203 q 193 1187 184 1187 l 208 1208 q 201 1238 201 1231 q 216 1264 201 1253 q 252 1275 232 1275 l 262 1271 q 297 1232 284 1244 q 337 1202 312 1216 q 385 1189 362 1189 q 421 1199 404 1189 q 449 1226 438 1209 q 459 1262 459 1243 q 451 1296 459 1282 q 427 1310 443 1310 q 413 1301 417 1310 q 418 1289 414 1296 q 421 1275 421 1279 q 385 1225 421 1225 q 340 1242 365 1225 q 306 1279 316 1259 q 247 1308 281 1308 q 190 1281 213 1308 q 166 1211 166 1255 m 374 24 q 382 7 374 14 q 401 0 391 0 q 427 12 422 0 q 431 39 431 20 l 431 45 q 424 226 431 99 q 416 407 416 347 l 397 637 q 371 889 386 762 q 349 1028 357 1016 q 317 1042 339 1042 q 298 1019 309 1042 q 277 962 286 994 q 252 864 264 916 q 202 595 237 793 q 149 319 170 410 l 129 228 l 100 100 l 84 31 l 84 28 q 83 26 83 28 q 92 10 83 17 q 112 3 101 3 q 127 14 124 3 q 144 94 131 35 q 170 198 158 153 q 187 250 183 250 q 259 244 213 250 q 339 227 304 237 q 374 205 374 216 l 374 24 m 188 297 q 193 343 188 318 q 208 403 198 368 q 220 450 218 435 q 277 761 245 557 q 301 897 292 852 q 321 974 310 943 q 323 957 321 967 l 326 942 q 343 781 338 840 q 363 517 354 667 q 373 282 373 368 q 346 269 373 269 q 336 269 340 269 l 328 269 q 188 289 247 269 l 188 297 z "},"Æ":{"ha":637,"x_min":67,"x_max":583,"o":"m 361 -28 q 380 -19 370 -26 l 393 -9 q 451 -5 401 -6 q 541 1 499 -4 q 583 21 583 6 q 573 34 583 29 q 552 39 564 39 q 473 31 528 39 q 395 24 419 24 q 382 47 382 24 q 383 76 382 63 q 384 104 384 89 q 381 270 384 172 q 378 435 378 368 l 415 435 q 514 458 514 435 l 495 482 q 440 475 474 482 q 385 468 403 468 l 378 476 q 380 638 378 530 q 382 800 382 746 q 378 904 382 840 q 373 1007 373 968 q 510 1015 442 1015 l 519 1032 q 475 1054 519 1054 q 421 1050 460 1054 q 368 1047 382 1047 q 338 1027 352 1047 q 304 945 323 1008 q 123 293 208 631 q 67 18 68 81 q 71 7 67 13 q 78 1 74 1 q 100 29 90 1 q 116 91 108 52 q 127 142 125 129 l 196 407 q 228 419 198 414 q 296 427 250 422 q 339 431 334 430 l 347 421 q 350 289 347 387 q 353 155 353 191 q 342 -8 353 71 l 361 -28 m 342 945 q 351 782 351 879 q 349 612 351 722 l 345 467 q 206 450 294 454 q 239 593 208 473 q 302 824 271 713 q 342 945 334 935 z "},"Ǽ":{"ha":637,"x_min":67,"x_max":650,"o":"m 447 1168 q 454 1154 447 1159 q 472 1148 461 1148 q 646 1267 574 1236 l 650 1289 q 619 1310 650 1310 q 568 1270 614 1305 q 485 1204 515 1230 q 447 1168 447 1174 m 361 -28 q 380 -19 370 -26 l 393 -9 q 451 -5 401 -6 q 541 1 499 -4 q 583 21 583 6 q 573 34 583 29 q 552 39 564 39 q 473 31 528 39 q 395 24 419 24 q 382 47 382 24 q 383 76 382 63 q 384 104 384 89 q 381 270 384 172 q 378 435 378 368 l 415 435 q 514 458 514 435 l 495 482 q 440 475 474 482 q 385 468 403 468 l 378 476 q 380 638 378 530 q 382 800 382 746 q 378 904 382 840 q 373 1007 373 968 q 510 1015 442 1015 l 519 1032 q 475 1054 519 1054 q 421 1050 460 1054 q 368 1047 382 1047 q 338 1027 352 1047 q 304 945 323 1008 q 123 293 208 631 q 67 18 68 81 q 71 7 67 13 q 78 1 74 1 q 100 29 90 1 q 116 91 108 52 q 127 142 125 129 l 196 407 q 228 419 198 414 q 296 427 250 422 q 339 431 334 430 l 347 421 q 350 289 347 387 q 353 155 353 191 q 342 -8 353 71 l 361 -28 m 342 945 q 351 782 351 879 q 349 612 351 722 l 345 467 q 206 450 294 454 q 239 593 208 473 q 302 824 271 713 q 342 945 334 935 z "},"Ǣ":{"ha":637,"x_min":67,"x_max":605,"o":"m 605 1160 q 598 1173 605 1168 q 575 1179 591 1177 q 544 1182 559 1181 q 505 1182 528 1182 l 426 1182 q 337 1171 338 1182 q 340 1161 337 1166 q 367 1151 345 1156 q 411 1148 380 1148 l 438 1148 l 516 1148 q 605 1160 604 1148 m 361 -28 q 380 -19 370 -26 l 393 -9 q 451 -5 401 -6 q 541 1 499 -4 q 583 21 583 6 q 573 34 583 29 q 552 39 564 39 q 473 31 528 39 q 395 24 419 24 q 382 47 382 24 q 383 76 382 63 q 384 104 384 89 q 381 270 384 172 q 378 435 378 368 l 415 435 q 514 458 514 435 l 495 482 q 440 475 474 482 q 385 468 403 468 l 378 476 q 380 638 378 530 q 382 800 382 746 q 378 904 382 840 q 373 1007 373 968 q 510 1015 442 1015 l 519 1032 q 475 1054 519 1054 q 421 1050 460 1054 q 368 1047 382 1047 q 338 1027 352 1047 q 304 945 323 1008 q 123 293 208 631 q 67 18 68 81 q 71 7 67 13 q 78 1 74 1 q 100 29 90 1 q 116 91 108 52 q 127 142 125 129 l 196 407 q 228 419 198 414 q 296 427 250 422 q 339 431 334 430 l 347 421 q 350 289 347 387 q 353 155 353 191 q 342 -8 353 71 l 361 -28 m 342 945 q 351 782 351 879 q 349 612 351 722 l 345 467 q 206 450 294 454 q 239 593 208 473 q 302 824 271 713 q 342 945 334 935 z "},"B":{"ha":502,"x_min":121,"x_max":396,"o":"m 124 11 q 176 -8 124 -8 l 178 -8 q 206 -1 190 -8 q 233 5 222 4 q 305 44 276 24 q 353 86 335 64 q 380 139 370 109 q 393 204 389 170 q 396 294 396 238 q 383 406 396 357 q 341 499 370 454 q 262 593 313 543 q 352 823 352 714 q 330 937 352 888 q 263 1014 307 987 q 157 1042 219 1042 q 121 942 121 1042 q 126 652 121 832 q 131 363 131 473 q 127 187 131 317 q 124 11 124 56 m 170 602 q 167 768 170 670 q 164 935 164 867 q 200 994 164 994 q 257 974 230 994 q 299 923 283 954 q 315 860 315 891 q 306 780 315 823 q 278 696 296 736 q 232 627 260 654 q 174 600 203 600 l 170 602 m 176 47 q 170 534 176 340 q 201 543 178 535 q 238 550 222 549 q 357 252 357 500 q 334 151 357 198 q 271 75 311 103 q 185 46 231 46 l 181 47 q 176 47 179 47 z "},"Ḃ":{"ha":502,"x_min":121,"x_max":396,"o":"m 215 1311 q 224 1288 215 1299 q 245 1278 233 1278 q 284 1312 284 1278 q 274 1336 284 1324 q 251 1348 263 1348 q 226 1336 237 1348 q 215 1311 215 1324 m 124 11 q 176 -8 124 -8 l 178 -8 q 206 -1 190 -8 q 233 5 222 4 q 305 44 276 24 q 353 86 335 64 q 380 139 370 109 q 393 204 389 170 q 396 294 396 238 q 383 406 396 357 q 341 499 370 454 q 262 593 313 543 q 352 823 352 714 q 330 937 352 888 q 263 1014 307 987 q 157 1042 219 1042 q 121 942 121 1042 q 126 652 121 832 q 131 363 131 473 q 127 187 131 317 q 124 11 124 56 m 170 602 q 167 768 170 670 q 164 935 164 867 q 200 994 164 994 q 257 974 230 994 q 299 923 283 954 q 315 860 315 891 q 306 780 315 823 q 278 696 296 736 q 232 627 260 654 q 174 600 203 600 l 170 602 m 176 47 q 170 534 176 340 q 201 543 178 535 q 238 550 222 549 q 357 252 357 500 q 334 151 357 198 q 271 75 311 103 q 185 46 231 46 l 181 47 q 176 47 179 47 z "},"C":{"ha":529,"x_min":116,"x_max":466,"o":"m 117 595 q 125 421 117 538 q 146 203 134 304 q 169 78 158 102 q 204 30 180 53 q 257 -8 229 6 q 312 -22 286 -22 q 410 -3 361 -22 q 450 26 435 7 q 466 69 466 45 q 453 90 466 90 q 427 72 439 90 q 330 32 393 32 q 261 46 294 32 q 212 86 229 60 q 186 202 199 105 q 164 412 173 298 q 155 583 155 526 l 154 656 l 153 733 q 156 817 153 777 q 170 895 159 857 q 197 956 180 932 q 246 998 215 983 q 316 1014 277 1014 q 354 1004 329 1014 q 386 994 378 994 q 408 1010 408 994 q 395 1035 408 1023 q 363 1054 382 1047 q 328 1061 344 1061 q 256 1053 286 1061 q 201 1029 223 1044 q 164 991 180 1015 q 139 942 148 967 q 125 882 130 917 q 118 815 120 847 q 116 739 116 783 q 117 669 116 701 q 117 595 117 636 z "},"Ć":{"ha":529,"x_min":116,"x_max":466,"o":"m 219 1268 q 226 1253 219 1259 q 244 1248 233 1248 q 418 1367 347 1335 l 422 1388 q 391 1410 422 1410 q 340 1369 387 1405 q 257 1304 288 1329 q 219 1268 219 1274 m 117 595 q 125 421 117 538 q 146 203 134 304 q 169 78 158 102 q 204 30 180 53 q 257 -8 229 6 q 312 -22 286 -22 q 410 -3 361 -22 q 450 26 435 7 q 466 69 466 45 q 453 90 466 90 q 427 72 439 90 q 330 32 393 32 q 261 46 294 32 q 212 86 229 60 q 186 202 199 105 q 164 412 173 298 q 155 583 155 526 l 154 656 l 153 733 q 156 817 153 777 q 170 895 159 857 q 197 956 180 932 q 246 998 215 983 q 316 1014 277 1014 q 354 1004 329 1014 q 386 994 378 994 q 408 1010 408 994 q 395 1035 408 1023 q 363 1054 382 1047 q 328 1061 344 1061 q 256 1053 286 1061 q 201 1029 223 1044 q 164 991 180 1015 q 139 942 148 967 q 125 882 130 917 q 118 815 120 847 q 116 739 116 783 q 117 669 116 701 q 117 595 117 636 z "},"Č":{"ha":529,"x_min":116,"x_max":466,"o":"m 349 1389 q 309 1181 341 1301 q 287 1240 302 1197 q 262 1314 272 1284 q 250 1361 252 1347 l 227 1393 l 201 1375 q 226 1296 202 1354 q 278 1189 250 1238 q 318 1140 305 1140 q 338 1169 338 1140 q 344 1221 338 1195 q 363 1282 350 1246 q 379 1332 373 1312 l 378 1340 l 388 1361 l 387 1368 q 392 1383 392 1380 q 367 1400 392 1396 l 349 1389 m 117 595 q 125 421 117 538 q 146 203 134 304 q 169 78 158 102 q 204 30 180 53 q 257 -8 229 6 q 312 -22 286 -22 q 410 -3 361 -22 q 450 26 435 7 q 466 69 466 45 q 453 90 466 90 q 427 72 439 90 q 330 32 393 32 q 261 46 294 32 q 212 86 229 60 q 186 202 199 105 q 164 412 173 298 q 155 583 155 526 l 154 656 l 153 733 q 156 817 153 777 q 170 895 159 857 q 197 956 180 932 q 246 998 215 983 q 316 1014 277 1014 q 354 1004 329 1014 q 386 994 378 994 q 408 1010 408 994 q 395 1035 408 1023 q 363 1054 382 1047 q 328 1061 344 1061 q 256 1053 286 1061 q 201 1029 223 1044 q 164 991 180 1015 q 139 942 148 967 q 125 882 130 917 q 118 815 120 847 q 116 739 116 783 q 117 669 116 701 q 117 595 117 636 z "},"Ç":{"ha":529,"x_min":116,"x_max":466,"o":"m 410 -3 q 325 -22 368 -20 q 323 -55 323 -43 q 425 -195 425 -62 q 410 -242 425 -216 q 370 -287 395 -269 q 319 -304 346 -304 q 279 -294 298 -304 q 260 -267 260 -284 q 275 -253 260 -253 q 297 -260 283 -253 q 319 -267 312 -267 q 358 -238 343 -267 q 374 -170 374 -209 q 353 -109 374 -125 q 334 -111 347 -109 q 315 -113 323 -113 q 277 -85 295 -113 q 289 -20 287 -64 q 219 17 253 -11 q 169 78 184 45 q 146 203 158 102 q 125 421 134 304 q 117 595 117 538 q 117 669 117 636 q 116 739 116 701 q 118 815 116 783 q 125 882 120 847 q 139 942 130 917 q 164 991 148 967 q 201 1029 180 1015 q 256 1053 223 1044 q 328 1061 286 1061 q 363 1054 344 1061 q 395 1035 382 1047 q 408 1010 408 1023 q 386 994 408 994 q 354 1004 378 994 q 316 1014 329 1014 q 246 998 277 1014 q 197 956 215 983 q 170 895 180 932 q 156 817 159 857 q 153 733 153 777 l 154 656 l 155 583 q 164 412 155 526 q 186 202 173 298 q 212 86 199 105 q 261 46 229 60 q 330 32 294 32 q 427 72 393 32 q 453 90 439 90 q 466 69 466 90 q 450 26 466 45 q 410 -3 435 7 z "},"Ĉ":{"ha":529,"x_min":116,"x_max":466,"o":"m 374 1140 q 399 1157 399 1144 q 393 1172 399 1160 l 395 1179 l 385 1200 l 386 1208 q 370 1259 380 1228 q 351 1319 357 1293 q 345 1371 345 1345 q 325 1400 345 1400 q 284 1351 312 1400 q 233 1244 257 1302 q 208 1165 209 1185 l 233 1147 l 257 1179 q 269 1227 258 1194 q 294 1300 279 1257 q 315 1360 309 1343 q 355 1152 348 1239 l 374 1140 m 117 595 q 125 421 117 538 q 146 203 134 304 q 169 78 158 102 q 204 30 180 53 q 257 -8 229 6 q 312 -22 286 -22 q 410 -3 361 -22 q 450 26 435 7 q 466 69 466 45 q 453 90 466 90 q 427 72 439 90 q 330 32 393 32 q 261 46 294 32 q 212 86 229 60 q 186 202 199 105 q 164 412 173 298 q 155 583 155 526 l 154 656 l 153 733 q 156 817 153 777 q 170 895 159 857 q 197 956 180 932 q 246 998 215 983 q 316 1014 277 1014 q 354 1004 329 1014 q 386 994 378 994 q 408 1010 408 994 q 395 1035 408 1023 q 363 1054 382 1047 q 328 1061 344 1061 q 256 1053 286 1061 q 201 1029 223 1044 q 164 991 180 1015 q 139 942 148 967 q 125 882 130 917 q 118 815 120 847 q 116 739 116 783 q 117 669 116 701 q 117 595 117 636 z "},"Ċ":{"ha":529,"x_min":116,"x_max":466,"o":"m 264 1311 q 273 1288 264 1299 q 294 1278 282 1278 q 333 1312 333 1278 q 322 1336 333 1324 q 300 1348 312 1348 q 275 1336 286 1348 q 264 1311 264 1324 m 117 595 q 125 421 117 538 q 146 203 134 304 q 169 78 158 102 q 204 30 180 53 q 257 -8 229 6 q 312 -22 286 -22 q 410 -3 361 -22 q 450 26 435 7 q 466 69 466 45 q 453 90 466 90 q 427 72 439 90 q 330 32 393 32 q 261 46 294 32 q 212 86 229 60 q 186 202 199 105 q 164 412 173 298 q 155 583 155 526 l 154 656 l 153 733 q 156 817 153 777 q 170 895 159 857 q 197 956 180 932 q 246 998 215 983 q 316 1014 277 1014 q 354 1004 329 1014 q 386 994 378 994 q 408 1010 408 994 q 395 1035 408 1023 q 363 1054 382 1047 q 328 1061 344 1061 q 256 1053 286 1061 q 201 1029 223 1044 q 164 991 180 1015 q 139 942 148 967 q 125 882 130 917 q 118 815 120 847 q 116 739 116 783 q 117 669 116 701 q 117 595 117 636 z "},"D":{"ha":556,"x_min":94,"x_max":444,"o":"m 117 25 q 133 5 117 13 q 168 -3 150 -3 q 216 23 180 -3 q 292 93 252 49 q 357 193 331 138 q 421 381 398 281 q 444 568 444 481 l 444 612 q 440 671 443 634 q 433 739 437 709 q 420 812 429 772 q 400 882 411 851 q 369 948 388 916 q 329 1000 351 980 q 273 1036 305 1023 q 205 1048 241 1048 l 199 1048 q 94 1015 94 1048 q 104 977 94 1002 q 114 943 113 953 q 122 749 119 910 l 122 732 q 125 582 124 587 l 134 203 l 138 81 q 128 53 140 71 q 117 25 117 34 m 182 224 q 172 488 182 312 q 161 753 161 659 q 155 867 161 791 q 149 983 149 944 q 178 999 149 999 q 401 593 401 999 q 397 497 401 547 q 378 376 393 442 q 343 256 363 309 q 279 146 319 197 q 189 68 239 95 l 182 68 l 182 224 z "},"Ǳ":{"ha":977,"x_min":94,"x_max":868,"o":"m 661 5 q 682 -12 669 -12 q 765 -9 716 -12 q 847 -7 813 -7 l 860 5 q 802 33 860 33 q 757 30 789 33 q 711 26 724 26 q 726 82 711 47 q 743 132 741 117 q 799 526 764 260 l 817 661 q 840 840 841 843 q 846 901 843 857 q 854 984 850 952 q 868 1035 859 1016 q 846 1060 868 1060 q 781 1053 821 1060 q 715 1046 736 1046 q 682 1048 692 1046 l 672 1038 q 734 1010 672 1010 q 782 1013 747 1010 q 828 1017 817 1017 q 817 908 827 977 l 812 882 l 810 860 q 757 476 797 764 l 746 399 q 728 276 739 366 q 704 119 719 183 q 661 5 689 54 m 117 25 q 133 5 117 13 q 168 -3 150 -3 q 216 23 180 -3 q 292 93 252 49 q 357 193 331 138 q 421 381 398 281 q 444 568 444 481 l 444 612 q 440 671 443 634 q 433 739 437 709 q 420 812 429 772 q 400 882 411 851 q 369 948 388 916 q 329 1000 351 980 q 273 1036 305 1023 q 205 1048 241 1048 l 199 1048 q 94 1015 94 1048 q 104 977 94 1002 q 114 943 113 953 q 122 749 119 910 l 122 732 q 125 582 124 587 l 134 203 l 138 81 q 128 53 140 71 q 117 25 117 34 m 182 224 q 172 488 182 312 q 161 753 161 659 q 155 867 161 791 q 149 983 149 944 q 178 999 149 999 q 401 593 401 999 q 397 497 401 547 q 378 376 393 442 q 343 256 363 309 q 279 146 319 197 q 189 68 239 95 l 182 68 l 182 224 z "},"Ǆ":{"ha":977,"x_min":94,"x_max":868,"o":"m 822 1389 q 782 1181 814 1301 q 761 1240 776 1197 q 736 1314 745 1284 q 724 1361 725 1347 l 700 1393 l 675 1375 q 700 1296 675 1354 q 751 1189 724 1238 q 791 1140 779 1140 q 811 1169 811 1140 q 817 1221 811 1195 q 836 1282 823 1246 q 852 1332 846 1312 l 851 1340 l 861 1361 l 860 1368 q 865 1383 865 1380 q 840 1400 865 1396 l 822 1389 m 661 5 q 682 -12 669 -12 q 765 -9 716 -12 q 847 -7 813 -7 l 860 5 q 802 33 860 33 q 757 30 789 33 q 711 26 724 26 q 726 82 711 47 q 743 132 741 117 q 799 526 764 260 l 817 661 q 840 840 841 843 q 846 901 843 857 q 854 984 850 952 q 868 1035 859 1016 q 846 1060 868 1060 q 781 1053 821 1060 q 715 1046 736 1046 q 682 1048 692 1046 l 672 1038 q 734 1010 672 1010 q 782 1013 747 1010 q 828 1017 817 1017 q 817 908 827 977 l 812 882 l 810 860 q 757 476 797 764 l 746 399 q 728 276 739 366 q 704 119 719 183 q 661 5 689 54 m 117 25 q 133 5 117 13 q 168 -3 150 -3 q 216 23 180 -3 q 292 93 252 49 q 357 193 331 138 q 421 381 398 281 q 444 568 444 481 l 444 612 q 440 671 443 634 q 433 739 437 709 q 420 812 429 772 q 400 882 411 851 q 369 948 388 916 q 329 1000 351 980 q 273 1036 305 1023 q 205 1048 241 1048 l 199 1048 q 94 1015 94 1048 q 104 977 94 1002 q 114 943 113 953 q 122 749 119 910 l 122 732 q 125 582 124 587 l 134 203 l 138 81 q 128 53 140 71 q 117 25 117 34 m 182 224 q 172 488 182 312 q 161 753 161 659 q 155 867 161 791 q 149 983 149 944 q 178 999 149 999 q 401 593 401 999 q 397 497 401 547 q 378 376 393 442 q 343 256 363 309 q 279 146 319 197 q 189 68 239 95 l 182 68 l 182 224 z "},"Ð":{"ha":597,"x_min":35,"x_max":483,"o":"m 163 -33 q 173 -47 168 -43 q 189 -54 178 -52 q 204 -60 203 -59 q 351 63 283 -24 q 449 248 414 148 q 483 440 483 347 q 418 839 483 655 l 418 842 q 302 1001 372 927 q 219 1065 264 1042 q 132 1089 174 1089 q 118 1078 126 1089 q 109 1060 109 1066 q 115 936 109 1019 q 121 811 121 848 q 130 686 121 772 q 140 561 140 599 l 139 557 l 138 554 l 133 551 l 121 551 q 35 526 35 551 q 38 508 35 513 q 54 503 42 503 q 96 507 69 503 q 138 511 123 511 q 150 408 142 497 q 162 -33 162 151 l 163 -33 m 197 306 q 191 401 195 313 q 187 513 187 488 q 301 522 233 522 l 315 539 q 305 562 313 552 q 286 572 296 572 q 238 565 271 572 q 190 557 207 557 q 174 660 182 568 q 161 864 166 751 q 157 1040 157 977 l 159 1043 q 317 933 254 1015 q 404 737 380 850 q 424 627 417 686 q 431 535 430 572 q 433 418 433 499 q 409 288 433 359 q 345 152 385 218 q 259 40 305 85 l 250 31 q 233 14 239 18 q 210 4 223 7 q 203 155 210 59 q 195 304 195 260 l 197 306 z "},"Ď":{"ha":556,"x_min":94,"x_max":444,"o":"m 300 1389 q 260 1181 293 1301 q 239 1240 254 1197 q 214 1314 224 1284 q 202 1361 203 1347 l 178 1393 l 153 1375 q 178 1296 154 1354 q 230 1189 202 1238 q 270 1140 257 1140 q 290 1169 290 1140 q 296 1221 290 1195 q 315 1282 302 1246 q 331 1332 325 1312 l 330 1340 l 340 1361 l 338 1368 q 344 1383 344 1380 q 319 1400 344 1396 l 300 1389 m 117 25 q 133 5 117 13 q 168 -3 150 -3 q 216 23 180 -3 q 292 93 252 49 q 357 193 331 138 q 421 381 398 281 q 444 568 444 481 l 444 612 q 440 671 443 634 q 433 739 437 709 q 420 812 429 772 q 400 882 411 851 q 369 948 388 916 q 329 1000 351 980 q 273 1036 305 1023 q 205 1048 241 1048 l 199 1048 q 94 1015 94 1048 q 104 977 94 1002 q 114 943 113 953 q 122 749 119 910 l 122 732 q 125 582 124 587 l 134 203 l 138 81 q 128 53 140 71 q 117 25 117 34 m 182 224 q 172 488 182 312 q 161 753 161 659 q 155 867 161 791 q 149 983 149 944 q 178 999 149 999 q 401 593 401 999 q 397 497 401 547 q 378 376 393 442 q 343 256 363 309 q 279 146 319 197 q 189 68 239 95 l 182 68 l 182 224 z "},"Đ":{"ha":597,"x_min":35,"x_max":483,"o":"m 163 -33 q 173 -47 168 -43 q 189 -54 178 -52 q 204 -60 203 -59 q 351 63 283 -24 q 449 248 414 148 q 483 440 483 347 q 418 839 483 655 l 418 842 q 302 1001 372 927 q 219 1065 264 1042 q 132 1089 174 1089 q 118 1078 126 1089 q 109 1060 109 1066 q 115 936 109 1019 q 121 811 121 848 q 130 686 121 772 q 140 561 140 599 l 139 557 l 138 554 l 133 551 l 121 551 q 35 526 35 551 q 38 508 35 513 q 54 503 42 503 q 96 507 69 503 q 138 511 123 511 q 150 408 142 497 q 162 -33 162 151 l 163 -33 m 197 306 q 191 401 195 313 q 187 513 187 488 q 301 522 233 522 l 315 539 q 305 562 313 552 q 286 572 296 572 q 238 565 271 572 q 190 557 207 557 q 174 660 182 568 q 161 864 166 751 q 157 1040 157 977 l 159 1043 q 317 933 254 1015 q 404 737 380 850 q 424 627 417 686 q 431 535 430 572 q 433 418 433 499 q 409 288 433 359 q 345 152 385 218 q 259 40 305 85 l 250 31 q 233 14 239 18 q 210 4 223 7 q 203 155 210 59 q 195 304 195 260 l 197 306 z "},"Ḋ":{"ha":556,"x_min":94,"x_max":444,"o":"m 216 1311 q 225 1288 216 1299 q 246 1278 234 1278 q 285 1312 285 1278 q 274 1336 285 1324 q 252 1348 264 1348 q 227 1336 238 1348 q 216 1311 216 1324 m 117 25 q 133 5 117 13 q 168 -3 150 -3 q 216 23 180 -3 q 292 93 252 49 q 357 193 331 138 q 421 381 398 281 q 444 568 444 481 l 444 612 q 440 671 443 634 q 433 739 437 709 q 420 812 429 772 q 400 882 411 851 q 369 948 388 916 q 329 1000 351 980 q 273 1036 305 1023 q 205 1048 241 1048 l 199 1048 q 94 1015 94 1048 q 104 977 94 1002 q 114 943 113 953 q 122 749 119 910 l 122 732 q 125 582 124 587 l 134 203 l 138 81 q 128 53 140 71 q 117 25 117 34 m 182 224 q 172 488 182 312 q 161 753 161 659 q 155 867 161 791 q 149 983 149 944 q 178 999 149 999 q 401 593 401 999 q 397 497 401 547 q 378 376 393 442 q 343 256 363 309 q 279 146 319 197 q 189 68 239 95 l 182 68 l 182 224 z "},"ǲ":{"ha":1031,"x_min":94,"x_max":911,"o":"m 117 25 q 133 5 117 13 q 168 -3 150 -3 q 216 23 180 -3 q 292 93 252 49 q 357 193 331 138 q 421 381 398 281 q 444 568 444 481 l 444 612 q 440 671 443 634 q 433 739 437 709 q 420 812 429 772 q 400 882 411 851 q 369 948 388 916 q 329 1000 351 980 q 273 1036 305 1023 q 205 1048 241 1048 l 199 1048 q 94 1015 94 1048 q 104 977 94 1002 q 114 943 113 953 q 122 749 119 910 l 122 732 q 125 582 124 587 l 134 203 l 138 81 q 128 53 140 71 q 117 25 117 34 m 182 224 q 172 488 182 312 q 161 753 161 659 q 155 867 161 791 q 149 983 149 944 q 178 999 149 999 q 401 593 401 999 q 397 497 401 547 q 378 376 393 442 q 343 256 363 309 q 279 146 319 197 q 189 68 239 95 l 182 68 l 182 224 m 667 18 q 688 -3 667 -3 q 707 5 691 -3 q 737 12 722 12 q 779 10 751 12 q 819 8 806 8 q 851 26 851 8 q 811 45 851 45 q 782 43 802 45 q 753 40 765 40 q 713 43 724 40 q 801 467 713 177 q 843 621 836 585 q 877 745 843 640 q 911 897 911 851 q 905 912 911 907 q 894 919 900 918 q 876 920 888 920 q 772 915 819 920 q 722 897 722 909 q 728 882 722 889 q 742 875 734 875 q 807 880 766 875 q 872 884 851 884 q 855 754 872 827 q 805 575 838 680 q 767 450 777 487 q 741 330 758 412 q 714 215 725 253 l 693 138 l 681 90 q 667 18 667 35 z "},"ǅ":{"ha":1031,"x_min":94,"x_max":926,"o":"m 883 1267 q 843 1059 876 1179 q 822 1118 837 1075 q 797 1192 806 1162 q 785 1239 786 1225 l 761 1271 l 736 1253 q 761 1174 736 1232 q 812 1067 785 1116 q 852 1018 840 1018 q 872 1047 872 1018 q 878 1099 872 1073 q 897 1160 884 1124 q 913 1210 907 1190 l 912 1218 l 922 1239 l 921 1246 q 926 1261 926 1258 q 901 1278 926 1274 l 883 1267 m 117 25 q 133 5 117 13 q 168 -3 150 -3 q 216 23 180 -3 q 292 93 252 49 q 357 193 331 138 q 421 381 398 281 q 444 568 444 481 l 444 612 q 440 671 443 634 q 433 739 437 709 q 420 812 429 772 q 400 882 411 851 q 369 948 388 916 q 329 1000 351 980 q 273 1036 305 1023 q 205 1048 241 1048 l 199 1048 q 94 1015 94 1048 q 104 977 94 1002 q 114 943 113 953 q 122 749 119 910 l 122 732 q 125 582 124 587 l 134 203 l 138 81 q 128 53 140 71 q 117 25 117 34 m 182 224 q 172 488 182 312 q 161 753 161 659 q 155 867 161 791 q 149 983 149 944 q 178 999 149 999 q 401 593 401 999 q 397 497 401 547 q 378 376 393 442 q 343 256 363 309 q 279 146 319 197 q 189 68 239 95 l 182 68 l 182 224 m 667 18 q 688 -3 667 -3 q 707 5 691 -3 q 737 12 722 12 q 779 10 751 12 q 819 8 806 8 q 851 26 851 8 q 811 45 851 45 q 782 43 802 45 q 753 40 765 40 q 713 43 724 40 q 801 467 713 177 q 843 621 836 585 q 877 745 843 640 q 911 897 911 851 q 905 912 911 907 q 894 919 900 918 q 876 920 888 920 q 772 915 819 920 q 722 897 722 909 q 728 882 722 889 q 742 875 734 875 q 807 880 766 875 q 872 884 851 884 q 855 754 872 827 q 805 575 838 680 q 767 450 777 487 q 741 330 758 412 q 714 215 725 253 l 693 138 l 681 90 q 667 18 667 35 z "},"E":{"ha":420,"x_min":127,"x_max":330,"o":"m 130 22 q 144 -2 130 3 q 190 -8 157 -8 l 249 -8 q 317 -3 302 -8 q 330 24 330 2 q 304 42 330 42 l 292 42 l 233 42 l 174 41 l 174 93 q 171 313 174 186 q 168 519 168 440 q 174 526 168 526 l 253 526 q 269 531 264 526 q 274 549 274 536 q 251 570 274 570 q 176 567 222 570 l 174 567 l 173 567 q 170 570 170 567 l 170 743 l 170 861 q 170 979 170 913 q 173 992 170 989 q 186 996 176 996 l 208 994 l 231 993 q 254 994 248 993 q 272 1001 263 994 q 281 1019 281 1008 q 267 1043 281 1038 q 253 1045 260 1045 q 238 1046 247 1046 l 152 1046 q 134 1035 140 1046 q 127 1007 127 1024 q 130 852 130 920 l 131 279 l 130 77 l 130 74 q 130 48 130 60 l 130 22 z "},"É":{"ha":420,"x_min":127,"x_max":339,"o":"m 136 1268 q 143 1253 136 1259 q 161 1248 151 1248 q 335 1367 264 1335 l 339 1388 q 309 1410 339 1410 q 257 1369 304 1405 q 174 1304 205 1329 q 136 1268 136 1274 m 130 22 q 144 -2 130 3 q 190 -8 157 -8 l 249 -8 q 317 -3 302 -8 q 330 24 330 2 q 304 42 330 42 l 292 42 l 233 42 l 174 41 l 174 93 q 171 313 174 186 q 168 519 168 440 q 174 526 168 526 l 253 526 q 269 531 264 526 q 274 549 274 536 q 251 570 274 570 q 176 567 222 570 l 174 567 l 173 567 q 170 570 170 567 l 170 743 l 170 861 q 170 979 170 913 q 173 992 170 989 q 186 996 176 996 l 208 994 l 231 993 q 254 994 248 993 q 272 1001 263 994 q 281 1019 281 1008 q 267 1043 281 1038 q 253 1045 260 1045 q 238 1046 247 1046 l 152 1046 q 134 1035 140 1046 q 127 1007 127 1024 q 130 852 130 920 l 131 279 l 130 77 l 130 74 q 130 48 130 60 l 130 22 z "},"Ĕ":{"ha":420,"x_min":127,"x_max":342,"o":"m 136 1316 q 157 1222 136 1265 q 189 1187 168 1200 q 237 1175 210 1175 q 267 1179 255 1175 q 289 1189 281 1184 q 304 1205 297 1194 q 316 1225 312 1216 q 327 1248 321 1234 q 334 1263 331 1258 q 338 1272 336 1269 l 334 1282 l 338 1292 q 342 1303 342 1301 q 335 1317 342 1312 q 321 1323 329 1323 q 296 1297 296 1323 q 296 1287 296 1291 q 297 1277 297 1282 q 290 1247 297 1263 q 272 1218 283 1230 q 250 1206 261 1206 l 215 1206 l 200 1217 q 178 1252 185 1228 q 165 1307 170 1275 q 151 1329 161 1327 l 136 1316 m 130 22 q 144 -2 130 3 q 190 -8 157 -8 l 249 -8 q 317 -3 302 -8 q 330 24 330 2 q 304 42 330 42 l 292 42 l 233 42 l 174 41 l 174 93 q 171 313 174 186 q 168 519 168 440 q 174 526 168 526 l 253 526 q 269 531 264 526 q 274 549 274 536 q 251 570 274 570 q 176 567 222 570 l 174 567 l 173 567 q 170 570 170 567 l 170 743 l 170 861 q 170 979 170 913 q 173 992 170 989 q 186 996 176 996 l 208 994 l 231 993 q 254 994 248 993 q 272 1001 263 994 q 281 1019 281 1008 q 267 1043 281 1038 q 253 1045 260 1045 q 238 1046 247 1046 l 152 1046 q 134 1035 140 1046 q 127 1007 127 1024 q 130 852 130 920 l 131 279 l 130 77 l 130 74 q 130 48 130 60 l 130 22 z "},"Ě":{"ha":420,"x_min":119,"x_max":330,"o":"m 266 1389 q 226 1181 258 1301 q 204 1240 220 1197 q 180 1314 189 1284 q 168 1361 169 1347 l 144 1393 l 119 1375 q 143 1296 119 1354 q 195 1189 168 1238 q 235 1140 222 1140 q 255 1169 255 1140 q 261 1221 255 1195 q 280 1282 267 1246 q 296 1332 290 1312 l 295 1340 l 305 1361 l 304 1368 q 309 1383 309 1380 q 284 1400 309 1396 l 266 1389 m 130 22 q 144 -2 130 3 q 190 -8 157 -8 l 249 -8 q 317 -3 302 -8 q 330 24 330 2 q 304 42 330 42 l 292 42 l 233 42 l 174 41 l 174 93 q 171 313 174 186 q 168 519 168 440 q 174 526 168 526 l 253 526 q 269 531 264 526 q 274 549 274 536 q 251 570 274 570 q 176 567 222 570 l 174 567 l 173 567 q 170 570 170 567 l 170 743 l 170 861 q 170 979 170 913 q 173 992 170 989 q 186 996 176 996 l 208 994 l 231 993 q 254 994 248 993 q 272 1001 263 994 q 281 1019 281 1008 q 267 1043 281 1038 q 253 1045 260 1045 q 238 1046 247 1046 l 152 1046 q 134 1035 140 1046 q 127 1007 127 1024 q 130 852 130 920 l 131 279 l 130 77 l 130 74 q 130 48 130 60 l 130 22 z "},"Ȩ":{"ha":420,"x_min":127,"x_max":346,"o":"m 245 -67 q 346 -207 346 -75 q 331 -255 346 -229 q 292 -299 316 -281 q 241 -317 267 -317 q 200 -307 219 -317 q 181 -279 181 -296 q 196 -265 181 -265 q 218 -272 205 -265 q 241 -279 233 -279 q 280 -250 264 -279 q 295 -182 295 -221 q 274 -121 295 -137 q 256 -123 268 -121 q 237 -125 244 -125 q 199 -98 216 -125 q 210 -18 210 -71 l 210 -8 l 190 -8 q 144 -2 157 -8 q 130 22 130 3 l 130 48 q 130 74 130 60 l 130 77 l 131 279 l 130 852 q 127 1007 130 920 q 134 1035 127 1024 q 152 1046 140 1046 l 238 1046 q 253 1045 247 1046 q 267 1043 260 1045 q 281 1019 281 1038 q 272 1001 281 1008 q 254 994 263 994 q 231 993 248 993 l 208 994 l 186 996 q 173 992 176 996 q 170 979 170 989 q 170 861 170 913 l 170 743 l 170 570 q 173 567 170 567 l 174 567 l 176 567 q 251 570 222 570 q 274 549 274 570 q 269 531 274 536 q 253 526 264 526 l 174 526 q 168 519 168 526 q 171 313 168 440 q 174 93 174 186 l 174 41 l 233 42 l 292 42 l 304 42 q 330 24 330 42 q 317 -3 330 2 q 249 -8 302 -8 q 245 -67 245 -36 z "},"Ê":{"ha":420,"x_min":125,"x_max":330,"o":"m 291 1140 q 316 1157 316 1144 q 311 1172 316 1160 l 312 1179 l 302 1200 l 303 1208 q 287 1259 297 1228 q 268 1319 274 1293 q 262 1371 262 1345 q 242 1400 262 1400 q 202 1351 229 1400 q 150 1244 174 1302 q 125 1165 126 1185 l 151 1147 l 174 1179 q 186 1227 176 1194 q 211 1300 196 1257 q 233 1360 227 1343 q 273 1152 265 1239 l 291 1140 m 130 22 q 144 -2 130 3 q 190 -8 157 -8 l 249 -8 q 317 -3 302 -8 q 330 24 330 2 q 304 42 330 42 l 292 42 l 233 42 l 174 41 l 174 93 q 171 313 174 186 q 168 519 168 440 q 174 526 168 526 l 253 526 q 269 531 264 526 q 274 549 274 536 q 251 570 274 570 q 176 567 222 570 l 174 567 l 173 567 q 170 570 170 567 l 170 743 l 170 861 q 170 979 170 913 q 173 992 170 989 q 186 996 176 996 l 208 994 l 231 993 q 254 994 248 993 q 272 1001 263 994 q 281 1019 281 1008 q 267 1043 281 1038 q 253 1045 260 1045 q 238 1046 247 1046 l 152 1046 q 134 1035 140 1046 q 127 1007 127 1024 q 130 852 130 920 l 131 279 l 130 77 l 130 74 q 130 48 130 60 l 130 22 z "},"Ȅ":{"ha":420,"x_min":-121,"x_max":330,"o":"m 320 1282 q 264 1337 318 1291 q 153 1426 210 1383 q 88 1469 96 1469 q 79 1461 85 1469 q 73 1448 73 1454 q 82 1434 73 1439 q 208 1336 182 1354 q 256 1305 224 1329 q 314 1274 291 1279 l 320 1282 m 80 1350 q -15 1418 8 1404 q -93 1459 -86 1459 q -110 1447 -100 1459 q -121 1425 -119 1436 l -49 1384 q 26 1347 -26 1375 q 44 1336 28 1346 l 60 1326 q 110 1293 83 1310 q 138 1278 133 1278 q 146 1289 146 1278 q 80 1350 146 1299 m 130 22 q 144 -2 130 3 q 190 -8 157 -8 l 249 -8 q 317 -3 302 -8 q 330 24 330 2 q 304 42 330 42 l 292 42 l 233 42 l 174 41 l 174 93 q 171 313 174 186 q 168 519 168 440 q 174 526 168 526 l 253 526 q 269 531 264 526 q 274 549 274 536 q 251 570 274 570 q 176 567 222 570 l 174 567 l 173 567 q 170 570 170 567 l 170 743 l 170 861 q 170 979 170 913 q 173 992 170 989 q 186 996 176 996 l 208 994 l 231 993 q 254 994 248 993 q 272 1001 263 994 q 281 1019 281 1008 q 267 1043 281 1038 q 253 1045 260 1045 q 238 1046 247 1046 l 152 1046 q 134 1035 140 1046 q 127 1007 127 1024 q 130 852 130 920 l 131 279 l 130 77 l 130 74 q 130 48 130 60 l 130 22 z "},"Ë":{"ha":420,"x_min":36,"x_max":412,"o":"m 348 1265 q 357 1244 348 1254 q 376 1234 366 1234 q 412 1266 412 1234 q 403 1288 412 1277 q 382 1299 393 1299 q 358 1289 369 1299 q 348 1265 348 1278 m 36 1263 q 44 1240 36 1251 q 62 1229 52 1229 q 86 1235 76 1229 q 97 1253 97 1242 q 90 1285 97 1272 q 69 1298 83 1298 q 46 1287 57 1298 q 36 1263 36 1276 m 130 22 q 144 -2 130 3 q 190 -8 157 -8 l 249 -8 q 317 -3 302 -8 q 330 24 330 2 q 304 42 330 42 l 292 42 l 233 42 l 174 41 l 174 93 q 171 313 174 186 q 168 519 168 440 q 174 526 168 526 l 253 526 q 269 531 264 526 q 274 549 274 536 q 251 570 274 570 q 176 567 222 570 l 174 567 l 173 567 q 170 570 170 567 l 170 743 l 170 861 q 170 979 170 913 q 173 992 170 989 q 186 996 176 996 l 208 994 l 231 993 q 254 994 248 993 q 272 1001 263 994 q 281 1019 281 1008 q 267 1043 281 1038 q 253 1045 260 1045 q 238 1046 247 1046 l 152 1046 q 134 1035 140 1046 q 127 1007 127 1024 q 130 852 130 920 l 131 279 l 130 77 l 130 74 q 130 48 130 60 l 130 22 z "},"Ė":{"ha":420,"x_min":127,"x_max":330,"o":"m 181 1311 q 190 1288 181 1299 q 212 1278 199 1278 q 250 1312 250 1278 q 240 1336 250 1324 q 217 1348 229 1348 q 192 1336 203 1348 q 181 1311 181 1324 m 130 22 q 144 -2 130 3 q 190 -8 157 -8 l 249 -8 q 317 -3 302 -8 q 330 24 330 2 q 304 42 330 42 l 292 42 l 233 42 l 174 41 l 174 93 q 171 313 174 186 q 168 519 168 440 q 174 526 168 526 l 253 526 q 269 531 264 526 q 274 549 274 536 q 251 570 274 570 q 176 567 222 570 l 174 567 l 173 567 q 170 570 170 567 l 170 743 l 170 861 q 170 979 170 913 q 173 992 170 989 q 186 996 176 996 l 208 994 l 231 993 q 254 994 248 993 q 272 1001 263 994 q 281 1019 281 1008 q 267 1043 281 1038 q 253 1045 260 1045 q 238 1046 247 1046 l 152 1046 q 134 1035 140 1046 q 127 1007 127 1024 q 130 852 130 920 l 131 279 l 130 77 l 130 74 q 130 48 130 60 l 130 22 z "},"È":{"ha":420,"x_min":18,"x_max":330,"o":"m 87 1323 q 159 1296 93 1320 q 228 1273 225 1273 q 238 1277 233 1273 q 244 1284 244 1280 q 218 1311 244 1296 q 161 1337 195 1324 q 106 1358 124 1352 q 95 1361 99 1360 q 89 1363 90 1362 q 35 1379 77 1379 l 26 1379 q 18 1348 18 1373 q 65 1320 18 1320 q 87 1323 76 1320 m 130 22 q 144 -2 130 3 q 190 -8 157 -8 l 249 -8 q 317 -3 302 -8 q 330 24 330 2 q 304 42 330 42 l 292 42 l 233 42 l 174 41 l 174 93 q 171 313 174 186 q 168 519 168 440 q 174 526 168 526 l 253 526 q 269 531 264 526 q 274 549 274 536 q 251 570 274 570 q 176 567 222 570 l 174 567 l 173 567 q 170 570 170 567 l 170 743 l 170 861 q 170 979 170 913 q 173 992 170 989 q 186 996 176 996 l 208 994 l 231 993 q 254 994 248 993 q 272 1001 263 994 q 281 1019 281 1008 q 267 1043 281 1038 q 253 1045 260 1045 q 238 1046 247 1046 l 152 1046 q 134 1035 140 1046 q 127 1007 127 1024 q 130 852 130 920 l 131 279 l 130 77 l 130 74 q 130 48 130 60 l 130 22 z "},"Ȇ":{"ha":420,"x_min":127,"x_max":335,"o":"m 144 1235 q 158 1257 154 1236 q 171 1312 163 1289 q 193 1346 178 1335 l 208 1357 l 243 1357 q 266 1345 254 1357 q 283 1317 277 1333 q 290 1286 290 1300 q 290 1277 290 1281 q 289 1267 289 1272 q 314 1240 289 1240 q 329 1246 322 1240 q 335 1260 335 1252 q 332 1272 335 1263 l 328 1282 l 331 1292 q 327 1300 330 1295 q 320 1316 324 1306 q 313 1332 316 1326 q 309 1340 311 1337 q 281 1375 294 1369 q 231 1389 257 1389 q 182 1376 203 1389 q 151 1341 161 1364 q 130 1247 130 1299 l 144 1235 m 130 22 q 144 -2 130 3 q 190 -8 157 -8 l 249 -8 q 317 -3 302 -8 q 330 24 330 2 q 304 42 330 42 l 292 42 l 233 42 l 174 41 l 174 93 q 171 313 174 186 q 168 519 168 440 q 174 526 168 526 l 253 526 q 269 531 264 526 q 274 549 274 536 q 251 570 274 570 q 176 567 222 570 l 174 567 l 173 567 q 170 570 170 567 l 170 743 l 170 861 q 170 979 170 913 q 173 992 170 989 q 186 996 176 996 l 208 994 l 231 993 q 254 994 248 993 q 272 1001 263 994 q 281 1019 281 1008 q 267 1043 281 1038 q 253 1045 260 1045 q 238 1046 247 1046 l 152 1046 q 134 1035 140 1046 q 127 1007 127 1024 q 130 852 130 920 l 131 279 l 130 77 l 130 74 q 130 48 130 60 l 130 22 z "},"Ē":{"ha":420,"x_min":115,"x_max":382,"o":"m 382 1255 q 376 1268 382 1263 q 353 1275 369 1273 q 321 1277 337 1277 q 282 1278 306 1278 l 203 1278 q 115 1266 116 1278 q 118 1257 115 1261 q 144 1246 122 1251 q 189 1244 157 1244 l 216 1244 l 294 1244 q 382 1255 381 1244 m 130 22 q 144 -2 130 3 q 190 -8 157 -8 l 249 -8 q 317 -3 302 -8 q 330 24 330 2 q 304 42 330 42 l 292 42 l 233 42 l 174 41 l 174 93 q 171 313 174 186 q 168 519 168 440 q 174 526 168 526 l 253 526 q 269 531 264 526 q 274 549 274 536 q 251 570 274 570 q 176 567 222 570 l 174 567 l 173 567 q 170 570 170 567 l 170 743 l 170 861 q 170 979 170 913 q 173 992 170 989 q 186 996 176 996 l 208 994 l 231 993 q 254 994 248 993 q 272 1001 263 994 q 281 1019 281 1008 q 267 1043 281 1038 q 253 1045 260 1045 q 238 1046 247 1046 l 152 1046 q 134 1035 140 1046 q 127 1007 127 1024 q 130 852 130 920 l 131 279 l 130 77 l 130 74 q 130 48 130 60 l 130 22 z "},"Ę":{"ha":420,"x_min":127,"x_max":330,"o":"m 304 42 q 330 24 330 42 q 317 -3 330 2 q 275 -7 307 -6 l 275 -8 q 246 -50 258 -30 q 223 -96 233 -70 q 211 -149 211 -125 q 208 -181 211 -164 l 208 -195 q 207 -210 207 -201 q 222 -248 207 -229 q 254 -267 237 -267 q 276 -260 261 -267 q 298 -253 290 -253 q 313 -267 313 -253 q 294 -294 313 -284 q 254 -304 275 -304 q 203 -287 227 -304 q 163 -242 178 -269 q 149 -195 149 -216 q 158 -129 149 -163 q 182 -69 168 -96 q 223 -8 205 -30 l 190 -8 q 144 -2 157 -8 q 130 22 130 3 l 130 48 q 130 74 130 60 l 130 77 l 131 279 l 130 852 q 127 1007 130 920 q 134 1035 127 1024 q 152 1046 140 1046 l 238 1046 q 253 1045 247 1046 q 267 1043 260 1045 q 281 1019 281 1038 q 272 1001 281 1008 q 254 994 263 994 q 231 993 248 993 l 208 994 l 186 996 q 173 992 176 996 q 170 979 170 989 q 170 861 170 913 l 170 743 l 170 570 q 173 567 170 567 l 174 567 l 176 567 q 251 570 222 570 q 274 549 274 570 q 269 531 274 536 q 253 526 264 526 l 174 526 q 168 519 168 526 q 171 313 168 440 q 174 93 174 186 l 174 41 l 233 42 l 292 42 l 304 42 z "},"Ẽ":{"ha":420,"x_min":63,"x_max":356,"o":"m 63 1211 q 72 1195 63 1203 q 90 1187 81 1187 l 104 1208 q 98 1238 98 1231 q 113 1264 98 1253 q 149 1275 129 1275 l 159 1271 q 194 1232 181 1244 q 234 1202 209 1216 q 282 1189 259 1189 q 318 1199 301 1189 q 346 1226 335 1209 q 356 1262 356 1243 q 348 1296 356 1282 q 324 1310 340 1310 q 310 1301 314 1310 q 315 1289 311 1296 q 318 1275 318 1279 q 282 1225 318 1225 q 237 1242 262 1225 q 203 1279 213 1259 q 144 1308 178 1308 q 86 1281 110 1308 q 63 1211 63 1255 m 130 22 q 144 -2 130 3 q 190 -8 157 -8 l 249 -8 q 317 -3 302 -8 q 330 24 330 2 q 304 42 330 42 l 292 42 l 233 42 l 174 41 l 174 93 q 171 313 174 186 q 168 519 168 440 q 174 526 168 526 l 253 526 q 269 531 264 526 q 274 549 274 536 q 251 570 274 570 q 176 567 222 570 l 174 567 l 173 567 q 170 570 170 567 l 170 743 l 170 861 q 170 979 170 913 q 173 992 170 989 q 186 996 176 996 l 208 994 l 231 993 q 254 994 248 993 q 272 1001 263 994 q 281 1019 281 1008 q 267 1043 281 1038 q 253 1045 260 1045 q 238 1046 247 1046 l 152 1046 q 134 1035 140 1046 q 127 1007 127 1024 q 130 852 130 920 l 131 279 l 130 77 l 130 74 q 130 48 130 60 l 130 22 z "},"F":{"ha":393,"x_min":111,"x_max":290,"o":"m 170 -3 q 201 23 201 -3 q 197 41 201 31 l 201 49 q 188 283 201 131 q 174 517 174 442 q 203 533 174 530 q 234 536 208 534 q 275 544 260 538 q 290 561 290 551 q 283 579 290 570 q 268 589 276 589 q 221 581 253 589 q 174 572 190 572 q 164 777 174 589 q 154 979 154 964 q 157 1001 154 997 q 171 1006 160 1006 l 207 1005 l 239 1004 q 264 1018 264 1004 q 258 1040 264 1031 q 241 1050 252 1050 q 203 1050 219 1050 l 172 1050 q 124 1048 136 1050 q 111 1034 111 1044 l 111 1025 l 116 919 q 126 696 121 809 q 130 555 130 583 q 144 221 130 447 l 148 136 l 148 33 q 170 -3 148 -3 z "},"Ḟ":{"ha":393,"x_min":111,"x_max":290,"o":"m 168 1311 q 177 1288 168 1299 q 198 1278 186 1278 q 237 1312 237 1278 q 226 1336 237 1324 q 203 1348 216 1348 q 179 1336 190 1348 q 168 1311 168 1324 m 170 -3 q 201 23 201 -3 q 197 41 201 31 l 201 49 q 188 283 201 131 q 174 517 174 442 q 203 533 174 530 q 234 536 208 534 q 275 544 260 538 q 290 561 290 551 q 283 579 290 570 q 268 589 276 589 q 221 581 253 589 q 174 572 190 572 q 164 777 174 589 q 154 979 154 964 q 157 1001 154 997 q 171 1006 160 1006 l 207 1005 l 239 1004 q 264 1018 264 1004 q 258 1040 264 1031 q 241 1050 252 1050 q 203 1050 219 1050 l 172 1050 q 124 1048 136 1050 q 111 1034 111 1044 l 111 1025 l 116 919 q 126 696 121 809 q 130 555 130 583 q 144 221 130 447 l 148 136 l 148 33 q 170 -3 148 -3 z "},"G":{"ha":624,"x_min":116,"x_max":511,"o":"m 116 595 q 165 127 116 276 q 321 -22 216 -22 q 460 24 380 -22 l 460 20 l 459 17 q 492 -14 459 -14 q 511 8 511 -14 q 497 132 511 47 q 483 256 483 215 q 472 298 483 281 q 439 314 461 314 q 374 304 412 314 q 336 283 336 295 q 368 260 336 260 q 396 262 380 260 q 423 265 412 265 q 442 242 434 265 q 453 184 450 216 q 459 86 459 126 q 341 17 414 17 q 266 48 298 17 q 215 124 234 78 q 183 239 195 171 q 167 359 172 301 q 163 485 163 416 q 163 561 163 546 l 165 652 q 172 775 166 723 q 194 899 181 855 q 214 953 202 927 q 240 994 227 979 q 275 1022 255 1012 q 319 1032 296 1032 q 338 1029 323 1032 q 358 1025 351 1025 q 378 1042 378 1025 q 337 1065 378 1065 q 273 1054 304 1065 q 222 1024 243 1042 q 184 977 201 1005 q 156 918 167 946 q 138 853 145 890 q 125 784 130 814 q 119 715 121 753 q 116 595 116 663 z "},"Ǵ":{"ha":624,"x_min":116,"x_max":511,"o":"m 252 1268 q 259 1253 252 1259 q 277 1248 267 1248 q 451 1367 380 1335 l 455 1388 q 425 1410 455 1410 q 373 1369 420 1405 q 290 1304 321 1329 q 252 1268 252 1274 m 116 595 q 165 127 116 276 q 321 -22 216 -22 q 460 24 380 -22 l 460 20 l 459 17 q 492 -14 459 -14 q 511 8 511 -14 q 497 132 511 47 q 483 256 483 215 q 472 298 483 281 q 439 314 461 314 q 374 304 412 314 q 336 283 336 295 q 368 260 336 260 q 396 262 380 260 q 423 265 412 265 q 442 242 434 265 q 453 184 450 216 q 459 86 459 126 q 341 17 414 17 q 266 48 298 17 q 215 124 234 78 q 183 239 195 171 q 167 359 172 301 q 163 485 163 416 q 163 561 163 546 l 165 652 q 172 775 166 723 q 194 899 181 855 q 214 953 202 927 q 240 994 227 979 q 275 1022 255 1012 q 319 1032 296 1032 q 338 1029 323 1032 q 358 1025 351 1025 q 378 1042 378 1025 q 337 1065 378 1065 q 273 1054 304 1065 q 222 1024 243 1042 q 184 977 201 1005 q 156 918 167 946 q 138 853 145 890 q 125 784 130 814 q 119 715 121 753 q 116 595 116 663 z "},"Ğ":{"ha":624,"x_min":116,"x_max":511,"o":"m 252 1316 q 273 1222 252 1265 q 305 1187 284 1200 q 353 1175 326 1175 q 383 1179 371 1175 q 405 1189 397 1184 q 420 1205 413 1194 q 432 1225 428 1216 q 443 1248 437 1234 q 450 1263 447 1258 q 454 1272 452 1269 l 450 1282 l 454 1292 q 458 1303 458 1301 q 451 1317 458 1312 q 437 1323 445 1323 q 412 1297 412 1323 q 412 1287 412 1291 q 413 1277 413 1282 q 406 1247 413 1263 q 388 1218 399 1230 q 366 1206 377 1206 l 331 1206 l 316 1217 q 294 1252 301 1228 q 281 1307 286 1275 q 267 1329 277 1327 l 252 1316 m 116 595 q 165 127 116 276 q 321 -22 216 -22 q 460 24 380 -22 l 460 20 l 459 17 q 492 -14 459 -14 q 511 8 511 -14 q 497 132 511 47 q 483 256 483 215 q 472 298 483 281 q 439 314 461 314 q 374 304 412 314 q 336 283 336 295 q 368 260 336 260 q 396 262 380 260 q 423 265 412 265 q 442 242 434 265 q 453 184 450 216 q 459 86 459 126 q 341 17 414 17 q 266 48 298 17 q 215 124 234 78 q 183 239 195 171 q 167 359 172 301 q 163 485 163 416 q 163 561 163 546 l 165 652 q 172 775 166 723 q 194 899 181 855 q 214 953 202 927 q 240 994 227 979 q 275 1022 255 1012 q 319 1032 296 1032 q 338 1029 323 1032 q 358 1025 351 1025 q 378 1042 378 1025 q 337 1065 378 1065 q 273 1054 304 1065 q 222 1024 243 1042 q 184 977 201 1005 q 156 918 167 946 q 138 853 145 890 q 125 784 130 814 q 119 715 121 753 q 116 595 116 663 z "},"Ǧ":{"ha":624,"x_min":116,"x_max":511,"o":"m 382 1389 q 342 1181 374 1301 q 320 1240 336 1197 q 296 1314 305 1284 q 283 1361 285 1347 l 260 1393 l 235 1375 q 259 1296 235 1354 q 311 1189 283 1238 q 351 1140 338 1140 q 371 1169 371 1140 q 377 1221 371 1195 q 396 1282 383 1246 q 412 1332 406 1312 l 411 1340 l 421 1361 l 420 1368 q 425 1383 425 1380 q 400 1400 425 1396 l 382 1389 m 116 595 q 165 127 116 276 q 321 -22 216 -22 q 460 24 380 -22 l 460 20 l 459 17 q 492 -14 459 -14 q 511 8 511 -14 q 497 132 511 47 q 483 256 483 215 q 472 298 483 281 q 439 314 461 314 q 374 304 412 314 q 336 283 336 295 q 368 260 336 260 q 396 262 380 260 q 423 265 412 265 q 442 242 434 265 q 453 184 450 216 q 459 86 459 126 q 341 17 414 17 q 266 48 298 17 q 215 124 234 78 q 183 239 195 171 q 167 359 172 301 q 163 485 163 416 q 163 561 163 546 l 165 652 q 172 775 166 723 q 194 899 181 855 q 214 953 202 927 q 240 994 227 979 q 275 1022 255 1012 q 319 1032 296 1032 q 338 1029 323 1032 q 358 1025 351 1025 q 378 1042 378 1025 q 337 1065 378 1065 q 273 1054 304 1065 q 222 1024 243 1042 q 184 977 201 1005 q 156 918 167 946 q 138 853 145 890 q 125 784 130 814 q 119 715 121 753 q 116 595 116 663 z "},"Ĝ":{"ha":624,"x_min":116,"x_max":511,"o":"m 407 1140 q 432 1157 432 1144 q 427 1172 432 1160 l 428 1179 l 418 1200 l 419 1208 q 403 1259 413 1228 q 384 1319 390 1293 q 378 1371 378 1345 q 358 1400 378 1400 q 318 1351 345 1400 q 266 1244 290 1302 q 241 1165 242 1185 l 267 1147 l 290 1179 q 302 1227 292 1194 q 327 1300 312 1257 q 349 1360 342 1343 q 389 1152 381 1239 l 407 1140 m 116 595 q 165 127 116 276 q 321 -22 216 -22 q 460 24 380 -22 l 460 20 l 459 17 q 492 -14 459 -14 q 511 8 511 -14 q 497 132 511 47 q 483 256 483 215 q 472 298 483 281 q 439 314 461 314 q 374 304 412 314 q 336 283 336 295 q 368 260 336 260 q 396 262 380 260 q 423 265 412 265 q 442 242 434 265 q 453 184 450 216 q 459 86 459 126 q 341 17 414 17 q 266 48 298 17 q 215 124 234 78 q 183 239 195 171 q 167 359 172 301 q 163 485 163 416 q 163 561 163 546 l 165 652 q 172 775 166 723 q 194 899 181 855 q 214 953 202 927 q 240 994 227 979 q 275 1022 255 1012 q 319 1032 296 1032 q 338 1029 323 1032 q 358 1025 351 1025 q 378 1042 378 1025 q 337 1065 378 1065 q 273 1054 304 1065 q 222 1024 243 1042 q 184 977 201 1005 q 156 918 167 946 q 138 853 145 890 q 125 784 130 814 q 119 715 121 753 q 116 595 116 663 z "},"Ģ":{"ha":624,"x_min":116,"x_max":511,"o":"m 116 595 q 165 127 116 276 q 321 -22 216 -22 q 460 24 380 -22 l 460 20 l 459 17 q 492 -14 459 -14 q 511 8 511 -14 q 497 132 511 47 q 483 256 483 215 q 472 298 483 281 q 439 314 461 314 q 374 304 412 314 q 336 283 336 295 q 368 260 336 260 q 396 262 380 260 q 423 265 412 265 q 442 242 434 265 q 453 184 450 216 q 459 86 459 126 q 341 17 414 17 q 266 48 298 17 q 215 124 234 78 q 183 239 195 171 q 167 359 172 301 q 163 485 163 416 q 163 561 163 546 l 165 652 q 172 775 166 723 q 194 899 181 855 q 214 953 202 927 q 240 994 227 979 q 275 1022 255 1012 q 319 1032 296 1032 q 338 1029 323 1032 q 358 1025 351 1025 q 378 1042 378 1025 q 337 1065 378 1065 q 273 1054 304 1065 q 222 1024 243 1042 q 184 977 201 1005 q 156 918 167 946 q 138 853 145 890 q 125 784 130 814 q 119 715 121 753 q 116 595 116 663 m 278 -298 q 328 -265 301 -298 q 372 -194 354 -234 q 389 -131 389 -155 q 387 -114 389 -119 l 389 -110 q 343 -69 374 -69 q 307 -82 323 -69 q 290 -113 290 -94 q 302 -146 290 -130 q 331 -174 313 -163 q 327 -197 331 -186 q 297 -239 321 -213 q 277 -259 288 -248 q 258 -275 265 -270 l 256 -288 l 278 -298 z "},"Ġ":{"ha":624,"x_min":116,"x_max":511,"o":"m 297 1311 q 306 1288 297 1299 q 328 1278 315 1278 q 366 1312 366 1278 q 356 1336 366 1324 q 333 1348 345 1348 q 308 1336 319 1348 q 297 1311 297 1324 m 116 595 q 165 127 116 276 q 321 -22 216 -22 q 460 24 380 -22 l 460 20 l 459 17 q 492 -14 459 -14 q 511 8 511 -14 q 497 132 511 47 q 483 256 483 215 q 472 298 483 281 q 439 314 461 314 q 374 304 412 314 q 336 283 336 295 q 368 260 336 260 q 396 262 380 260 q 423 265 412 265 q 442 242 434 265 q 453 184 450 216 q 459 86 459 126 q 341 17 414 17 q 266 48 298 17 q 215 124 234 78 q 183 239 195 171 q 167 359 172 301 q 163 485 163 416 q 163 561 163 546 l 165 652 q 172 775 166 723 q 194 899 181 855 q 214 953 202 927 q 240 994 227 979 q 275 1022 255 1012 q 319 1032 296 1032 q 338 1029 323 1032 q 358 1025 351 1025 q 378 1042 378 1025 q 337 1065 378 1065 q 273 1054 304 1065 q 222 1024 243 1042 q 184 977 201 1005 q 156 918 167 946 q 138 853 145 890 q 125 784 130 814 q 119 715 121 753 q 116 595 116 663 z "},"H":{"ha":502,"x_min":111,"x_max":374,"o":"m 355 -14 q 369 -5 364 -14 q 374 14 374 3 l 374 33 q 364 433 374 83 q 354 1029 354 782 q 347 1043 354 1038 q 330 1048 340 1048 q 312 1031 312 1048 q 319 795 312 945 q 325 559 325 637 l 323 557 q 244 551 300 557 q 164 546 188 546 q 157 582 157 546 l 157 650 q 151 791 157 691 q 145 932 145 884 l 145 1035 q 141 1048 146 1043 q 128 1053 136 1053 q 111 1039 111 1053 q 136 406 111 740 q 145 202 139 360 q 151 14 151 45 q 173 -5 151 -5 q 187 16 187 -5 q 176 267 187 92 q 163 517 163 437 q 262 522 182 522 q 288 523 276 522 l 315 523 l 323 523 q 337 40 337 253 q 336 24 337 31 q 336 8 336 17 q 340 -8 336 -3 q 355 -14 344 -14 z "},"Ħ":{"ha":515,"x_min":89,"x_max":387,"o":"m 361 -22 q 342 8 342 -22 q 342 24 342 17 q 343 40 343 31 q 330 517 343 247 l 326 516 q 321 515 323 515 q 294 519 313 515 q 268 522 275 522 q 170 505 199 522 q 182 265 170 425 q 193 25 193 100 q 179 4 193 4 q 164 7 169 4 q 157 18 160 10 q 149 116 152 35 q 145 288 146 171 q 142 406 144 375 q 120 818 126 626 l 118 818 q 98 825 107 818 q 89 842 89 831 q 119 844 89 844 q 117 1039 117 921 l 139 1050 l 157 1035 q 151 932 151 983 q 154 846 151 897 q 270 848 176 847 l 322 848 q 318 1031 318 970 q 321 1050 318 1038 q 354 1014 347 1050 q 360 937 360 983 l 360 848 q 373 839 368 847 q 379 822 379 831 l 361 822 q 372 355 363 604 q 380 33 380 104 q 387 14 387 21 q 378 -10 387 3 q 361 -22 370 -22 m 167 546 q 248 551 191 546 q 330 557 306 557 l 331 559 q 323 822 331 621 q 201 820 331 822 l 155 819 q 163 650 163 688 q 162 622 163 634 q 161 595 161 610 q 167 546 161 569 z "},"Ȟ":{"ha":502,"x_min":111,"x_max":374,"o":"m 286 1389 q 246 1181 279 1301 q 225 1240 240 1197 q 200 1314 210 1284 q 188 1361 189 1347 l 164 1393 l 139 1375 q 164 1296 140 1354 q 215 1189 188 1238 q 256 1140 243 1140 q 275 1169 275 1140 q 281 1221 275 1195 q 300 1282 288 1246 q 317 1332 311 1312 l 315 1340 l 326 1361 l 324 1368 q 330 1383 330 1380 q 304 1400 330 1396 l 286 1389 m 355 -14 q 369 -5 364 -14 q 374 14 374 3 l 374 33 q 364 433 374 83 q 354 1029 354 782 q 347 1043 354 1038 q 330 1048 340 1048 q 312 1031 312 1048 q 319 795 312 945 q 325 559 325 637 l 323 557 q 244 551 300 557 q 164 546 188 546 q 157 582 157 546 l 157 650 q 151 791 157 691 q 145 932 145 884 l 145 1035 q 141 1048 146 1043 q 128 1053 136 1053 q 111 1039 111 1053 q 136 406 111 740 q 145 202 139 360 q 151 14 151 45 q 173 -5 151 -5 q 187 16 187 -5 q 176 267 187 92 q 163 517 163 437 q 262 522 182 522 q 288 523 276 522 l 315 523 l 323 523 q 337 40 337 253 q 336 24 337 31 q 336 8 336 17 q 340 -8 336 -3 q 355 -14 344 -14 z "},"Ĥ":{"ha":502,"x_min":111,"x_max":374,"o":"m 311 1140 q 336 1157 336 1144 q 331 1172 336 1160 l 332 1179 l 322 1200 l 323 1208 q 307 1259 317 1228 q 288 1319 294 1293 q 282 1371 282 1345 q 262 1400 282 1400 q 222 1351 250 1400 q 171 1244 195 1302 q 146 1165 146 1185 l 171 1147 l 195 1179 q 207 1227 196 1194 q 232 1300 216 1257 q 253 1360 247 1343 q 293 1152 286 1239 l 311 1140 m 355 -14 q 369 -5 364 -14 q 374 14 374 3 l 374 33 q 364 433 374 83 q 354 1029 354 782 q 347 1043 354 1038 q 330 1048 340 1048 q 312 1031 312 1048 q 319 795 312 945 q 325 559 325 637 l 323 557 q 244 551 300 557 q 164 546 188 546 q 157 582 157 546 l 157 650 q 151 791 157 691 q 145 932 145 884 l 145 1035 q 141 1048 146 1043 q 128 1053 136 1053 q 111 1039 111 1053 q 136 406 111 740 q 145 202 139 360 q 151 14 151 45 q 173 -5 151 -5 q 187 16 187 -5 q 176 267 187 92 q 163 517 163 437 q 262 522 182 522 q 288 523 276 522 l 315 523 l 323 523 q 337 40 337 253 q 336 24 337 31 q 336 8 336 17 q 340 -8 336 -3 q 355 -14 344 -14 z "},"I":{"ha":448,"x_min":111,"x_max":322,"o":"m 142 47 q 119 30 119 47 q 126 14 119 21 q 143 7 133 7 q 227 6 195 7 q 303 5 259 5 q 316 13 310 5 q 322 28 322 20 q 291 48 322 48 l 241 48 q 241 86 241 68 q 242 125 242 104 q 225 563 242 264 q 208 1000 208 873 q 210 1005 208 1003 q 216 1007 211 1006 q 226 1008 221 1008 l 241 1008 q 256 1008 249 1008 q 274 1007 264 1007 q 286 1014 281 1007 q 291 1029 291 1021 q 284 1044 291 1039 q 266 1049 277 1049 q 213 1050 233 1049 l 174 1050 q 122 1046 134 1050 q 111 1026 111 1040 q 125 1006 111 1006 l 173 1006 q 177 918 177 994 q 176 826 177 865 l 176 755 l 180 623 l 186 450 q 196 47 196 180 l 142 47 z "},"Ĳ":{"ha":868,"x_min":111,"x_max":768,"o":"m 575 -109 q 604 -135 575 -135 q 663 -82 640 -111 q 700 -25 686 -53 q 720 43 713 3 q 728 114 726 81 q 730 207 730 146 q 715 541 730 241 q 699 1010 699 854 l 730 1010 q 761 1014 753 1010 q 768 1031 768 1017 q 762 1046 768 1040 q 746 1053 755 1053 q 672 1053 700 1053 l 619 1054 q 567 1049 578 1054 q 555 1028 555 1044 q 560 1014 555 1020 q 574 1007 566 1007 l 615 1008 l 657 1010 q 664 759 657 914 l 665 743 q 671 543 671 540 q 680 355 673 488 q 686 150 686 229 q 625 -62 686 -1 q 608 -75 621 -67 q 584 -93 593 -85 q 575 -109 576 -101 m 142 47 q 119 30 119 47 q 126 14 119 21 q 143 7 133 7 q 227 6 195 7 q 303 5 259 5 q 316 13 310 5 q 322 28 322 20 q 291 48 322 48 l 241 48 q 241 86 241 68 q 242 125 242 104 q 225 563 242 264 q 208 1000 208 873 q 210 1005 208 1003 q 216 1007 211 1006 q 226 1008 221 1008 l 241 1008 q 256 1008 249 1008 q 274 1007 264 1007 q 286 1014 281 1007 q 291 1029 291 1021 q 284 1044 291 1039 q 266 1049 277 1049 q 213 1050 233 1049 l 174 1050 q 122 1046 134 1050 q 111 1026 111 1040 q 125 1006 111 1006 l 173 1006 q 177 918 177 994 q 176 826 177 865 l 176 755 l 180 623 l 186 450 q 196 47 196 180 l 142 47 z "},"Í":{"ha":448,"x_min":111,"x_max":322,"o":"m 116 1268 q 123 1253 116 1259 q 141 1248 130 1248 q 315 1367 243 1335 l 319 1388 q 288 1410 319 1410 q 237 1369 283 1405 q 154 1304 184 1329 q 116 1268 116 1274 m 142 47 q 119 30 119 47 q 126 14 119 21 q 143 7 133 7 q 227 6 195 7 q 303 5 259 5 q 316 13 310 5 q 322 28 322 20 q 291 48 322 48 l 241 48 q 241 86 241 68 q 242 125 242 104 q 225 563 242 264 q 208 1000 208 873 q 210 1005 208 1003 q 216 1007 211 1006 q 226 1008 221 1008 l 241 1008 q 256 1008 249 1008 q 274 1007 264 1007 q 286 1014 281 1007 q 291 1029 291 1021 q 284 1044 291 1039 q 266 1049 277 1049 q 213 1050 233 1049 l 174 1050 q 122 1046 134 1050 q 111 1026 111 1040 q 125 1006 111 1006 l 173 1006 q 177 918 177 994 q 176 826 177 865 l 176 755 l 180 623 l 186 450 q 196 47 196 180 l 142 47 z "},"Ĭ":{"ha":448,"x_min":111,"x_max":322,"o":"m 116 1316 q 137 1222 116 1265 q 169 1187 148 1200 q 217 1175 189 1175 q 247 1179 235 1175 q 269 1189 261 1184 q 284 1205 277 1194 q 296 1225 292 1216 q 307 1248 300 1234 q 313 1263 311 1258 q 317 1272 316 1269 l 314 1282 l 318 1292 q 321 1303 321 1301 q 315 1317 321 1312 q 300 1323 309 1323 q 275 1297 275 1323 q 276 1287 275 1291 q 277 1277 277 1282 q 270 1247 277 1263 q 252 1218 263 1230 q 229 1206 241 1206 l 195 1206 l 180 1217 q 157 1252 165 1228 q 144 1307 150 1275 q 131 1329 140 1327 l 116 1316 m 142 47 q 119 30 119 47 q 126 14 119 21 q 143 7 133 7 q 227 6 195 7 q 303 5 259 5 q 316 13 310 5 q 322 28 322 20 q 291 48 322 48 l 241 48 q 241 86 241 68 q 242 125 242 104 q 225 563 242 264 q 208 1000 208 873 q 210 1005 208 1003 q 216 1007 211 1006 q 226 1008 221 1008 l 241 1008 q 256 1008 249 1008 q 274 1007 264 1007 q 286 1014 281 1007 q 291 1029 291 1021 q 284 1044 291 1039 q 266 1049 277 1049 q 213 1050 233 1049 l 174 1050 q 122 1046 134 1050 q 111 1026 111 1040 q 125 1006 111 1006 l 173 1006 q 177 918 177 994 q 176 826 177 865 l 176 755 l 180 623 l 186 450 q 196 47 196 180 l 142 47 z "},"Ǐ":{"ha":448,"x_min":98,"x_max":322,"o":"m 245 1389 q 205 1181 238 1301 q 184 1240 199 1197 q 159 1314 169 1284 q 147 1361 149 1347 l 123 1393 l 98 1375 q 123 1296 99 1354 q 175 1189 147 1238 q 215 1140 202 1140 q 235 1169 235 1140 q 241 1221 235 1195 q 260 1282 247 1246 q 276 1332 270 1312 l 275 1340 l 285 1361 l 283 1368 q 289 1383 289 1380 q 264 1400 289 1396 l 245 1389 m 142 47 q 119 30 119 47 q 126 14 119 21 q 143 7 133 7 q 227 6 195 7 q 303 5 259 5 q 316 13 310 5 q 322 28 322 20 q 291 48 322 48 l 241 48 q 241 86 241 68 q 242 125 242 104 q 225 563 242 264 q 208 1000 208 873 q 210 1005 208 1003 q 216 1007 211 1006 q 226 1008 221 1008 l 241 1008 q 256 1008 249 1008 q 274 1007 264 1007 q 286 1014 281 1007 q 291 1029 291 1021 q 284 1044 291 1039 q 266 1049 277 1049 q 213 1050 233 1049 l 174 1050 q 122 1046 134 1050 q 111 1026 111 1040 q 125 1006 111 1006 l 173 1006 q 177 918 177 994 q 176 826 177 865 l 176 755 l 180 623 l 186 450 q 196 47 196 180 l 142 47 z "},"Î":{"ha":448,"x_min":105,"x_max":322,"o":"m 271 1140 q 296 1157 296 1144 q 290 1172 296 1160 l 292 1179 l 281 1200 l 283 1208 q 267 1259 277 1228 q 248 1319 254 1293 q 241 1371 241 1345 q 222 1400 241 1400 q 181 1351 209 1400 q 130 1244 154 1302 q 105 1165 106 1185 l 130 1147 l 154 1179 q 166 1227 155 1194 q 191 1300 176 1257 q 212 1360 206 1343 q 252 1152 245 1239 l 271 1140 m 142 47 q 119 30 119 47 q 126 14 119 21 q 143 7 133 7 q 227 6 195 7 q 303 5 259 5 q 316 13 310 5 q 322 28 322 20 q 291 48 322 48 l 241 48 q 241 86 241 68 q 242 125 242 104 q 225 563 242 264 q 208 1000 208 873 q 210 1005 208 1003 q 216 1007 211 1006 q 226 1008 221 1008 l 241 1008 q 256 1008 249 1008 q 274 1007 264 1007 q 286 1014 281 1007 q 291 1029 291 1021 q 284 1044 291 1039 q 266 1049 277 1049 q 213 1050 233 1049 l 174 1050 q 122 1046 134 1050 q 111 1026 111 1040 q 125 1006 111 1006 l 173 1006 q 177 918 177 994 q 176 826 177 865 l 176 755 l 180 623 l 186 450 q 196 47 196 180 l 142 47 z "},"Ȉ":{"ha":448,"x_min":-142,"x_max":322,"o":"m 300 1282 q 244 1337 298 1291 q 133 1426 190 1383 q 68 1469 75 1469 q 59 1461 65 1469 q 53 1448 53 1454 q 62 1434 53 1439 q 188 1336 161 1354 q 236 1305 203 1329 q 294 1274 271 1279 l 300 1282 m 60 1350 q -35 1418 -12 1404 q -113 1459 -106 1459 q -130 1447 -121 1459 q -142 1425 -140 1436 l -69 1384 q 5 1347 -47 1375 q 24 1336 7 1346 l 39 1326 q 90 1293 63 1310 q 118 1278 113 1278 q 125 1289 125 1278 q 60 1350 125 1299 m 142 47 q 119 30 119 47 q 126 14 119 21 q 143 7 133 7 q 227 6 195 7 q 303 5 259 5 q 316 13 310 5 q 322 28 322 20 q 291 48 322 48 l 241 48 q 241 86 241 68 q 242 125 242 104 q 225 563 242 264 q 208 1000 208 873 q 210 1005 208 1003 q 216 1007 211 1006 q 226 1008 221 1008 l 241 1008 q 256 1008 249 1008 q 274 1007 264 1007 q 286 1014 281 1007 q 291 1029 291 1021 q 284 1044 291 1039 q 266 1049 277 1049 q 213 1050 233 1049 l 174 1050 q 122 1046 134 1050 q 111 1026 111 1040 q 125 1006 111 1006 l 173 1006 q 177 918 177 994 q 176 826 177 865 l 176 755 l 180 623 l 186 450 q 196 47 196 180 l 142 47 z "},"Ï":{"ha":448,"x_min":16,"x_max":392,"o":"m 328 1265 q 336 1244 328 1254 q 355 1234 345 1234 q 392 1266 392 1234 q 382 1288 392 1277 q 361 1299 373 1299 q 338 1289 349 1299 q 328 1265 328 1278 m 16 1263 q 23 1240 16 1251 q 42 1229 31 1229 q 66 1235 56 1229 q 77 1253 77 1242 q 70 1285 77 1272 q 49 1298 62 1298 q 26 1287 37 1298 q 16 1263 16 1276 m 142 47 q 119 30 119 47 q 126 14 119 21 q 143 7 133 7 q 227 6 195 7 q 303 5 259 5 q 316 13 310 5 q 322 28 322 20 q 291 48 322 48 l 241 48 q 241 86 241 68 q 242 125 242 104 q 225 563 242 264 q 208 1000 208 873 q 210 1005 208 1003 q 216 1007 211 1006 q 226 1008 221 1008 l 241 1008 q 256 1008 249 1008 q 274 1007 264 1007 q 286 1014 281 1007 q 291 1029 291 1021 q 284 1044 291 1039 q 266 1049 277 1049 q 213 1050 233 1049 l 174 1050 q 122 1046 134 1050 q 111 1026 111 1040 q 125 1006 111 1006 l 173 1006 q 177 918 177 994 q 176 826 177 865 l 176 755 l 180 623 l 186 450 q 196 47 196 180 l 142 47 z "},"İ":{"ha":448,"x_min":111,"x_max":322,"o":"m 161 1311 q 170 1288 161 1299 q 191 1278 179 1278 q 230 1312 230 1278 q 219 1336 230 1324 q 197 1348 209 1348 q 172 1336 183 1348 q 161 1311 161 1324 m 142 47 q 119 30 119 47 q 126 14 119 21 q 143 7 133 7 q 227 6 195 7 q 303 5 259 5 q 316 13 310 5 q 322 28 322 20 q 291 48 322 48 l 241 48 q 241 86 241 68 q 242 125 242 104 q 225 563 242 264 q 208 1000 208 873 q 210 1005 208 1003 q 216 1007 211 1006 q 226 1008 221 1008 l 241 1008 q 256 1008 249 1008 q 274 1007 264 1007 q 286 1014 281 1007 q 291 1029 291 1021 q 284 1044 291 1039 q 266 1049 277 1049 q 213 1050 233 1049 l 174 1050 q 122 1046 134 1050 q 111 1026 111 1040 q 125 1006 111 1006 l 173 1006 q 177 918 177 994 q 176 826 177 865 l 176 755 l 180 623 l 186 450 q 196 47 196 180 l 142 47 z "},"Ì":{"ha":448,"x_min":-3,"x_max":322,"o":"m 67 1323 q 139 1296 73 1320 q 208 1273 205 1273 q 218 1277 212 1273 q 224 1284 224 1280 q 197 1311 224 1296 q 140 1337 174 1324 q 85 1358 104 1352 q 74 1361 79 1360 q 68 1363 70 1362 q 15 1379 56 1379 l 6 1379 q -3 1348 -3 1373 q 45 1320 -3 1320 q 67 1323 56 1320 m 142 47 q 119 30 119 47 q 126 14 119 21 q 143 7 133 7 q 227 6 195 7 q 303 5 259 5 q 316 13 310 5 q 322 28 322 20 q 291 48 322 48 l 241 48 q 241 86 241 68 q 242 125 242 104 q 225 563 242 264 q 208 1000 208 873 q 210 1005 208 1003 q 216 1007 211 1006 q 226 1008 221 1008 l 241 1008 q 256 1008 249 1008 q 274 1007 264 1007 q 286 1014 281 1007 q 291 1029 291 1021 q 284 1044 291 1039 q 266 1049 277 1049 q 213 1050 233 1049 l 174 1050 q 122 1046 134 1050 q 111 1026 111 1040 q 125 1006 111 1006 l 173 1006 q 177 918 177 994 q 176 826 177 865 l 176 755 l 180 623 l 186 450 q 196 47 196 180 l 142 47 z "},"Ȋ":{"ha":448,"x_min":109,"x_max":322,"o":"m 124 1235 q 138 1257 134 1236 q 151 1312 143 1289 q 173 1346 158 1335 l 188 1357 l 222 1357 q 245 1345 234 1357 q 263 1317 256 1333 q 270 1286 270 1300 q 269 1277 270 1281 q 269 1267 269 1272 q 294 1240 269 1240 q 308 1246 302 1240 q 315 1260 315 1252 q 311 1272 315 1263 l 307 1282 l 311 1292 q 307 1300 309 1295 q 300 1316 304 1306 q 293 1332 296 1326 q 289 1340 290 1337 q 261 1375 274 1369 q 210 1389 237 1389 q 162 1376 182 1389 q 130 1341 141 1364 q 109 1247 109 1299 l 124 1235 m 142 47 q 119 30 119 47 q 126 14 119 21 q 143 7 133 7 q 227 6 195 7 q 303 5 259 5 q 316 13 310 5 q 322 28 322 20 q 291 48 322 48 l 241 48 q 241 86 241 68 q 242 125 242 104 q 225 563 242 264 q 208 1000 208 873 q 210 1005 208 1003 q 216 1007 211 1006 q 226 1008 221 1008 l 241 1008 q 256 1008 249 1008 q 274 1007 264 1007 q 286 1014 281 1007 q 291 1029 291 1021 q 284 1044 291 1039 q 266 1049 277 1049 q 213 1050 233 1049 l 174 1050 q 122 1046 134 1050 q 111 1026 111 1040 q 125 1006 111 1006 l 173 1006 q 177 918 177 994 q 176 826 177 865 l 176 755 l 180 623 l 186 450 q 196 47 196 180 l 142 47 z "},"Ī":{"ha":448,"x_min":94,"x_max":362,"o":"m 362 1255 q 355 1268 362 1263 q 332 1275 349 1273 q 301 1277 317 1277 q 262 1278 286 1278 l 183 1278 q 94 1266 96 1278 q 98 1257 94 1261 q 124 1246 102 1251 q 168 1244 137 1244 l 195 1244 l 273 1244 q 362 1255 361 1244 m 142 47 q 119 30 119 47 q 126 14 119 21 q 143 7 133 7 q 227 6 195 7 q 303 5 259 5 q 316 13 310 5 q 322 28 322 20 q 291 48 322 48 l 241 48 q 241 86 241 68 q 242 125 242 104 q 225 563 242 264 q 208 1000 208 873 q 210 1005 208 1003 q 216 1007 211 1006 q 226 1008 221 1008 l 241 1008 q 256 1008 249 1008 q 274 1007 264 1007 q 286 1014 281 1007 q 291 1029 291 1021 q 284 1044 291 1039 q 266 1049 277 1049 q 213 1050 233 1049 l 174 1050 q 122 1046 134 1050 q 111 1026 111 1040 q 125 1006 111 1006 l 173 1006 q 177 918 177 994 q 176 826 177 865 l 176 755 l 180 623 l 186 450 q 196 47 196 180 l 142 47 z "},"Į":{"ha":448,"x_min":109,"x_max":322,"o":"m 291 48 q 322 28 322 48 q 316 13 322 20 q 303 5 310 5 q 244 6 269 5 l 235 -8 q 206 -50 218 -30 q 183 -96 193 -70 q 171 -149 171 -125 q 168 -181 171 -164 l 168 -195 q 167 -210 167 -201 q 182 -248 167 -229 q 214 -267 197 -267 q 236 -260 221 -267 q 258 -253 250 -253 q 273 -267 273 -253 q 254 -294 273 -284 q 214 -304 235 -304 q 163 -287 187 -304 q 123 -242 138 -269 q 109 -195 109 -216 q 118 -129 109 -163 q 142 -69 127 -95 q 195 5 173 -17 l 197 7 l 143 7 q 126 14 133 7 q 119 30 119 21 q 142 47 119 47 l 196 47 q 186 450 196 180 l 180 623 l 176 755 l 176 826 q 177 918 177 865 q 173 1006 177 994 l 125 1006 q 111 1026 111 1006 q 122 1046 111 1040 q 174 1050 134 1050 l 213 1050 q 266 1049 233 1049 q 284 1044 277 1049 q 291 1029 291 1039 q 286 1014 291 1021 q 274 1007 281 1007 q 256 1008 264 1007 q 241 1008 249 1008 l 226 1008 q 216 1007 221 1008 q 210 1005 211 1006 q 208 1000 208 1003 q 225 563 208 873 q 242 125 242 264 q 241 86 242 104 q 241 48 241 68 l 291 48 z "},"Ĩ":{"ha":448,"x_min":43,"x_max":336,"o":"m 43 1211 q 52 1195 43 1203 q 69 1187 60 1187 l 84 1208 q 77 1238 77 1231 q 93 1264 77 1253 q 129 1275 109 1275 l 138 1271 q 174 1232 161 1244 q 214 1202 189 1216 q 262 1189 239 1189 q 298 1199 281 1189 q 325 1226 315 1209 q 336 1262 336 1243 q 328 1296 336 1282 q 304 1310 319 1310 q 290 1301 294 1310 q 294 1289 291 1296 q 298 1275 298 1279 q 262 1225 298 1225 q 217 1242 241 1225 q 182 1279 193 1259 q 123 1308 158 1308 q 66 1281 90 1308 q 43 1211 43 1255 m 142 47 q 119 30 119 47 q 126 14 119 21 q 143 7 133 7 q 227 6 195 7 q 303 5 259 5 q 316 13 310 5 q 322 28 322 20 q 291 48 322 48 l 241 48 q 241 86 241 68 q 242 125 242 104 q 225 563 242 264 q 208 1000 208 873 q 210 1005 208 1003 q 216 1007 211 1006 q 226 1008 221 1008 l 241 1008 q 256 1008 249 1008 q 274 1007 264 1007 q 286 1014 281 1007 q 291 1029 291 1021 q 284 1044 291 1039 q 266 1049 277 1049 q 213 1050 233 1049 l 174 1050 q 122 1046 134 1050 q 111 1026 111 1040 q 125 1006 111 1006 l 173 1006 q 177 918 177 994 q 176 826 177 865 l 176 755 l 180 623 l 186 450 q 196 47 196 180 l 142 47 z "},"J":{"ha":420,"x_min":107,"x_max":321,"o":"m 127 -109 q 157 -135 127 -135 q 215 -82 192 -111 q 252 -25 239 -53 q 272 43 265 3 q 280 114 279 81 q 282 207 282 146 q 267 541 282 241 q 252 1010 252 854 l 283 1010 q 313 1014 306 1010 q 321 1031 321 1017 q 314 1046 321 1040 q 298 1053 308 1053 q 224 1053 252 1053 l 172 1054 q 119 1049 131 1054 q 107 1028 107 1044 q 113 1014 107 1020 q 126 1007 118 1007 l 168 1008 l 210 1010 q 216 759 210 914 l 217 743 q 224 543 224 540 q 232 355 225 488 q 239 150 239 229 q 178 -62 239 -1 q 161 -75 173 -67 q 137 -93 145 -85 q 127 -109 128 -101 z "},"Ĵ":{"ha":420,"x_min":107,"x_max":330,"o":"m 304 1140 q 330 1157 330 1144 q 324 1172 330 1160 l 326 1179 l 315 1200 l 317 1208 q 300 1259 311 1228 q 281 1319 288 1293 q 275 1371 275 1345 q 256 1400 275 1400 q 215 1351 243 1400 q 164 1244 188 1302 q 139 1165 140 1185 l 164 1147 l 188 1179 q 200 1227 189 1194 q 225 1300 210 1257 q 246 1360 240 1343 q 286 1152 279 1239 l 304 1140 m 127 -109 q 157 -135 127 -135 q 215 -82 192 -111 q 252 -25 239 -53 q 272 43 265 3 q 280 114 279 81 q 282 207 282 146 q 267 541 282 241 q 252 1010 252 854 l 283 1010 q 313 1014 306 1010 q 321 1031 321 1017 q 314 1046 321 1040 q 298 1053 308 1053 q 224 1053 252 1053 l 172 1054 q 119 1049 131 1054 q 107 1028 107 1044 q 113 1014 107 1020 q 126 1007 118 1007 l 168 1008 l 210 1010 q 216 759 210 914 l 217 743 q 224 543 224 540 q 232 355 225 488 q 239 150 239 229 q 178 -62 239 -1 q 161 -75 173 -67 q 137 -93 145 -85 q 127 -109 128 -101 z "},"K":{"ha":556,"x_min":127,"x_max":466,"o":"m 245 600 q 342 273 264 545 l 425 -13 q 441 -22 428 -22 q 459 -16 452 -22 q 466 -1 466 -11 q 464 8 466 3 q 429 132 454 45 q 381 301 405 218 q 325 483 359 379 q 262 657 290 587 q 260 666 260 661 q 261 673 260 668 q 313 795 265 680 l 321 816 q 391 982 370 937 q 404 1006 394 989 q 427 1063 423 1037 q 420 1078 427 1072 q 403 1083 413 1083 q 304 890 380 1083 q 252 761 296 869 q 178 586 208 650 l 176 586 l 179 754 q 181 985 181 916 q 176 1034 181 1025 q 151 1044 172 1044 q 136 1028 140 1044 q 133 979 133 1009 q 130 712 133 876 q 127 446 127 507 l 127 26 q 131 -8 127 1 q 150 -18 136 -18 q 168 -9 163 -18 q 172 23 172 0 l 172 517 l 192 550 q 202 567 197 558 q 212 583 207 575 q 220 597 215 590 q 231 616 228 610 q 235 623 235 621 l 245 600 z "},"Ǩ":{"ha":556,"x_min":127,"x_max":466,"o":"m 327 1389 q 287 1181 319 1301 q 266 1240 281 1197 q 241 1314 250 1284 q 229 1361 230 1347 l 205 1393 l 180 1375 q 204 1296 180 1354 q 256 1189 229 1238 q 296 1140 283 1140 q 316 1169 316 1140 q 322 1221 316 1195 q 341 1282 328 1246 q 357 1332 351 1312 l 356 1340 l 366 1361 l 365 1368 q 370 1383 370 1380 q 345 1400 370 1396 l 327 1389 m 245 600 q 342 273 264 545 l 425 -13 q 441 -22 428 -22 q 459 -16 452 -22 q 466 -1 466 -11 q 464 8 466 3 q 429 132 454 45 q 381 301 405 218 q 325 483 359 379 q 262 657 290 587 q 260 666 260 661 q 261 673 260 668 q 313 795 265 680 l 321 816 q 391 982 370 937 q 404 1006 394 989 q 427 1063 423 1037 q 420 1078 427 1072 q 403 1083 413 1083 q 304 890 380 1083 q 252 761 296 869 q 178 586 208 650 l 176 586 l 179 754 q 181 985 181 916 q 176 1034 181 1025 q 151 1044 172 1044 q 136 1028 140 1044 q 133 979 133 1009 q 130 712 133 876 q 127 446 127 507 l 127 26 q 131 -8 127 1 q 150 -18 136 -18 q 168 -9 163 -18 q 172 23 172 0 l 172 517 l 192 550 q 202 567 197 558 q 212 583 207 575 q 220 597 215 590 q 231 616 228 610 q 235 623 235 621 l 245 600 z "},"Ķ":{"ha":556,"x_min":127,"x_max":466,"o":"m 245 600 q 342 273 264 545 l 425 -13 q 441 -22 428 -22 q 459 -16 452 -22 q 466 -1 466 -11 q 464 8 466 3 q 429 132 454 45 q 381 301 405 218 q 325 483 359 379 q 262 657 290 587 q 260 666 260 661 q 261 673 260 668 q 313 795 265 680 l 321 816 q 391 982 370 937 q 404 1006 394 989 q 427 1063 423 1037 q 420 1078 427 1072 q 403 1083 413 1083 q 304 890 380 1083 q 252 761 296 869 q 178 586 208 650 l 176 586 l 179 754 q 181 985 181 916 q 176 1034 181 1025 q 151 1044 172 1044 q 136 1028 140 1044 q 133 979 133 1009 q 130 712 133 876 q 127 446 127 507 l 127 26 q 131 -8 127 1 q 150 -18 136 -18 q 168 -9 163 -18 q 172 23 172 0 l 172 517 l 192 550 q 202 567 197 558 q 212 583 207 575 q 220 597 215 590 q 231 616 228 610 q 235 623 235 621 l 245 600 m 224 -298 q 274 -265 247 -298 q 317 -194 300 -234 q 335 -131 335 -155 q 332 -114 335 -119 l 335 -110 q 289 -69 320 -69 q 252 -82 269 -69 q 236 -113 236 -94 q 248 -146 236 -130 q 277 -174 259 -163 q 273 -197 277 -186 q 243 -239 267 -213 q 222 -259 234 -248 q 204 -275 211 -270 l 201 -288 l 224 -298 z "},"L":{"ha":393,"x_min":116,"x_max":316,"o":"m 143 21 q 150 0 143 9 q 166 -8 156 -8 q 278 -7 249 -8 q 290 -7 285 -7 l 299 -6 q 311 2 307 -6 q 316 21 316 10 q 297 46 316 46 l 212 46 q 193 47 195 46 q 189 51 189 48 q 180 224 188 93 q 173 414 173 361 l 166 663 q 161 1048 161 797 q 136 1067 161 1067 q 122 1063 128 1067 q 116 1051 116 1059 q 123 761 116 964 q 130 471 130 576 q 137 273 130 398 q 144 77 144 149 l 144 43 l 143 21 z "},"Ǉ":{"ha":814,"x_min":116,"x_max":714,"o":"m 143 21 q 150 0 143 9 q 166 -8 156 -8 q 278 -7 249 -8 q 290 -7 285 -7 l 299 -6 q 311 2 307 -6 q 316 21 316 10 q 297 46 316 46 l 212 46 q 193 47 195 46 q 189 51 189 48 q 180 224 188 93 q 173 414 173 361 l 166 663 q 161 1048 161 797 q 136 1067 161 1067 q 122 1063 128 1067 q 116 1051 116 1059 q 123 761 116 964 q 130 471 130 576 q 137 273 130 398 q 144 77 144 149 l 144 43 l 143 21 m 521 -109 q 550 -135 521 -135 q 608 -82 585 -111 q 645 -25 632 -53 q 665 43 659 3 q 674 114 672 81 q 675 207 675 146 q 661 541 675 241 q 645 1010 645 854 l 676 1010 q 707 1014 699 1010 q 714 1031 714 1017 q 708 1046 714 1040 q 692 1053 701 1053 q 618 1053 646 1053 l 565 1054 q 513 1049 524 1054 q 500 1028 500 1044 q 506 1014 500 1020 q 519 1007 511 1007 l 561 1008 l 603 1010 q 610 759 603 914 l 610 743 q 617 543 617 540 q 625 355 618 488 q 632 150 632 229 q 571 -62 632 -1 q 554 -75 566 -67 q 530 -93 538 -85 q 521 -109 522 -101 z "},"Ĺ":{"ha":393,"x_min":116,"x_max":339,"o":"m 136 1268 q 143 1253 136 1259 q 161 1248 151 1248 q 335 1367 264 1335 l 339 1388 q 309 1410 339 1410 q 257 1369 304 1405 q 174 1304 205 1329 q 136 1268 136 1274 m 143 21 q 150 0 143 9 q 166 -8 156 -8 q 278 -7 249 -8 q 290 -7 285 -7 l 299 -6 q 311 2 307 -6 q 316 21 316 10 q 297 46 316 46 l 212 46 q 193 47 195 46 q 189 51 189 48 q 180 224 188 93 q 173 414 173 361 l 166 663 q 161 1048 161 797 q 136 1067 161 1067 q 122 1063 128 1067 q 116 1051 116 1059 q 123 761 116 964 q 130 471 130 576 q 137 273 130 398 q 144 77 144 149 l 144 43 l 143 21 z "},"Ľ":{"ha":393,"x_min":116,"x_max":558,"o":"m 143 21 q 150 0 143 9 q 166 -8 156 -8 q 278 -7 249 -8 q 290 -7 285 -7 l 299 -6 q 311 2 307 -6 q 316 21 316 10 q 297 46 316 46 l 212 46 q 193 47 195 46 q 189 51 189 48 q 180 224 188 93 q 173 414 173 361 l 166 663 q 161 1048 161 797 q 136 1067 161 1067 q 122 1063 128 1067 q 116 1051 116 1059 q 123 761 116 964 q 130 471 130 576 q 137 273 130 398 q 144 77 144 149 l 144 43 l 143 21 m 412 862 q 410 853 410 858 q 415 842 410 846 q 428 838 420 838 q 447 844 437 838 q 502 894 476 863 q 543 957 527 925 q 558 1012 558 989 q 497 1067 558 1067 q 460 1057 475 1067 q 445 1024 445 1046 q 454 982 445 997 q 485 963 463 968 q 481 939 485 951 q 450 897 473 920 q 412 862 434 881 z "},"Ļ":{"ha":393,"x_min":116,"x_max":316,"o":"m 143 21 q 150 0 143 9 q 166 -8 156 -8 q 278 -7 249 -8 q 290 -7 285 -7 l 299 -6 q 311 2 307 -6 q 316 21 316 10 q 297 46 316 46 l 212 46 q 193 47 195 46 q 189 51 189 48 q 180 224 188 93 q 173 414 173 361 l 166 663 q 161 1048 161 797 q 136 1067 161 1067 q 122 1063 128 1067 q 116 1051 116 1059 q 123 761 116 964 q 130 471 130 576 q 137 273 130 398 q 144 77 144 149 l 144 43 l 143 21 m 170 -298 q 220 -265 193 -298 q 263 -194 245 -234 q 281 -131 281 -155 q 278 -114 281 -119 l 281 -110 q 235 -69 266 -69 q 198 -82 214 -69 q 182 -113 182 -94 q 193 -146 182 -130 q 222 -174 205 -163 q 218 -197 222 -186 q 189 -239 213 -213 q 168 -259 180 -248 q 150 -275 157 -270 l 147 -288 l 170 -298 z "},"Ŀ":{"ha":393,"x_min":116,"x_max":316,"o":"m 143 21 q 150 0 143 9 q 166 -8 156 -8 q 278 -7 249 -8 q 290 -7 285 -7 l 299 -6 q 311 2 307 -6 q 316 21 316 10 q 297 46 316 46 l 212 46 q 193 47 195 46 q 189 51 189 48 q 180 224 188 93 q 173 414 173 361 l 166 663 q 161 1048 161 797 q 136 1067 161 1067 q 122 1063 128 1067 q 116 1051 116 1059 q 123 761 116 964 q 130 471 130 576 q 137 273 130 398 q 144 77 144 149 l 144 43 l 143 21 m 235 574 q 244 552 235 562 q 265 541 253 541 q 304 576 304 541 q 293 601 304 589 q 271 612 283 612 q 246 601 257 612 q 235 574 235 589 z "},"ǈ":{"ha":814,"x_min":116,"x_max":751,"o":"m 143 21 q 150 0 143 9 q 166 -8 156 -8 q 278 -7 249 -8 q 290 -7 285 -7 l 299 -6 q 311 2 307 -6 q 316 21 316 10 q 297 46 316 46 l 212 46 q 193 47 195 46 q 189 51 189 48 q 180 224 188 93 q 173 414 173 361 l 166 663 q 161 1048 161 797 q 136 1067 161 1067 q 122 1063 128 1067 q 116 1051 116 1059 q 123 761 116 964 q 130 471 130 576 q 137 273 130 398 q 144 77 144 149 l 144 43 l 143 21 m 463 -136 l 464 -139 l 496 -171 l 505 -171 q 567 -148 538 -171 q 613 -88 596 -125 q 638 -19 629 -54 q 647 45 647 16 q 655 103 647 85 l 655 256 q 648 543 655 360 q 642 832 642 726 q 654 860 642 860 q 692 853 669 860 q 729 846 716 846 q 745 851 738 846 q 751 864 751 856 q 706 889 751 876 q 604 912 661 903 q 519 922 547 922 q 502 917 513 922 q 490 905 490 911 q 511 887 490 895 q 558 876 532 879 q 591 869 586 872 l 600 854 q 606 486 600 720 q 612 117 612 239 q 601 17 612 67 q 568 -57 589 -33 q 536 -80 564 -62 l 505 -100 l 486 -113 q 463 -134 463 -128 l 463 -136 z "},"Ł":{"ha":502,"x_min":9,"x_max":316,"o":"m 297 46 q 316 21 316 46 q 311 2 316 10 q 299 -6 307 -6 l 290 -7 q 278 -7 285 -7 q 166 -8 249 -8 q 150 0 156 -8 q 143 21 143 9 l 144 43 l 144 77 q 137 273 144 149 q 130 471 130 398 q 130 535 130 511 q 45 496 109 525 q 31 493 37 493 q 16 497 24 493 q 9 507 9 501 q 129 583 9 523 l 128 610 l 123 761 q 116 1051 116 964 q 122 1063 116 1059 q 136 1067 128 1067 q 161 1048 161 1067 q 166 663 161 797 l 168 602 q 243 637 186 610 l 264 646 q 277 648 270 648 q 293 644 286 648 q 301 635 301 640 q 169 554 301 618 l 173 414 q 180 224 173 361 q 189 51 188 93 q 193 47 189 48 q 212 46 195 46 l 297 46 z "},"M":{"ha":665,"x_min":121,"x_max":553,"o":"m 503 7 q 509 -23 503 -14 q 533 -32 515 -32 q 549 -23 544 -32 q 553 16 553 -14 q 550 156 553 71 q 547 271 547 241 q 536 584 547 380 q 524 899 524 800 l 524 1036 q 519 1055 524 1048 q 505 1062 513 1062 q 491 1055 497 1062 q 481 1033 484 1047 l 479 1014 l 475 991 l 460 913 l 447 842 l 443 819 q 383 501 389 529 q 362 379 370 425 l 340 255 q 300 486 311 435 q 224 805 275 602 q 162 1047 174 1008 q 148 1059 158 1059 q 134 1053 140 1059 q 127 1040 127 1047 l 127 918 q 125 753 127 863 q 123 589 123 644 q 123 448 123 510 l 121 307 l 121 75 q 161 3 121 3 q 172 39 172 14 q 168 105 172 56 q 165 171 165 154 q 163 391 165 244 q 161 612 161 539 q 166 893 161 760 q 202 734 171 886 q 266 412 233 583 q 304 205 299 241 q 315 173 307 184 q 333 161 323 161 q 353 172 344 161 q 365 201 362 183 q 390 328 374 256 q 438 582 406 408 q 487 860 471 755 q 490 869 488 867 l 493 812 q 495 746 495 770 l 494 668 l 492 590 q 498 362 492 524 q 503 134 503 220 l 503 7 z "},"Ṁ":{"ha":665,"x_min":121,"x_max":553,"o":"m 290 1311 q 299 1288 290 1299 q 320 1278 308 1278 q 359 1312 359 1278 q 348 1336 359 1324 q 326 1348 338 1348 q 301 1336 312 1348 q 290 1311 290 1324 m 503 7 q 509 -23 503 -14 q 533 -32 515 -32 q 549 -23 544 -32 q 553 16 553 -14 q 550 156 553 71 q 547 271 547 241 q 536 584 547 380 q 524 899 524 800 l 524 1036 q 519 1055 524 1048 q 505 1062 513 1062 q 491 1055 497 1062 q 481 1033 484 1047 l 479 1014 l 475 991 l 460 913 l 447 842 l 443 819 q 383 501 389 529 q 362 379 370 425 l 340 255 q 300 486 311 435 q 224 805 275 602 q 162 1047 174 1008 q 148 1059 158 1059 q 134 1053 140 1059 q 127 1040 127 1047 l 127 918 q 125 753 127 863 q 123 589 123 644 q 123 448 123 510 l 121 307 l 121 75 q 161 3 121 3 q 172 39 172 14 q 168 105 172 56 q 165 171 165 154 q 163 391 165 244 q 161 612 161 539 q 166 893 161 760 q 202 734 171 886 q 266 412 233 583 q 304 205 299 241 q 315 173 307 184 q 333 161 323 161 q 353 172 344 161 q 365 201 362 183 q 390 328 374 256 q 438 582 406 408 q 487 860 471 755 q 490 869 488 867 l 493 812 q 495 746 495 770 l 494 668 l 492 590 q 498 362 492 524 q 503 134 503 220 l 503 7 z "},"N":{"ha":610,"x_min":121,"x_max":479,"o":"m 165 967 q 222 689 215 722 q 393 64 240 615 l 397 43 q 403 16 401 20 q 414 -6 406 4 q 432 -16 422 -16 q 467 25 467 -16 q 471 135 467 52 q 474 244 474 218 q 476 572 474 354 l 477 901 l 477 990 l 479 1013 q 479 1041 479 1024 q 469 1082 479 1082 q 440 1063 445 1082 l 441 867 q 441 760 441 807 l 439 652 q 437 410 439 553 q 434 168 434 267 q 425 102 434 120 q 353 366 395 192 q 253 743 257 725 q 220 890 241 793 l 214 922 q 191 1026 194 1012 q 178 1044 188 1036 q 159 1053 168 1053 q 130 1046 139 1053 q 121 1023 121 1040 q 122 1009 121 1015 q 123 994 123 1002 l 124 863 q 125 732 125 805 l 125 550 q 127 309 125 469 l 128 66 q 125 11 128 21 l 130 0 l 161 0 l 171 11 q 168 209 171 63 q 164 407 164 355 l 164 909 q 165 967 164 949 z "},"Ǌ":{"ha":1031,"x_min":121,"x_max":931,"o":"m 165 967 q 222 689 215 722 q 393 64 240 615 l 397 43 q 403 16 401 20 q 414 -6 406 4 q 432 -16 422 -16 q 467 25 467 -16 q 471 135 467 52 q 474 244 474 218 q 476 572 474 354 l 477 901 l 477 990 l 479 1013 q 479 1041 479 1024 q 469 1082 479 1082 q 440 1063 445 1082 l 441 867 q 441 760 441 807 l 439 652 q 437 410 439 553 q 434 168 434 267 q 425 102 434 120 q 353 366 395 192 q 253 743 257 725 q 220 890 241 793 l 214 922 q 191 1026 194 1012 q 178 1044 188 1036 q 159 1053 168 1053 q 130 1046 139 1053 q 121 1023 121 1040 q 122 1009 121 1015 q 123 994 123 1002 l 124 863 q 125 732 125 805 l 125 550 q 127 309 125 469 l 128 66 q 125 11 128 21 l 130 0 l 161 0 l 171 11 q 168 209 171 63 q 164 407 164 355 l 164 909 q 165 967 164 949 m 738 -109 q 767 -135 738 -135 q 825 -82 802 -111 q 862 -25 849 -53 q 882 43 876 3 q 891 114 889 81 q 892 207 892 146 q 878 541 892 241 q 862 1010 862 854 l 893 1010 q 924 1014 916 1010 q 931 1031 931 1017 q 925 1046 931 1040 q 909 1053 918 1053 q 835 1053 863 1053 l 782 1054 q 730 1049 741 1054 q 718 1028 718 1044 q 723 1014 718 1020 q 736 1007 728 1007 l 778 1008 l 820 1010 q 827 759 820 914 l 827 743 q 834 543 834 540 q 842 355 836 488 q 849 150 849 229 q 788 -62 849 -1 q 771 -75 783 -67 q 747 -93 755 -85 q 738 -109 739 -101 z "},"Ń":{"ha":610,"x_min":121,"x_max":479,"o":"m 231 1268 q 238 1253 231 1259 q 256 1248 245 1248 q 430 1367 359 1335 l 434 1388 q 404 1410 434 1410 q 352 1369 399 1405 q 269 1304 300 1329 q 231 1268 231 1274 m 165 967 q 222 689 215 722 q 393 64 240 615 l 397 43 q 403 16 401 20 q 414 -6 406 4 q 432 -16 422 -16 q 467 25 467 -16 q 471 135 467 52 q 474 244 474 218 q 476 572 474 354 l 477 901 l 477 990 l 479 1013 q 479 1041 479 1024 q 469 1082 479 1082 q 440 1063 445 1082 l 441 867 q 441 760 441 807 l 439 652 q 437 410 439 553 q 434 168 434 267 q 425 102 434 120 q 353 366 395 192 q 253 743 257 725 q 220 890 241 793 l 214 922 q 191 1026 194 1012 q 178 1044 188 1036 q 159 1053 168 1053 q 130 1046 139 1053 q 121 1023 121 1040 q 122 1009 121 1015 q 123 994 123 1002 l 124 863 q 125 732 125 805 l 125 550 q 127 309 125 469 l 128 66 q 125 11 128 21 l 130 0 l 161 0 l 171 11 q 168 209 171 63 q 164 407 164 355 l 164 909 q 165 967 164 949 z "},"Ň":{"ha":610,"x_min":121,"x_max":479,"o":"m 361 1389 q 321 1181 353 1301 q 299 1240 315 1197 q 275 1314 284 1284 q 262 1361 264 1347 l 239 1393 l 214 1375 q 238 1296 214 1354 q 290 1189 262 1238 q 330 1140 317 1140 q 350 1169 350 1140 q 356 1221 350 1195 q 375 1282 362 1246 q 391 1332 385 1312 l 390 1340 l 400 1361 l 399 1368 q 404 1383 404 1380 q 379 1400 404 1396 l 361 1389 m 165 967 q 222 689 215 722 q 393 64 240 615 l 397 43 q 403 16 401 20 q 414 -6 406 4 q 432 -16 422 -16 q 467 25 467 -16 q 471 135 467 52 q 474 244 474 218 q 476 572 474 354 l 477 901 l 477 990 l 479 1013 q 479 1041 479 1024 q 469 1082 479 1082 q 440 1063 445 1082 l 441 867 q 441 760 441 807 l 439 652 q 437 410 439 553 q 434 168 434 267 q 425 102 434 120 q 353 366 395 192 q 253 743 257 725 q 220 890 241 793 l 214 922 q 191 1026 194 1012 q 178 1044 188 1036 q 159 1053 168 1053 q 130 1046 139 1053 q 121 1023 121 1040 q 122 1009 121 1015 q 123 994 123 1002 l 124 863 q 125 732 125 805 l 125 550 q 127 309 125 469 l 128 66 q 125 11 128 21 l 130 0 l 161 0 l 171 11 q 168 209 171 63 q 164 407 164 355 l 164 909 q 165 967 164 949 z "},"Ņ":{"ha":610,"x_min":121,"x_max":479,"o":"m 165 967 q 222 689 215 722 q 393 64 240 615 l 397 43 q 403 16 401 20 q 414 -6 406 4 q 432 -16 422 -16 q 467 25 467 -16 q 471 135 467 52 q 474 244 474 218 q 476 572 474 354 l 477 901 l 477 990 l 479 1013 q 479 1041 479 1024 q 469 1082 479 1082 q 440 1063 445 1082 l 441 867 q 441 760 441 807 l 439 652 q 437 410 439 553 q 434 168 434 267 q 425 102 434 120 q 353 366 395 192 q 253 743 257 725 q 220 890 241 793 l 214 922 q 191 1026 194 1012 q 178 1044 188 1036 q 159 1053 168 1053 q 130 1046 139 1053 q 121 1023 121 1040 q 122 1009 121 1015 q 123 994 123 1002 l 124 863 q 125 732 125 805 l 125 550 q 127 309 125 469 l 128 66 q 125 11 128 21 l 130 0 l 161 0 l 171 11 q 168 209 171 63 q 164 407 164 355 l 164 909 q 165 967 164 949 m 244 -298 q 294 -265 267 -298 q 338 -194 320 -234 q 355 -131 355 -155 q 353 -114 355 -119 l 355 -110 q 309 -69 340 -69 q 273 -82 289 -69 q 256 -113 256 -94 q 268 -146 256 -130 q 297 -174 279 -163 q 293 -197 297 -186 q 263 -239 288 -213 q 243 -259 254 -248 q 224 -275 231 -270 l 222 -288 l 244 -298 z "},"Ǹ":{"ha":610,"x_min":113,"x_max":479,"o":"m 182 1323 q 254 1296 188 1320 q 323 1273 320 1273 q 333 1277 328 1273 q 339 1284 339 1280 q 313 1311 339 1296 q 256 1337 290 1324 q 201 1358 219 1352 q 190 1361 194 1360 q 184 1363 185 1362 q 130 1379 172 1379 l 121 1379 q 113 1348 113 1373 q 160 1320 113 1320 q 182 1323 171 1320 m 165 967 q 222 689 215 722 q 393 64 240 615 l 397 43 q 403 16 401 20 q 414 -6 406 4 q 432 -16 422 -16 q 467 25 467 -16 q 471 135 467 52 q 474 244 474 218 q 476 572 474 354 l 477 901 l 477 990 l 479 1013 q 479 1041 479 1024 q 469 1082 479 1082 q 440 1063 445 1082 l 441 867 q 441 760 441 807 l 439 652 q 437 410 439 553 q 434 168 434 267 q 425 102 434 120 q 353 366 395 192 q 253 743 257 725 q 220 890 241 793 l 214 922 q 191 1026 194 1012 q 178 1044 188 1036 q 159 1053 168 1053 q 130 1046 139 1053 q 121 1023 121 1040 q 122 1009 121 1015 q 123 994 123 1002 l 124 863 q 125 732 125 805 l 125 550 q 127 309 125 469 l 128 66 q 125 11 128 21 l 130 0 l 161 0 l 171 11 q 168 209 171 63 q 164 407 164 355 l 164 909 q 165 967 164 949 z "},"Ŋ":{"ha":624,"x_min":121,"x_max":500,"o":"m 469 -89 q 473 -26 469 -62 q 476 25 476 13 q 479 135 476 52 q 483 244 483 218 l 483 419 l 486 425 q 483 463 483 447 q 485 682 483 536 q 487 901 487 829 q 492 943 492 914 q 492 966 492 956 q 491 990 491 977 q 500 1036 491 1019 q 477 1082 500 1082 q 443 1063 448 1082 q 448 981 448 1034 l 448 949 l 444 937 q 448 920 448 935 q 446 894 448 911 q 444 867 444 877 q 446 760 444 831 q 448 652 448 688 q 446 410 448 553 q 443 168 443 267 q 437 78 443 149 l 397 212 q 378 295 391 231 q 360 375 366 350 q 336 463 354 399 l 330 484 q 262 743 281 652 q 253 810 257 770 q 242 877 248 855 q 223 929 236 899 q 205 979 210 958 q 199 1026 199 1000 q 189 1044 199 1036 q 168 1053 178 1053 q 139 1046 148 1053 q 130 1023 130 1040 q 131 1009 130 1015 q 132 994 132 1002 q 127 863 132 945 q 121 732 121 770 l 121 550 q 130 309 121 469 q 137 66 137 139 q 134 11 137 21 l 138 0 l 170 0 l 180 11 q 170 209 180 73 q 161 407 161 345 l 161 787 q 170 884 161 850 q 168 909 168 891 q 168 922 168 918 q 170 939 169 932 q 172 950 171 946 q 196 871 185 918 q 204 836 201 846 l 219 754 l 216 747 q 229 709 228 736 l 231 689 q 286 454 249 591 q 333 286 315 346 q 391 100 351 227 q 418 16 401 66 q 433 -20 425 -9 l 433 -32 q 372 -244 433 -183 q 355 -256 367 -249 q 331 -275 339 -267 q 321 -290 322 -283 q 351 -317 321 -317 q 436 -218 404 -278 q 469 -89 469 -159 z "},"ǋ":{"ha":1031,"x_min":121,"x_max":968,"o":"m 165 967 q 222 689 215 722 q 393 64 240 615 l 397 43 q 403 16 401 20 q 414 -6 406 4 q 432 -16 422 -16 q 467 25 467 -16 q 471 135 467 52 q 474 244 474 218 q 476 572 474 354 l 477 901 l 477 990 l 479 1013 q 479 1041 479 1024 q 469 1082 479 1082 q 440 1063 445 1082 l 441 867 q 441 760 441 807 l 439 652 q 437 410 439 553 q 434 168 434 267 q 425 102 434 120 q 353 366 395 192 q 253 743 257 725 q 220 890 241 793 l 214 922 q 191 1026 194 1012 q 178 1044 188 1036 q 159 1053 168 1053 q 130 1046 139 1053 q 121 1023 121 1040 q 122 1009 121 1015 q 123 994 123 1002 l 124 863 q 125 732 125 805 l 125 550 q 127 309 125 469 l 128 66 q 125 11 128 21 l 130 0 l 161 0 l 171 11 q 168 209 171 63 q 164 407 164 355 l 164 909 q 165 967 164 949 m 680 -136 l 681 -139 l 713 -171 l 722 -171 q 784 -148 755 -171 q 830 -88 813 -125 q 855 -19 846 -54 q 864 45 864 16 q 872 103 864 85 l 872 256 q 865 543 872 360 q 859 832 859 726 q 871 860 859 860 q 909 853 886 860 q 946 846 933 846 q 962 851 955 846 q 968 864 968 856 q 923 889 968 876 q 821 912 878 903 q 736 922 764 922 q 719 917 730 922 q 707 905 707 911 q 728 887 707 895 q 775 876 749 879 q 808 869 803 872 l 817 854 q 823 486 817 720 q 829 117 829 239 q 818 17 829 67 q 785 -57 806 -33 q 753 -80 781 -62 l 722 -100 l 703 -113 q 680 -134 680 -128 l 680 -136 z "},"Ñ":{"ha":610,"x_min":121,"x_max":479,"o":"m 158 1211 q 167 1195 158 1203 q 184 1187 176 1187 l 199 1208 q 193 1238 193 1231 q 208 1264 193 1253 q 244 1275 224 1275 l 254 1271 q 289 1232 276 1244 q 329 1202 304 1216 q 377 1189 354 1189 q 413 1199 396 1189 q 440 1226 430 1209 q 451 1262 451 1243 q 443 1296 451 1282 q 419 1310 435 1310 q 405 1301 409 1310 q 410 1289 406 1296 q 413 1275 413 1279 q 377 1225 413 1225 q 332 1242 357 1225 q 298 1279 308 1259 q 239 1308 273 1308 q 181 1281 205 1308 q 158 1211 158 1255 m 165 967 q 222 689 215 722 q 393 64 240 615 l 397 43 q 403 16 401 20 q 414 -6 406 4 q 432 -16 422 -16 q 467 25 467 -16 q 471 135 467 52 q 474 244 474 218 q 476 572 474 354 l 477 901 l 477 990 l 479 1013 q 479 1041 479 1024 q 469 1082 479 1082 q 440 1063 445 1082 l 441 867 q 441 760 441 807 l 439 652 q 437 410 439 553 q 434 168 434 267 q 425 102 434 120 q 353 366 395 192 q 253 743 257 725 q 220 890 241 793 l 214 922 q 191 1026 194 1012 q 178 1044 188 1036 q 159 1053 168 1053 q 130 1046 139 1053 q 121 1023 121 1040 q 122 1009 121 1015 q 123 994 123 1002 l 124 863 q 125 732 125 805 l 125 550 q 127 309 125 469 l 128 66 q 125 11 128 21 l 130 0 l 161 0 l 171 11 q 168 209 171 63 q 164 407 164 355 l 164 909 q 165 967 164 949 z "},"O":{"ha":570,"x_min":116,"x_max":452,"o":"m 116 639 q 309 -29 116 -29 q 391 21 361 -29 q 418 76 408 50 q 434 141 428 103 q 445 217 441 188 q 450 287 448 246 q 452 415 452 346 l 452 419 q 418 840 452 606 q 408 906 415 867 q 388 968 401 937 q 360 1018 376 999 q 315 1053 342 1040 q 253 1065 287 1065 q 192 1042 217 1065 q 152 986 167 1020 q 130 897 138 951 q 119 803 121 848 q 116 695 116 758 l 116 639 m 260 1029 q 309 1010 287 1029 q 347 955 332 991 q 375 873 363 913 q 392 783 386 833 l 394 764 q 409 588 406 664 q 411 449 411 517 l 411 443 q 407 298 411 387 q 380 106 403 204 q 352 35 370 61 q 311 9 334 9 q 248 58 276 9 q 204 170 220 104 q 176 328 188 236 q 157 564 157 469 l 157 631 q 161 772 157 690 q 171 860 164 820 q 189 945 178 901 q 218 1007 199 985 q 260 1029 236 1029 z "},"Ó":{"ha":570,"x_min":116,"x_max":452,"o":"m 177 1268 q 184 1253 177 1259 q 202 1248 191 1248 q 376 1367 304 1335 l 380 1388 q 349 1410 380 1410 q 298 1369 345 1405 q 215 1304 245 1329 q 177 1268 177 1274 m 116 639 q 309 -29 116 -29 q 391 21 361 -29 q 418 76 408 50 q 434 141 428 103 q 445 217 441 188 q 450 287 448 246 q 452 415 452 346 l 452 419 q 418 840 452 606 q 408 906 415 867 q 388 968 401 937 q 360 1018 376 999 q 315 1053 342 1040 q 253 1065 287 1065 q 192 1042 217 1065 q 152 986 167 1020 q 130 897 138 951 q 119 803 121 848 q 116 695 116 758 l 116 639 m 260 1029 q 309 1010 287 1029 q 347 955 332 991 q 375 873 363 913 q 392 783 386 833 l 394 764 q 409 588 406 664 q 411 449 411 517 l 411 443 q 407 298 411 387 q 380 106 403 204 q 352 35 370 61 q 311 9 334 9 q 248 58 276 9 q 204 170 220 104 q 176 328 188 236 q 157 564 157 469 l 157 631 q 161 772 157 690 q 171 860 164 820 q 189 945 178 901 q 218 1007 199 985 q 260 1029 236 1029 z "},"Ŏ":{"ha":570,"x_min":116,"x_max":452,"o":"m 177 1316 q 198 1222 177 1265 q 230 1187 209 1200 q 278 1175 250 1175 q 308 1179 296 1175 q 330 1189 322 1184 q 345 1205 338 1194 q 357 1225 353 1216 q 368 1248 361 1234 q 374 1263 372 1258 q 378 1272 377 1269 l 375 1282 l 379 1292 q 382 1303 382 1301 q 376 1317 382 1312 q 361 1323 370 1323 q 336 1297 336 1323 q 337 1287 336 1291 q 338 1277 338 1282 q 331 1247 338 1263 q 313 1218 324 1230 q 290 1206 302 1206 l 256 1206 l 241 1217 q 218 1252 226 1228 q 205 1307 211 1275 q 192 1329 201 1327 l 177 1316 m 116 639 q 309 -29 116 -29 q 391 21 361 -29 q 418 76 408 50 q 434 141 428 103 q 445 217 441 188 q 450 287 448 246 q 452 415 452 346 l 452 419 q 418 840 452 606 q 408 906 415 867 q 388 968 401 937 q 360 1018 376 999 q 315 1053 342 1040 q 253 1065 287 1065 q 192 1042 217 1065 q 152 986 167 1020 q 130 897 138 951 q 119 803 121 848 q 116 695 116 758 l 116 639 m 260 1029 q 309 1010 287 1029 q 347 955 332 991 q 375 873 363 913 q 392 783 386 833 l 394 764 q 409 588 406 664 q 411 449 411 517 l 411 443 q 407 298 411 387 q 380 106 403 204 q 352 35 370 61 q 311 9 334 9 q 248 58 276 9 q 204 170 220 104 q 176 328 188 236 q 157 564 157 469 l 157 631 q 161 772 157 690 q 171 860 164 820 q 189 945 178 901 q 218 1007 199 985 q 260 1029 236 1029 z "},"Ǒ":{"ha":570,"x_min":116,"x_max":452,"o":"m 307 1389 q 267 1181 299 1301 q 245 1240 260 1197 q 220 1314 230 1284 q 208 1361 210 1347 l 184 1393 l 159 1375 q 184 1296 160 1354 q 236 1189 208 1238 q 276 1140 263 1140 q 296 1169 296 1140 q 302 1221 296 1195 q 321 1282 308 1246 q 337 1332 331 1312 l 336 1340 l 346 1361 l 345 1368 q 350 1383 350 1380 q 325 1400 350 1396 l 307 1389 m 116 639 q 309 -29 116 -29 q 391 21 361 -29 q 418 76 408 50 q 434 141 428 103 q 445 217 441 188 q 450 287 448 246 q 452 415 452 346 l 452 419 q 418 840 452 606 q 408 906 415 867 q 388 968 401 937 q 360 1018 376 999 q 315 1053 342 1040 q 253 1065 287 1065 q 192 1042 217 1065 q 152 986 167 1020 q 130 897 138 951 q 119 803 121 848 q 116 695 116 758 l 116 639 m 260 1029 q 309 1010 287 1029 q 347 955 332 991 q 375 873 363 913 q 392 783 386 833 l 394 764 q 409 588 406 664 q 411 449 411 517 l 411 443 q 407 298 411 387 q 380 106 403 204 q 352 35 370 61 q 311 9 334 9 q 248 58 276 9 q 204 170 220 104 q 176 328 188 236 q 157 564 157 469 l 157 631 q 161 772 157 690 q 171 860 164 820 q 189 945 178 901 q 218 1007 199 985 q 260 1029 236 1029 z "},"Ô":{"ha":570,"x_min":116,"x_max":452,"o":"m 332 1140 q 357 1157 357 1144 q 351 1172 357 1160 l 353 1179 l 342 1200 l 344 1208 q 328 1259 338 1228 q 309 1319 315 1293 q 302 1371 302 1345 q 283 1400 302 1400 q 242 1351 270 1400 q 191 1244 215 1302 q 166 1165 167 1185 l 191 1147 l 215 1179 q 227 1227 216 1194 q 252 1300 237 1257 q 273 1360 267 1343 q 313 1152 306 1239 l 332 1140 m 116 639 q 309 -29 116 -29 q 391 21 361 -29 q 418 76 408 50 q 434 141 428 103 q 445 217 441 188 q 450 287 448 246 q 452 415 452 346 l 452 419 q 418 840 452 606 q 408 906 415 867 q 388 968 401 937 q 360 1018 376 999 q 315 1053 342 1040 q 253 1065 287 1065 q 192 1042 217 1065 q 152 986 167 1020 q 130 897 138 951 q 119 803 121 848 q 116 695 116 758 l 116 639 m 260 1029 q 309 1010 287 1029 q 347 955 332 991 q 375 873 363 913 q 392 783 386 833 l 394 764 q 409 588 406 664 q 411 449 411 517 l 411 443 q 407 298 411 387 q 380 106 403 204 q 352 35 370 61 q 311 9 334 9 q 248 58 276 9 q 204 170 220 104 q 176 328 188 236 q 157 564 157 469 l 157 631 q 161 772 157 690 q 171 860 164 820 q 189 945 178 901 q 218 1007 199 985 q 260 1029 236 1029 z "},"Ȍ":{"ha":570,"x_min":-81,"x_max":452,"o":"m 361 1282 q 305 1337 359 1291 q 194 1426 251 1383 q 129 1469 136 1469 q 120 1461 126 1469 q 114 1448 114 1454 q 123 1434 114 1439 q 249 1336 222 1354 q 297 1305 264 1329 q 355 1274 332 1279 l 361 1282 m 121 1350 q 26 1418 49 1404 q -52 1459 -45 1459 q -69 1447 -60 1459 q -81 1425 -79 1436 l -8 1384 q 66 1347 14 1375 q 85 1336 68 1346 l 100 1326 q 151 1293 124 1310 q 179 1278 174 1278 q 186 1289 186 1278 q 121 1350 186 1299 m 116 639 q 309 -29 116 -29 q 391 21 361 -29 q 418 76 408 50 q 434 141 428 103 q 445 217 441 188 q 450 287 448 246 q 452 415 452 346 l 452 419 q 418 840 452 606 q 408 906 415 867 q 388 968 401 937 q 360 1018 376 999 q 315 1053 342 1040 q 253 1065 287 1065 q 192 1042 217 1065 q 152 986 167 1020 q 130 897 138 951 q 119 803 121 848 q 116 695 116 758 l 116 639 m 260 1029 q 309 1010 287 1029 q 347 955 332 991 q 375 873 363 913 q 392 783 386 833 l 394 764 q 409 588 406 664 q 411 449 411 517 l 411 443 q 407 298 411 387 q 380 106 403 204 q 352 35 370 61 q 311 9 334 9 q 248 58 276 9 q 204 170 220 104 q 176 328 188 236 q 157 564 157 469 l 157 631 q 161 772 157 690 q 171 860 164 820 q 189 945 178 901 q 218 1007 199 985 q 260 1029 236 1029 z "},"Ö":{"ha":570,"x_min":77,"x_max":453,"o":"m 389 1265 q 397 1244 389 1254 q 416 1234 406 1234 q 453 1266 453 1234 q 444 1288 453 1277 q 422 1299 434 1299 q 399 1289 410 1299 q 389 1265 389 1278 m 77 1263 q 84 1240 77 1251 q 103 1229 92 1229 q 127 1235 117 1229 q 138 1253 138 1242 q 131 1285 138 1272 q 110 1298 123 1298 q 87 1287 98 1298 q 77 1263 77 1276 m 116 639 q 309 -29 116 -29 q 391 21 361 -29 q 418 76 408 50 q 434 141 428 103 q 445 217 441 188 q 450 287 448 246 q 452 415 452 346 l 452 419 q 418 840 452 606 q 408 906 415 867 q 388 968 401 937 q 360 1018 376 999 q 315 1053 342 1040 q 253 1065 287 1065 q 192 1042 217 1065 q 152 986 167 1020 q 130 897 138 951 q 119 803 121 848 q 116 695 116 758 l 116 639 m 260 1029 q 309 1010 287 1029 q 347 955 332 991 q 375 873 363 913 q 392 783 386 833 l 394 764 q 409 588 406 664 q 411 449 411 517 l 411 443 q 407 298 411 387 q 380 106 403 204 q 352 35 370 61 q 311 9 334 9 q 248 58 276 9 q 204 170 220 104 q 176 328 188 236 q 157 564 157 469 l 157 631 q 161 772 157 690 q 171 860 164 820 q 189 945 178 901 q 218 1007 199 985 q 260 1029 236 1029 z "},"Ȯ":{"ha":570,"x_min":116,"x_max":452,"o":"m 222 1311 q 231 1288 222 1299 q 252 1278 240 1278 q 291 1312 291 1278 q 280 1336 291 1324 q 258 1348 270 1348 q 233 1336 244 1348 q 222 1311 222 1324 m 116 639 q 309 -29 116 -29 q 391 21 361 -29 q 418 76 408 50 q 434 141 428 103 q 445 217 441 188 q 450 287 448 246 q 452 415 452 346 l 452 419 q 418 840 452 606 q 408 906 415 867 q 388 968 401 937 q 360 1018 376 999 q 315 1053 342 1040 q 253 1065 287 1065 q 192 1042 217 1065 q 152 986 167 1020 q 130 897 138 951 q 119 803 121 848 q 116 695 116 758 l 116 639 m 260 1029 q 309 1010 287 1029 q 347 955 332 991 q 375 873 363 913 q 392 783 386 833 l 394 764 q 409 588 406 664 q 411 449 411 517 l 411 443 q 407 298 411 387 q 380 106 403 204 q 352 35 370 61 q 311 9 334 9 q 248 58 276 9 q 204 170 220 104 q 176 328 188 236 q 157 564 157 469 l 157 631 q 161 772 157 690 q 171 860 164 820 q 189 945 178 901 q 218 1007 199 985 q 260 1029 236 1029 z "},"Ò":{"ha":570,"x_min":58,"x_max":452,"o":"m 128 1323 q 200 1296 134 1320 q 269 1273 266 1273 q 279 1277 273 1273 q 285 1284 285 1280 q 258 1311 285 1296 q 201 1337 235 1324 q 146 1358 165 1352 q 135 1361 140 1360 q 130 1363 131 1362 q 76 1379 117 1379 l 67 1379 q 58 1348 58 1373 q 106 1320 58 1320 q 128 1323 117 1320 m 116 639 q 309 -29 116 -29 q 391 21 361 -29 q 418 76 408 50 q 434 141 428 103 q 445 217 441 188 q 450 287 448 246 q 452 415 452 346 l 452 419 q 418 840 452 606 q 408 906 415 867 q 388 968 401 937 q 360 1018 376 999 q 315 1053 342 1040 q 253 1065 287 1065 q 192 1042 217 1065 q 152 986 167 1020 q 130 897 138 951 q 119 803 121 848 q 116 695 116 758 l 116 639 m 260 1029 q 309 1010 287 1029 q 347 955 332 991 q 375 873 363 913 q 392 783 386 833 l 394 764 q 409 588 406 664 q 411 449 411 517 l 411 443 q 407 298 411 387 q 380 106 403 204 q 352 35 370 61 q 311 9 334 9 q 248 58 276 9 q 204 170 220 104 q 176 328 188 236 q 157 564 157 469 l 157 631 q 161 772 157 690 q 171 860 164 820 q 189 945 178 901 q 218 1007 199 985 q 260 1029 236 1029 z "},"Ő":{"ha":570,"x_min":50,"x_max":536,"o":"m 56 1200 q 114 1231 79 1205 q 161 1262 145 1255 q 298 1364 181 1275 q 308 1378 308 1370 q 301 1392 308 1384 q 292 1399 295 1399 q 224 1355 284 1399 q 108 1264 165 1311 q 50 1208 52 1217 l 56 1200 m 258 1215 q 266 1204 258 1204 q 297 1220 271 1204 q 353 1255 330 1240 q 389 1277 383 1275 q 464 1314 449 1309 l 536 1355 q 524 1377 534 1366 q 507 1389 515 1389 q 430 1348 501 1389 q 323 1273 388 1322 q 258 1215 258 1224 m 116 639 q 309 -29 116 -29 q 391 21 361 -29 q 418 76 408 50 q 434 141 428 103 q 445 217 441 188 q 450 287 448 246 q 452 415 452 346 l 452 419 q 418 840 452 606 q 408 906 415 867 q 388 968 401 937 q 360 1018 376 999 q 315 1053 342 1040 q 253 1065 287 1065 q 192 1042 217 1065 q 152 986 167 1020 q 130 897 138 951 q 119 803 121 848 q 116 695 116 758 l 116 639 m 260 1029 q 309 1010 287 1029 q 347 955 332 991 q 375 873 363 913 q 392 783 386 833 l 394 764 q 409 588 406 664 q 411 449 411 517 l 411 443 q 407 298 411 387 q 380 106 403 204 q 352 35 370 61 q 311 9 334 9 q 248 58 276 9 q 204 170 220 104 q 176 328 188 236 q 157 564 157 469 l 157 631 q 161 772 157 690 q 171 860 164 820 q 189 945 178 901 q 218 1007 199 985 q 260 1029 236 1029 z "},"Ȏ":{"ha":570,"x_min":116,"x_max":452,"o":"m 185 1235 q 199 1257 195 1236 q 212 1312 204 1289 q 234 1346 219 1335 l 249 1357 l 283 1357 q 306 1345 295 1357 q 324 1317 317 1333 q 331 1286 331 1300 q 330 1277 331 1281 q 330 1267 330 1272 q 355 1240 330 1240 q 369 1246 363 1240 q 376 1260 376 1252 q 372 1272 376 1263 l 368 1282 l 372 1292 q 368 1300 370 1295 q 361 1316 365 1306 q 354 1332 357 1326 q 350 1340 351 1337 q 322 1375 335 1369 q 271 1389 298 1389 q 223 1376 243 1389 q 191 1341 202 1364 q 170 1247 170 1299 l 185 1235 m 116 639 q 309 -29 116 -29 q 391 21 361 -29 q 418 76 408 50 q 434 141 428 103 q 445 217 441 188 q 450 287 448 246 q 452 415 452 346 l 452 419 q 418 840 452 606 q 408 906 415 867 q 388 968 401 937 q 360 1018 376 999 q 315 1053 342 1040 q 253 1065 287 1065 q 192 1042 217 1065 q 152 986 167 1020 q 130 897 138 951 q 119 803 121 848 q 116 695 116 758 l 116 639 m 260 1029 q 309 1010 287 1029 q 347 955 332 991 q 375 873 363 913 q 392 783 386 833 l 394 764 q 409 588 406 664 q 411 449 411 517 l 411 443 q 407 298 411 387 q 380 106 403 204 q 352 35 370 61 q 311 9 334 9 q 248 58 276 9 q 204 170 220 104 q 176 328 188 236 q 157 564 157 469 l 157 631 q 161 772 157 690 q 171 860 164 820 q 189 945 178 901 q 218 1007 199 985 q 260 1029 236 1029 z "},"Ō":{"ha":570,"x_min":116,"x_max":452,"o":"m 423 1255 q 416 1268 423 1263 q 393 1275 410 1273 q 362 1277 378 1277 q 323 1278 347 1278 l 244 1278 q 155 1266 157 1278 q 159 1257 155 1261 q 185 1246 163 1251 q 229 1244 198 1244 l 256 1244 l 334 1244 q 423 1255 422 1244 m 116 639 q 309 -29 116 -29 q 391 21 361 -29 q 418 76 408 50 q 434 141 428 103 q 445 217 441 188 q 450 287 448 246 q 452 415 452 346 l 452 419 q 418 840 452 606 q 408 906 415 867 q 388 968 401 937 q 360 1018 376 999 q 315 1053 342 1040 q 253 1065 287 1065 q 192 1042 217 1065 q 152 986 167 1020 q 130 897 138 951 q 119 803 121 848 q 116 695 116 758 l 116 639 m 260 1029 q 309 1010 287 1029 q 347 955 332 991 q 375 873 363 913 q 392 783 386 833 l 394 764 q 409 588 406 664 q 411 449 411 517 l 411 443 q 407 298 411 387 q 380 106 403 204 q 352 35 370 61 q 311 9 334 9 q 248 58 276 9 q 204 170 220 104 q 176 328 188 236 q 157 564 157 469 l 157 631 q 161 772 157 690 q 171 860 164 820 q 189 945 178 901 q 218 1007 199 985 q 260 1029 236 1029 z "},"Ǫ":{"ha":570,"x_min":116,"x_max":452,"o":"m 418 840 q 452 419 452 606 l 452 415 q 450 287 452 346 q 445 217 448 246 q 434 141 441 188 q 418 76 428 103 q 391 21 408 50 q 340 -24 371 -13 q 329 -41 340 -24 q 300 -83 313 -63 q 277 -129 288 -103 q 265 -182 265 -158 q 262 -214 265 -197 l 262 -228 q 261 -243 261 -235 q 276 -281 261 -262 q 308 -300 292 -300 q 330 -293 315 -300 q 353 -286 344 -286 q 368 -300 368 -286 q 349 -328 368 -317 q 308 -338 330 -338 q 257 -320 281 -338 q 218 -276 233 -302 q 203 -228 203 -250 q 212 -162 203 -196 q 237 -102 222 -129 q 289 -28 267 -50 l 290 -28 q 116 639 116 5 l 116 695 q 119 803 116 758 q 130 897 121 848 q 152 986 138 951 q 192 1042 167 1020 q 253 1065 217 1065 q 315 1053 287 1065 q 360 1018 342 1040 q 388 968 376 999 q 408 906 401 937 q 418 840 415 867 m 411 449 q 409 588 411 517 q 394 764 406 664 l 392 783 q 375 873 386 833 q 347 955 363 913 q 309 1010 332 991 q 260 1029 287 1029 q 218 1007 236 1029 q 189 945 199 985 q 171 860 178 901 q 161 772 164 820 q 157 631 157 690 l 157 564 q 176 328 157 469 q 204 170 188 236 q 248 58 220 104 q 311 9 276 9 q 352 35 334 9 q 380 106 370 61 q 407 298 403 204 q 411 443 411 387 l 411 449 z "},"Ø":{"ha":515,"x_min":121,"x_max":387,"o":"m 144 -179 q 180 14 172 -36 l 181 14 q 250 -14 201 -14 q 329 23 300 -14 q 354 62 345 43 q 370 109 364 82 q 380 162 376 141 q 385 212 383 184 q 387 301 387 253 q 385 432 387 345 q 382 564 382 510 l 380 568 l 380 576 q 370 705 380 618 q 359 832 359 791 l 362 833 q 347 926 362 888 q 344 931 346 928 q 340 938 342 934 q 326 968 329 954 l 327 971 q 307 1011 307 995 l 336 1179 l 337 1219 l 312 1219 l 299 1145 q 276 1044 288 1082 l 269 1051 l 263 1048 q 244 1057 257 1048 q 223 1064 231 1064 q 121 733 121 1064 l 121 646 q 151 125 121 304 q 158 102 151 119 q 163 75 163 83 q 143 -45 153 6 l 136 -77 q 126 -129 129 -112 q 123 -163 123 -145 l 144 -179 m 163 478 q 151 569 151 507 l 151 578 q 194 1021 151 994 l 202 1018 q 209 1021 202 1018 l 219 1025 l 224 1026 q 255 1015 242 1026 q 269 987 269 1004 q 266 938 269 966 q 259 881 263 911 q 252 832 255 857 l 243 739 l 228 575 l 223 527 q 193 252 202 320 q 180 186 183 190 q 172 332 180 235 q 163 478 163 430 m 199 81 q 209 146 199 92 q 259 554 235 279 q 301 942 281 818 q 351 271 351 844 q 260 16 351 16 q 213 31 227 16 q 199 81 199 46 z "},"Ǿ":{"ha":515,"x_min":121,"x_max":390,"o":"m 187 1322 q 194 1308 187 1313 q 212 1302 201 1302 q 386 1421 315 1390 l 390 1442 q 359 1464 390 1464 q 308 1423 355 1459 q 225 1358 256 1383 q 187 1322 187 1328 m 144 -179 q 180 14 172 -36 l 181 14 q 250 -14 201 -14 q 329 23 300 -14 q 354 62 345 43 q 370 109 364 82 q 380 162 376 141 q 385 212 383 184 q 387 301 387 253 q 385 432 387 345 q 382 564 382 510 l 380 568 l 380 576 q 370 705 380 618 q 359 832 359 791 l 362 833 q 347 926 362 888 q 344 931 346 928 q 340 938 342 934 q 326 968 329 954 l 327 971 q 307 1011 307 995 l 336 1179 l 337 1219 l 312 1219 l 299 1145 q 276 1044 288 1082 l 269 1051 l 263 1048 q 244 1057 257 1048 q 223 1064 231 1064 q 121 733 121 1064 l 121 646 q 151 125 121 304 q 158 102 151 119 q 163 75 163 83 q 143 -45 153 6 l 136 -77 q 126 -129 129 -112 q 123 -163 123 -145 l 144 -179 m 163 478 q 151 569 151 507 l 151 578 q 194 1021 151 994 l 202 1018 q 209 1021 202 1018 l 219 1025 l 224 1026 q 255 1015 242 1026 q 269 987 269 1004 q 266 938 269 966 q 259 881 263 911 q 252 832 255 857 l 243 739 l 228 575 l 223 527 q 193 252 202 320 q 180 186 183 190 q 172 332 180 235 q 163 478 163 430 m 199 81 q 209 146 199 92 q 259 554 235 279 q 301 942 281 818 q 351 271 351 844 q 260 16 351 16 q 213 31 227 16 q 199 81 199 46 z "},"Õ":{"ha":570,"x_min":104,"x_max":452,"o":"m 104 1211 q 113 1195 104 1203 q 130 1187 121 1187 l 145 1208 q 138 1238 138 1231 q 154 1264 138 1253 q 190 1275 170 1275 l 199 1271 q 235 1232 222 1244 q 275 1202 250 1216 q 323 1189 300 1189 q 359 1199 342 1189 q 386 1226 376 1209 q 397 1262 397 1243 q 389 1296 397 1282 q 365 1310 380 1310 q 351 1301 355 1310 q 355 1289 352 1296 q 359 1275 359 1279 q 323 1225 359 1225 q 278 1242 302 1225 q 243 1279 254 1259 q 184 1308 219 1308 q 127 1281 151 1308 q 104 1211 104 1255 m 116 639 q 309 -29 116 -29 q 391 21 361 -29 q 418 76 408 50 q 434 141 428 103 q 445 217 441 188 q 450 287 448 246 q 452 415 452 346 l 452 419 q 418 840 452 606 q 408 906 415 867 q 388 968 401 937 q 360 1018 376 999 q 315 1053 342 1040 q 253 1065 287 1065 q 192 1042 217 1065 q 152 986 167 1020 q 130 897 138 951 q 119 803 121 848 q 116 695 116 758 l 116 639 m 260 1029 q 309 1010 287 1029 q 347 955 332 991 q 375 873 363 913 q 392 783 386 833 l 394 764 q 409 588 406 664 q 411 449 411 517 l 411 443 q 407 298 411 387 q 380 106 403 204 q 352 35 370 61 q 311 9 334 9 q 248 58 276 9 q 204 170 220 104 q 176 328 188 236 q 157 564 157 469 l 157 631 q 161 772 157 690 q 171 860 164 820 q 189 945 178 901 q 218 1007 199 985 q 260 1029 236 1029 z "},"Œ":{"ha":814,"x_min":116,"x_max":788,"o":"m 536 7 q 569 -14 538 -14 q 675 -12 605 -14 q 780 -9 745 -9 l 788 3 q 692 29 788 29 q 635 27 673 29 l 585 24 q 581 272 585 117 q 576 519 576 426 q 616 532 576 532 q 648 530 627 532 q 679 528 669 528 q 696 532 692 528 q 701 550 701 537 q 667 567 688 567 l 650 566 q 631 564 637 564 l 577 566 q 570 623 570 588 l 572 659 l 573 694 q 564 849 573 743 q 553 1003 553 952 q 635 1000 587 1003 q 718 997 696 997 q 743 1013 743 997 q 736 1025 743 1018 q 722 1038 729 1033 l 707 1036 l 691 1035 l 589 1035 q 562 1039 578 1035 q 534 1043 543 1043 l 513 1014 l 517 999 q 317 1053 469 1053 q 245 1032 278 1053 q 191 977 213 1012 q 131 812 147 904 q 116 654 116 727 q 119 512 116 618 q 123 370 123 406 q 143 228 123 294 q 204 113 164 163 q 307 35 245 63 q 446 7 369 7 q 497 17 464 7 q 544 29 530 27 l 536 7 m 234 134 q 194 186 212 137 q 168 300 176 235 q 152 503 152 434 l 149 507 q 151 557 151 530 q 150 606 151 583 q 149 656 149 628 q 161 804 149 729 q 216 950 173 885 q 269 998 236 981 q 341 1015 301 1015 q 448 999 400 1015 q 522 950 496 983 q 526 866 522 918 q 530 782 530 810 q 540 444 530 677 q 549 104 549 210 q 534 75 549 87 q 493 58 519 63 q 412 49 450 49 q 234 134 313 49 z "},"P":{"ha":448,"x_min":116,"x_max":343,"o":"m 151 -8 q 175 2 168 -8 q 181 35 181 12 q 176 263 181 102 q 170 492 170 415 q 263 559 222 503 q 323 677 302 612 q 343 804 343 742 q 331 896 343 851 q 294 978 318 941 q 230 1039 270 1017 q 142 1061 190 1061 q 132 1060 134 1061 q 125 1055 127 1059 q 119 1047 121 1051 l 116 1042 q 121 859 116 983 q 128 514 128 677 q 129 401 128 451 q 130 289 130 352 q 132 164 130 247 q 134 40 134 82 q 151 -8 134 -8 m 151 1021 q 225 1001 193 1021 q 273 946 256 981 q 304 802 304 881 q 214 575 304 665 l 205 565 l 195 554 q 170 543 183 544 l 167 546 q 159 783 167 626 q 151 1021 151 941 z "},"Ṗ":{"ha":448,"x_min":116,"x_max":343,"o":"m 161 1311 q 170 1288 161 1299 q 191 1278 179 1278 q 230 1312 230 1278 q 219 1336 230 1324 q 197 1348 209 1348 q 172 1336 183 1348 q 161 1311 161 1324 m 151 -8 q 175 2 168 -8 q 181 35 181 12 q 176 263 181 102 q 170 492 170 415 q 263 559 222 503 q 323 677 302 612 q 343 804 343 742 q 331 896 343 851 q 294 978 318 941 q 230 1039 270 1017 q 142 1061 190 1061 q 132 1060 134 1061 q 125 1055 127 1059 q 119 1047 121 1051 l 116 1042 q 121 859 116 983 q 128 514 128 677 q 129 401 128 451 q 130 289 130 352 q 132 164 130 247 q 134 40 134 82 q 151 -8 134 -8 m 151 1021 q 225 1001 193 1021 q 273 946 256 981 q 304 802 304 881 q 214 575 304 665 l 205 565 l 195 554 q 170 543 183 544 l 167 546 q 159 783 167 626 q 151 1021 151 941 z "},"Þ":{"ha":475,"x_min":111,"x_max":390,"o":"m 153 -8 q 177 2 170 -8 q 183 35 183 12 q 180 162 183 106 q 176 290 176 213 q 250 311 238 303 q 268 321 260 317 q 286 331 280 326 q 339 401 315 354 q 376 502 363 448 q 390 602 390 556 q 383 674 390 641 q 358 743 376 709 q 314 802 340 777 q 245 843 287 827 q 151 859 203 858 l 151 860 q 149 952 149 897 q 145 1044 147 1011 q 142 1045 145 1044 q 122 1048 128 1048 q 112 1038 112 1046 l 113 1034 l 113 1027 q 112 984 113 1005 l 111 946 q 112 926 111 936 q 117 827 112 886 q 122 746 117 823 l 127 635 q 134 386 134 474 q 136 300 134 364 q 137 215 137 237 q 136 127 137 158 q 136 40 136 97 q 153 -8 136 -8 m 157 819 q 351 599 351 819 q 261 372 351 463 q 222 352 252 363 q 176 340 193 342 q 166 559 175 404 q 157 783 158 692 l 157 819 z "},"Q":{"ha":583,"x_min":121,"x_max":494,"o":"m 441 -192 q 494 -165 494 -192 q 451 -147 494 -147 l 446 -147 q 410 -130 423 -147 q 395 -99 399 -116 q 389 -47 392 -83 q 383 -9 385 -16 l 376 10 q 370 36 371 24 q 456 403 456 159 q 418 943 456 727 q 388 1003 412 974 q 331 1051 364 1033 q 265 1069 297 1069 q 186 1017 215 1069 q 144 886 157 962 q 125 708 129 795 q 121 519 121 623 q 122 452 121 481 l 122 389 q 123 327 122 362 q 129 255 125 294 q 141 188 134 215 q 165 122 149 155 q 200 68 180 89 q 254 32 222 45 q 326 18 287 18 q 339 -48 331 4 q 361 -133 348 -103 q 400 -174 375 -163 q 420 -183 405 -175 q 441 -192 435 -192 m 161 484 q 163 569 161 508 q 178 806 168 718 q 197 922 186 873 q 224 1000 208 972 q 262 1031 241 1031 q 309 1021 288 1031 q 344 990 330 1010 q 370 944 359 968 q 387 890 381 920 q 398 822 395 848 q 404 762 402 797 q 407 638 407 694 l 407 602 q 384 185 407 315 q 310 54 361 54 q 246 82 274 54 q 204 147 220 109 q 178 240 188 185 q 161 400 161 321 l 161 484 z "},"R":{"ha":475,"x_min":127,"x_max":397,"o":"m 342 14 q 377 -14 349 -14 q 392 -5 387 -14 q 397 16 397 3 q 395 32 397 25 l 246 612 q 269 649 256 621 q 288 696 281 676 q 316 835 316 770 q 307 913 316 875 q 279 984 297 951 q 230 1036 260 1017 q 162 1055 199 1055 q 137 1043 137 1055 l 137 864 q 132 450 137 705 q 127 35 127 157 l 127 14 q 134 -3 127 3 q 151 -9 140 -9 q 176 18 176 -9 l 176 39 l 173 574 q 191 583 179 575 l 205 590 q 241 428 222 529 q 269 293 264 311 q 326 75 282 228 q 342 14 339 27 m 172 1011 q 176 1012 174 1011 l 179 1012 q 222 990 203 1012 q 252 935 241 969 q 270 818 270 873 q 263 748 270 787 q 247 690 257 709 q 210 645 236 671 q 172 619 184 619 l 172 1011 z "},"Ŕ":{"ha":475,"x_min":127,"x_max":397,"o":"m 189 1268 q 196 1253 189 1259 q 214 1248 203 1248 q 388 1367 317 1335 l 392 1388 q 361 1410 392 1410 q 310 1369 357 1405 q 227 1304 258 1329 q 189 1268 189 1274 m 342 14 q 377 -14 349 -14 q 392 -5 387 -14 q 397 16 397 3 q 395 32 397 25 l 246 612 q 269 649 256 621 q 288 696 281 676 q 316 835 316 770 q 307 913 316 875 q 279 984 297 951 q 230 1036 260 1017 q 162 1055 199 1055 q 137 1043 137 1055 l 137 864 q 132 450 137 705 q 127 35 127 157 l 127 14 q 134 -3 127 3 q 151 -9 140 -9 q 176 18 176 -9 l 176 39 l 173 574 q 191 583 179 575 l 205 590 q 241 428 222 529 q 269 293 264 311 q 326 75 282 228 q 342 14 339 27 m 172 1011 q 176 1012 174 1011 l 179 1012 q 222 990 203 1012 q 252 935 241 969 q 270 818 270 873 q 263 748 270 787 q 247 690 257 709 q 210 645 236 671 q 172 619 184 619 l 172 1011 z "},"Ř":{"ha":475,"x_min":105,"x_max":397,"o":"m 252 1389 q 212 1181 245 1301 q 191 1240 206 1197 q 166 1314 176 1284 q 154 1361 155 1347 l 130 1393 l 105 1375 q 130 1296 106 1354 q 181 1189 154 1238 q 222 1140 209 1140 q 241 1169 241 1140 q 248 1221 241 1195 q 267 1282 254 1246 q 283 1332 277 1312 l 281 1340 l 292 1361 l 290 1368 q 296 1383 296 1380 q 271 1400 296 1396 l 252 1389 m 342 14 q 377 -14 349 -14 q 392 -5 387 -14 q 397 16 397 3 q 395 32 397 25 l 246 612 q 269 649 256 621 q 288 696 281 676 q 316 835 316 770 q 307 913 316 875 q 279 984 297 951 q 230 1036 260 1017 q 162 1055 199 1055 q 137 1043 137 1055 l 137 864 q 132 450 137 705 q 127 35 127 157 l 127 14 q 134 -3 127 3 q 151 -9 140 -9 q 176 18 176 -9 l 176 39 l 173 574 q 191 583 179 575 l 205 590 q 241 428 222 529 q 269 293 264 311 q 326 75 282 228 q 342 14 339 27 m 172 1011 q 176 1012 174 1011 l 179 1012 q 222 990 203 1012 q 252 935 241 969 q 270 818 270 873 q 263 748 270 787 q 247 690 257 709 q 210 645 236 671 q 172 619 184 619 l 172 1011 z "},"Ŗ":{"ha":475,"x_min":127,"x_max":397,"o":"m 342 14 q 377 -14 349 -14 q 392 -5 387 -14 q 397 16 397 3 q 395 32 397 25 l 246 612 q 269 649 256 621 q 288 696 281 676 q 316 835 316 770 q 307 913 316 875 q 279 984 297 951 q 230 1036 260 1017 q 162 1055 199 1055 q 137 1043 137 1055 l 137 864 q 132 450 137 705 q 127 35 127 157 l 127 14 q 134 -3 127 3 q 151 -9 140 -9 q 176 18 176 -9 l 176 39 l 173 574 q 191 583 179 575 l 205 590 q 241 428 222 529 q 269 293 264 311 q 326 75 282 228 q 342 14 339 27 m 172 1011 q 176 1012 174 1011 l 179 1012 q 222 990 203 1012 q 252 935 241 969 q 270 818 270 873 q 263 748 270 787 q 247 690 257 709 q 210 645 236 671 q 172 619 184 619 l 172 1011 m 176 -298 q 227 -265 199 -298 q 270 -194 252 -234 q 288 -131 288 -155 q 285 -114 288 -119 l 288 -110 q 241 -69 272 -69 q 205 -82 221 -69 q 189 -113 189 -94 q 200 -146 189 -130 q 229 -174 212 -163 q 225 -197 229 -186 q 195 -239 220 -213 q 175 -259 186 -248 q 157 -275 163 -270 l 154 -288 l 176 -298 z "},"Ȑ":{"ha":475,"x_min":-135,"x_max":397,"o":"m 307 1282 q 251 1337 304 1291 q 139 1426 197 1383 q 75 1469 82 1469 q 66 1461 72 1469 q 60 1448 60 1454 q 68 1434 60 1439 q 195 1336 168 1354 q 243 1305 210 1329 q 300 1274 277 1279 l 307 1282 m 66 1350 q -28 1418 -5 1404 q -106 1459 -100 1459 q -123 1447 -114 1459 q -135 1425 -133 1436 l -62 1384 q 12 1347 -40 1375 q 31 1336 14 1346 l 46 1326 q 96 1293 70 1310 q 125 1278 119 1278 q 132 1289 132 1278 q 66 1350 132 1299 m 342 14 q 377 -14 349 -14 q 392 -5 387 -14 q 397 16 397 3 q 395 32 397 25 l 246 612 q 269 649 256 621 q 288 696 281 676 q 316 835 316 770 q 307 913 316 875 q 279 984 297 951 q 230 1036 260 1017 q 162 1055 199 1055 q 137 1043 137 1055 l 137 864 q 132 450 137 705 q 127 35 127 157 l 127 14 q 134 -3 127 3 q 151 -9 140 -9 q 176 18 176 -9 l 176 39 l 173 574 q 191 583 179 575 l 205 590 q 241 428 222 529 q 269 293 264 311 q 326 75 282 228 q 342 14 339 27 m 172 1011 q 176 1012 174 1011 l 179 1012 q 222 990 203 1012 q 252 935 241 969 q 270 818 270 873 q 263 748 270 787 q 247 690 257 709 q 210 645 236 671 q 172 619 184 619 l 172 1011 z "},"Ȓ":{"ha":475,"x_min":116,"x_max":397,"o":"m 131 1235 q 144 1257 140 1236 q 157 1312 150 1289 q 180 1346 165 1335 l 195 1357 l 229 1357 q 252 1345 241 1357 q 270 1317 263 1333 q 277 1286 277 1300 q 276 1277 277 1281 q 275 1267 275 1272 q 300 1240 275 1240 q 315 1246 309 1240 q 321 1260 321 1252 q 318 1272 321 1263 l 314 1282 l 317 1292 q 313 1300 316 1295 q 307 1316 311 1306 q 300 1332 302 1326 q 296 1340 297 1337 q 268 1375 281 1369 q 217 1389 243 1389 q 169 1376 189 1389 q 137 1341 148 1364 q 116 1247 116 1299 l 131 1235 m 342 14 q 377 -14 349 -14 q 392 -5 387 -14 q 397 16 397 3 q 395 32 397 25 l 246 612 q 269 649 256 621 q 288 696 281 676 q 316 835 316 770 q 307 913 316 875 q 279 984 297 951 q 230 1036 260 1017 q 162 1055 199 1055 q 137 1043 137 1055 l 137 864 q 132 450 137 705 q 127 35 127 157 l 127 14 q 134 -3 127 3 q 151 -9 140 -9 q 176 18 176 -9 l 176 39 l 173 574 q 191 583 179 575 l 205 590 q 241 428 222 529 q 269 293 264 311 q 326 75 282 228 q 342 14 339 27 m 172 1011 q 176 1012 174 1011 l 179 1012 q 222 990 203 1012 q 252 935 241 969 q 270 818 270 873 q 263 748 270 787 q 247 690 257 709 q 210 645 236 671 q 172 619 184 619 l 172 1011 z "},"S":{"ha":475,"x_min":100,"x_max":365,"o":"m 255 1067 q 178 1035 211 1067 q 131 962 146 1004 q 116 873 116 920 q 136 739 116 806 q 172 644 152 688 q 226 536 193 600 l 245 499 q 296 368 277 437 q 315 231 315 298 q 308 164 315 201 q 288 90 301 127 q 248 25 273 50 q 191 0 222 0 q 154 11 178 0 q 115 21 129 21 q 100 4 100 21 q 125 -20 109 -12 q 154 -29 141 -27 q 191 -31 166 -31 q 268 -6 233 -31 q 324 60 303 19 q 354 141 344 98 q 365 224 365 184 q 350 349 365 288 q 322 438 338 398 q 277 536 306 479 l 264 564 q 216 665 238 617 q 178 772 192 715 q 163 885 163 830 q 174 949 163 918 q 209 1007 184 983 q 265 1031 234 1031 q 288 1024 275 1031 q 311 1017 302 1017 q 319 1027 319 1017 q 308 1045 319 1036 q 281 1061 296 1055 q 255 1067 265 1067 z "},"Ś":{"ha":475,"x_min":100,"x_max":433,"o":"m 230 1268 q 237 1253 230 1259 q 255 1248 244 1248 q 429 1367 357 1335 l 433 1388 q 402 1410 433 1410 q 351 1369 397 1405 q 268 1304 298 1329 q 230 1268 230 1274 m 255 1067 q 178 1035 211 1067 q 131 962 146 1004 q 116 873 116 920 q 136 739 116 806 q 172 644 152 688 q 226 536 193 600 l 245 499 q 296 368 277 437 q 315 231 315 298 q 308 164 315 201 q 288 90 301 127 q 248 25 273 50 q 191 0 222 0 q 154 11 178 0 q 115 21 129 21 q 100 4 100 21 q 125 -20 109 -12 q 154 -29 141 -27 q 191 -31 166 -31 q 268 -6 233 -31 q 324 60 303 19 q 354 141 344 98 q 365 224 365 184 q 350 349 365 288 q 322 438 338 398 q 277 536 306 479 l 264 564 q 216 665 238 617 q 178 772 192 715 q 163 885 163 830 q 174 949 163 918 q 209 1007 184 983 q 265 1031 234 1031 q 288 1024 275 1031 q 311 1017 302 1017 q 319 1027 319 1017 q 308 1045 319 1036 q 281 1061 296 1055 q 255 1067 265 1067 z "},"Š":{"ha":475,"x_min":100,"x_max":365,"o":"m 293 1389 q 253 1181 286 1301 q 232 1240 247 1197 q 207 1314 216 1284 q 195 1361 196 1347 l 171 1393 l 146 1375 q 171 1296 146 1354 q 222 1189 195 1238 q 262 1140 250 1140 q 282 1169 282 1140 q 288 1221 282 1195 q 307 1282 294 1246 q 323 1332 317 1312 l 322 1340 l 332 1361 l 331 1368 q 336 1383 336 1380 q 311 1400 336 1396 l 293 1389 m 255 1067 q 178 1035 211 1067 q 131 962 146 1004 q 116 873 116 920 q 136 739 116 806 q 172 644 152 688 q 226 536 193 600 l 245 499 q 296 368 277 437 q 315 231 315 298 q 308 164 315 201 q 288 90 301 127 q 248 25 273 50 q 191 0 222 0 q 154 11 178 0 q 115 21 129 21 q 100 4 100 21 q 125 -20 109 -12 q 154 -29 141 -27 q 191 -31 166 -31 q 268 -6 233 -31 q 324 60 303 19 q 354 141 344 98 q 365 224 365 184 q 350 349 365 288 q 322 438 338 398 q 277 536 306 479 l 264 564 q 216 665 238 617 q 178 772 192 715 q 163 885 163 830 q 174 949 163 918 q 209 1007 184 983 q 265 1031 234 1031 q 288 1024 275 1031 q 311 1017 302 1017 q 319 1027 319 1017 q 308 1045 319 1036 q 281 1061 296 1055 q 255 1067 265 1067 z "},"Ş":{"ha":475,"x_min":100,"x_max":365,"o":"m 324 60 q 280 4 307 27 q 221 -27 254 -19 q 217 -90 217 -56 q 318 -229 318 -97 q 303 -277 318 -251 q 264 -321 288 -303 q 213 -339 239 -339 q 172 -329 191 -339 q 153 -302 153 -319 q 168 -288 153 -288 q 191 -294 177 -288 q 213 -302 205 -302 q 252 -273 237 -302 q 267 -205 267 -243 q 246 -143 267 -159 q 228 -145 240 -143 q 209 -148 216 -148 q 171 -120 189 -148 q 182 -41 182 -93 l 182 -31 q 152 -28 163 -31 q 125 -20 140 -26 q 100 4 109 -12 q 115 21 100 21 q 154 11 129 21 q 191 0 178 0 q 248 25 222 0 q 288 90 273 50 q 308 164 301 127 q 315 231 315 201 q 296 368 315 298 q 245 499 277 437 l 226 536 q 172 644 193 600 q 136 739 152 688 q 116 873 116 806 q 131 962 116 920 q 178 1035 146 1004 q 255 1067 211 1067 q 281 1061 265 1067 q 308 1045 296 1055 q 319 1027 319 1036 q 311 1017 319 1017 q 288 1024 302 1017 q 265 1031 275 1031 q 209 1007 234 1031 q 174 949 184 983 q 163 885 163 918 q 178 772 163 830 q 216 665 192 715 q 264 564 238 617 l 277 536 q 322 438 306 479 q 350 349 338 398 q 365 224 365 288 q 354 141 365 184 q 324 60 344 98 z "},"Ŝ":{"ha":475,"x_min":100,"x_max":365,"o":"m 318 1140 q 343 1157 343 1144 q 338 1172 343 1160 l 339 1179 l 329 1200 l 330 1208 q 314 1259 324 1228 q 295 1319 301 1293 q 289 1371 289 1345 q 269 1400 289 1400 q 229 1351 256 1400 q 177 1244 201 1302 q 153 1165 153 1185 l 178 1147 l 201 1179 q 214 1227 203 1194 q 238 1300 223 1257 q 260 1360 254 1343 q 300 1152 292 1239 l 318 1140 m 255 1067 q 178 1035 211 1067 q 131 962 146 1004 q 116 873 116 920 q 136 739 116 806 q 172 644 152 688 q 226 536 193 600 l 245 499 q 296 368 277 437 q 315 231 315 298 q 308 164 315 201 q 288 90 301 127 q 248 25 273 50 q 191 0 222 0 q 154 11 178 0 q 115 21 129 21 q 100 4 100 21 q 125 -20 109 -12 q 154 -29 141 -27 q 191 -31 166 -31 q 268 -6 233 -31 q 324 60 303 19 q 354 141 344 98 q 365 224 365 184 q 350 349 365 288 q 322 438 338 398 q 277 536 306 479 l 264 564 q 216 665 238 617 q 178 772 192 715 q 163 885 163 830 q 174 949 163 918 q 209 1007 184 983 q 265 1031 234 1031 q 288 1024 275 1031 q 311 1017 302 1017 q 319 1027 319 1017 q 308 1045 319 1036 q 281 1061 296 1055 q 255 1067 265 1067 z "},"Ș":{"ha":475,"x_min":100,"x_max":365,"o":"m 255 1067 q 178 1035 211 1067 q 131 962 146 1004 q 116 873 116 920 q 136 739 116 806 q 172 644 152 688 q 226 536 193 600 l 245 499 q 296 368 277 437 q 315 231 315 298 q 308 164 315 201 q 288 90 301 127 q 248 25 273 50 q 191 0 222 0 q 154 11 178 0 q 115 21 129 21 q 100 4 100 21 q 125 -20 109 -12 q 154 -29 141 -27 q 191 -31 166 -31 q 268 -6 233 -31 q 324 60 303 19 q 354 141 344 98 q 365 224 365 184 q 350 349 365 288 q 322 438 338 398 q 277 536 306 479 l 264 564 q 216 665 238 617 q 178 772 192 715 q 163 885 163 830 q 174 949 163 918 q 209 1007 184 983 q 265 1031 234 1031 q 288 1024 275 1031 q 311 1017 302 1017 q 319 1027 319 1017 q 308 1045 319 1036 q 281 1061 296 1055 q 255 1067 265 1067 m 155 -342 q 205 -309 178 -342 q 248 -238 231 -278 q 266 -175 266 -199 q 263 -158 266 -163 l 266 -154 q 220 -113 251 -113 q 183 -126 199 -113 q 167 -157 167 -138 q 178 -190 167 -174 q 208 -218 190 -207 q 203 -241 208 -231 q 174 -283 198 -257 q 153 -303 165 -292 q 135 -319 142 -314 l 132 -332 l 155 -342 z "},"Ṡ":{"ha":475,"x_min":100,"x_max":365,"o":"m 208 1311 q 217 1288 208 1299 q 239 1278 227 1278 q 277 1312 277 1278 q 267 1336 277 1324 q 244 1348 256 1348 q 219 1336 231 1348 q 208 1311 208 1324 m 255 1067 q 178 1035 211 1067 q 131 962 146 1004 q 116 873 116 920 q 136 739 116 806 q 172 644 152 688 q 226 536 193 600 l 245 499 q 296 368 277 437 q 315 231 315 298 q 308 164 315 201 q 288 90 301 127 q 248 25 273 50 q 191 0 222 0 q 154 11 178 0 q 115 21 129 21 q 100 4 100 21 q 125 -20 109 -12 q 154 -29 141 -27 q 191 -31 166 -31 q 268 -6 233 -31 q 324 60 303 19 q 354 141 344 98 q 365 224 365 184 q 350 349 365 288 q 322 438 338 398 q 277 536 306 479 l 264 564 q 216 665 238 617 q 178 772 192 715 q 163 885 163 830 q 174 949 163 918 q 209 1007 184 983 q 265 1031 234 1031 q 288 1024 275 1031 q 311 1017 302 1017 q 319 1027 319 1017 q 308 1045 319 1036 q 281 1061 296 1055 q 255 1067 265 1067 z "},"T":{"ha":488,"x_min":37,"x_max":439,"o":"m 231 27 q 238 2 231 12 q 259 -8 245 -8 q 273 -2 269 -8 q 278 9 277 3 q 279 28 279 15 l 279 33 l 279 135 l 278 250 l 278 814 l 278 922 l 277 1002 l 277 1002 l 289 1004 l 351 1004 l 413 1004 q 439 1025 439 1004 q 433 1043 439 1037 q 410 1048 427 1048 l 258 1048 l 119 1047 q 63 1044 83 1047 q 41 1036 45 1040 q 37 1021 37 1031 q 45 1005 37 1010 q 66 1000 54 1000 l 222 1000 q 226 850 226 1000 q 225 760 226 782 l 224 720 q 228 497 224 661 q 231 275 231 332 l 231 151 q 231 27 231 52 z "},"Ŧ":{"ha":488,"x_min":89,"x_max":376,"o":"m 227 47 q 235 10 227 28 q 256 -8 243 -8 q 280 46 280 -8 q 277 207 280 86 q 273 370 273 328 q 277 410 273 389 q 265 474 269 439 q 376 501 376 488 q 370 512 376 507 q 355 517 363 517 q 261 511 326 517 q 258 646 258 562 l 259 730 q 260 814 260 767 q 250 994 260 907 q 279 1008 255 1008 q 304 1006 286 1008 q 330 1004 323 1004 q 357 1025 357 1004 q 348 1041 357 1034 q 328 1048 338 1048 q 233 1042 290 1048 q 132 1027 175 1036 q 89 1008 89 1017 q 98 991 89 998 q 118 985 107 985 q 157 989 132 985 q 197 993 182 993 q 220 850 220 993 q 220 760 220 782 l 219 720 q 228 509 219 635 q 118 485 118 498 q 127 471 118 477 q 147 465 136 465 q 231 470 187 465 q 239 275 239 340 q 233 159 239 240 q 227 47 228 82 z "},"Ť":{"ha":488,"x_min":37,"x_max":439,"o":"m 300 1389 q 260 1181 292 1301 q 238 1240 254 1197 q 214 1314 223 1284 q 201 1361 203 1347 l 178 1393 l 153 1375 q 177 1296 153 1354 q 229 1189 201 1238 q 269 1140 256 1140 q 289 1169 289 1140 q 295 1221 289 1195 q 314 1282 301 1246 q 330 1332 324 1312 l 329 1340 l 339 1361 l 338 1368 q 343 1383 343 1380 q 318 1400 343 1396 l 300 1389 m 231 27 q 238 2 231 12 q 259 -8 245 -8 q 273 -2 269 -8 q 278 9 277 3 q 279 28 279 15 l 279 33 l 279 135 l 278 250 l 278 814 l 278 922 l 277 1002 l 277 1002 l 289 1004 l 351 1004 l 413 1004 q 439 1025 439 1004 q 433 1043 439 1037 q 410 1048 427 1048 l 258 1048 l 119 1047 q 63 1044 83 1047 q 41 1036 45 1040 q 37 1021 37 1031 q 45 1005 37 1010 q 66 1000 54 1000 l 222 1000 q 226 850 226 1000 q 225 760 226 782 l 224 720 q 228 497 224 661 q 231 275 231 332 l 231 151 q 231 27 231 52 z "},"Ţ":{"ha":488,"x_min":37,"x_max":439,"o":"m 410 1048 q 433 1043 427 1048 q 439 1025 439 1037 q 413 1004 439 1004 l 351 1004 l 289 1004 l 277 1002 l 277 1002 l 278 922 l 278 814 l 278 250 l 279 135 l 279 33 l 279 28 q 279 12 279 19 q 275 1 278 5 l 290 3 q 285 -67 285 -31 q 386 -207 386 -75 q 371 -255 386 -229 q 332 -299 356 -281 q 281 -317 307 -317 q 240 -307 259 -317 q 221 -279 221 -296 q 236 -265 221 -265 q 258 -272 245 -265 q 281 -279 273 -279 q 320 -250 304 -279 q 335 -182 335 -221 q 314 -121 335 -137 q 296 -123 308 -121 q 277 -125 284 -125 q 239 -98 256 -125 q 250 -18 250 -71 l 250 -7 q 236 5 241 -4 q 231 27 231 15 q 231 151 231 52 l 231 275 q 228 497 231 332 q 224 720 224 661 l 225 760 q 226 850 226 782 q 222 1000 226 1000 l 66 1000 q 45 1005 54 1000 q 37 1021 37 1010 q 41 1036 37 1031 q 63 1044 45 1040 q 119 1047 83 1047 l 258 1048 l 410 1048 z "},"Ț":{"ha":488,"x_min":37,"x_max":439,"o":"m 231 27 q 238 2 231 12 q 259 -8 245 -8 q 273 -2 269 -8 q 278 9 277 3 q 279 28 279 15 l 279 33 l 279 135 l 278 250 l 278 814 l 278 922 l 277 1002 l 277 1002 l 289 1004 l 351 1004 l 413 1004 q 439 1025 439 1004 q 433 1043 439 1037 q 410 1048 427 1048 l 258 1048 l 119 1047 q 63 1044 83 1047 q 41 1036 45 1040 q 37 1021 37 1031 q 45 1005 37 1010 q 66 1000 54 1000 l 222 1000 q 226 850 226 1000 q 225 760 226 782 l 224 720 q 228 497 224 661 q 231 275 231 332 l 231 151 q 231 27 231 52 m 222 -320 q 273 -287 245 -319 q 316 -216 298 -256 q 334 -153 334 -176 q 331 -136 334 -140 l 334 -132 q 288 -91 319 -91 q 251 -103 267 -91 q 235 -134 235 -116 q 246 -168 235 -151 q 275 -195 258 -184 q 271 -219 275 -208 q 241 -261 266 -235 q 221 -281 233 -270 q 203 -297 210 -292 l 200 -309 l 222 -320 z "},"Ṫ":{"ha":488,"x_min":37,"x_max":439,"o":"m 215 1311 q 224 1288 215 1299 q 245 1278 233 1278 q 284 1312 284 1278 q 274 1336 284 1324 q 251 1348 263 1348 q 226 1336 237 1348 q 215 1311 215 1324 m 231 27 q 238 2 231 12 q 259 -8 245 -8 q 273 -2 269 -8 q 278 9 277 3 q 279 28 279 15 l 279 33 l 279 135 l 278 250 l 278 814 l 278 922 l 277 1002 l 277 1002 l 289 1004 l 351 1004 l 413 1004 q 439 1025 439 1004 q 433 1043 439 1037 q 410 1048 427 1048 l 258 1048 l 119 1047 q 63 1044 83 1047 q 41 1036 45 1040 q 37 1021 37 1031 q 45 1005 37 1010 q 66 1000 54 1000 l 222 1000 q 226 850 226 1000 q 225 760 226 782 l 224 720 q 228 497 224 661 q 231 275 231 332 l 231 151 q 231 27 231 52 z "},"U":{"ha":583,"x_min":105,"x_max":452,"o":"m 135 298 q 138 254 136 269 q 145 196 140 230 q 158 136 151 162 q 180 75 166 105 q 212 23 195 44 q 258 -13 231 1 q 318 -26 286 -26 q 376 -11 351 -26 q 415 27 401 4 q 438 83 429 50 q 449 140 446 114 q 452 200 452 167 q 450 430 452 277 q 447 667 447 566 l 447 791 q 446 917 446 847 l 446 1022 q 438 1046 446 1037 q 419 1055 431 1055 q 400 1046 408 1055 q 392 1022 392 1037 q 395 904 392 991 q 398 786 398 834 l 404 608 q 410 349 410 437 l 410 191 q 409 144 410 172 q 401 97 407 121 q 385 58 395 73 q 356 29 374 40 q 313 18 337 18 q 266 40 288 18 q 231 89 245 60 q 207 161 218 118 q 184 286 189 226 q 164 602 174 382 q 155 985 155 822 q 155 996 155 991 l 155 1006 q 149 1031 155 1023 q 127 1039 143 1039 q 105 1003 105 1039 q 106 991 105 996 l 106 982 q 116 619 106 852 q 134 321 127 387 l 135 298 z "},"Ú":{"ha":583,"x_min":105,"x_max":452,"o":"m 191 1268 q 198 1253 191 1259 q 216 1248 205 1248 q 389 1367 318 1335 l 393 1388 q 363 1410 393 1410 q 311 1369 358 1405 q 229 1304 259 1329 q 191 1268 191 1274 m 135 298 q 138 254 136 269 q 145 196 140 230 q 158 136 151 162 q 180 75 166 105 q 212 23 195 44 q 258 -13 231 1 q 318 -26 286 -26 q 376 -11 351 -26 q 415 27 401 4 q 438 83 429 50 q 449 140 446 114 q 452 200 452 167 q 450 430 452 277 q 447 667 447 566 l 447 791 q 446 917 446 847 l 446 1022 q 438 1046 446 1037 q 419 1055 431 1055 q 400 1046 408 1055 q 392 1022 392 1037 q 395 904 392 991 q 398 786 398 834 l 404 608 q 410 349 410 437 l 410 191 q 409 144 410 172 q 401 97 407 121 q 385 58 395 73 q 356 29 374 40 q 313 18 337 18 q 266 40 288 18 q 231 89 245 60 q 207 161 218 118 q 184 286 189 226 q 164 602 174 382 q 155 985 155 822 q 155 996 155 991 l 155 1006 q 149 1031 155 1023 q 127 1039 143 1039 q 105 1003 105 1039 q 106 991 105 996 l 106 982 q 116 619 106 852 q 134 321 127 387 l 135 298 z "},"Ŭ":{"ha":583,"x_min":105,"x_max":452,"o":"m 191 1316 q 212 1222 191 1265 q 243 1187 222 1200 q 292 1175 264 1175 q 321 1179 309 1175 q 343 1189 336 1184 q 359 1205 351 1194 q 371 1225 366 1216 q 381 1248 375 1234 q 388 1263 385 1258 q 392 1272 391 1269 l 389 1282 l 393 1292 q 396 1303 396 1301 q 390 1317 396 1312 q 375 1323 383 1323 q 350 1297 350 1323 q 351 1287 350 1291 q 351 1277 351 1282 q 345 1247 351 1263 q 327 1218 338 1230 q 304 1206 315 1206 l 269 1206 l 254 1217 q 232 1252 239 1228 q 219 1307 224 1275 q 205 1329 215 1327 l 191 1316 m 135 298 q 138 254 136 269 q 145 196 140 230 q 158 136 151 162 q 180 75 166 105 q 212 23 195 44 q 258 -13 231 1 q 318 -26 286 -26 q 376 -11 351 -26 q 415 27 401 4 q 438 83 429 50 q 449 140 446 114 q 452 200 452 167 q 450 430 452 277 q 447 667 447 566 l 447 791 q 446 917 446 847 l 446 1022 q 438 1046 446 1037 q 419 1055 431 1055 q 400 1046 408 1055 q 392 1022 392 1037 q 395 904 392 991 q 398 786 398 834 l 404 608 q 410 349 410 437 l 410 191 q 409 144 410 172 q 401 97 407 121 q 385 58 395 73 q 356 29 374 40 q 313 18 337 18 q 266 40 288 18 q 231 89 245 60 q 207 161 218 118 q 184 286 189 226 q 164 602 174 382 q 155 985 155 822 q 155 996 155 991 l 155 1006 q 149 1031 155 1023 q 127 1039 143 1039 q 105 1003 105 1039 q 106 991 105 996 l 106 982 q 116 619 106 852 q 134 321 127 387 l 135 298 z "},"Ǔ":{"ha":583,"x_min":105,"x_max":452,"o":"m 320 1389 q 280 1181 313 1301 q 259 1240 274 1197 q 234 1314 243 1284 q 222 1361 223 1347 l 198 1393 l 173 1375 q 198 1296 174 1354 q 249 1189 222 1238 q 290 1140 277 1140 q 309 1169 309 1140 q 315 1221 309 1195 q 334 1282 321 1246 q 351 1332 345 1312 l 349 1340 l 359 1361 l 358 1368 q 363 1383 363 1380 q 338 1400 363 1396 l 320 1389 m 135 298 q 138 254 136 269 q 145 196 140 230 q 158 136 151 162 q 180 75 166 105 q 212 23 195 44 q 258 -13 231 1 q 318 -26 286 -26 q 376 -11 351 -26 q 415 27 401 4 q 438 83 429 50 q 449 140 446 114 q 452 200 452 167 q 450 430 452 277 q 447 667 447 566 l 447 791 q 446 917 446 847 l 446 1022 q 438 1046 446 1037 q 419 1055 431 1055 q 400 1046 408 1055 q 392 1022 392 1037 q 395 904 392 991 q 398 786 398 834 l 404 608 q 410 349 410 437 l 410 191 q 409 144 410 172 q 401 97 407 121 q 385 58 395 73 q 356 29 374 40 q 313 18 337 18 q 266 40 288 18 q 231 89 245 60 q 207 161 218 118 q 184 286 189 226 q 164 602 174 382 q 155 985 155 822 q 155 996 155 991 l 155 1006 q 149 1031 155 1023 q 127 1039 143 1039 q 105 1003 105 1039 q 106 991 105 996 l 106 982 q 116 619 106 852 q 134 321 127 387 l 135 298 z "},"Û":{"ha":583,"x_min":105,"x_max":452,"o":"m 345 1140 q 370 1157 370 1144 q 365 1172 370 1160 l 366 1179 l 356 1200 l 357 1208 q 341 1259 351 1228 q 322 1319 328 1293 q 316 1371 316 1345 q 296 1400 316 1400 q 256 1351 283 1400 q 204 1244 229 1302 q 180 1165 180 1185 l 205 1147 l 229 1179 q 241 1227 230 1194 q 266 1300 250 1257 q 287 1360 281 1343 q 327 1152 319 1239 l 345 1140 m 135 298 q 138 254 136 269 q 145 196 140 230 q 158 136 151 162 q 180 75 166 105 q 212 23 195 44 q 258 -13 231 1 q 318 -26 286 -26 q 376 -11 351 -26 q 415 27 401 4 q 438 83 429 50 q 449 140 446 114 q 452 200 452 167 q 450 430 452 277 q 447 667 447 566 l 447 791 q 446 917 446 847 l 446 1022 q 438 1046 446 1037 q 419 1055 431 1055 q 400 1046 408 1055 q 392 1022 392 1037 q 395 904 392 991 q 398 786 398 834 l 404 608 q 410 349 410 437 l 410 191 q 409 144 410 172 q 401 97 407 121 q 385 58 395 73 q 356 29 374 40 q 313 18 337 18 q 266 40 288 18 q 231 89 245 60 q 207 161 218 118 q 184 286 189 226 q 164 602 174 382 q 155 985 155 822 q 155 996 155 991 l 155 1006 q 149 1031 155 1023 q 127 1039 143 1039 q 105 1003 105 1039 q 106 991 105 996 l 106 982 q 116 619 106 852 q 134 321 127 387 l 135 298 z "},"Ȕ":{"ha":583,"x_min":-67,"x_max":452,"o":"m 374 1282 q 318 1337 372 1291 q 207 1426 264 1383 q 142 1469 150 1469 q 134 1461 140 1469 q 127 1448 127 1454 q 136 1434 127 1439 q 262 1336 236 1354 q 311 1305 278 1329 q 368 1274 345 1279 l 374 1282 m 134 1350 q 39 1418 62 1404 q -39 1459 -32 1459 q -56 1447 -46 1459 q -67 1425 -65 1436 l 5 1384 q 80 1347 28 1375 q 98 1336 82 1346 l 114 1326 q 164 1293 138 1310 q 193 1278 187 1278 q 200 1289 200 1278 q 134 1350 200 1299 m 135 298 q 138 254 136 269 q 145 196 140 230 q 158 136 151 162 q 180 75 166 105 q 212 23 195 44 q 258 -13 231 1 q 318 -26 286 -26 q 376 -11 351 -26 q 415 27 401 4 q 438 83 429 50 q 449 140 446 114 q 452 200 452 167 q 450 430 452 277 q 447 667 447 566 l 447 791 q 446 917 446 847 l 446 1022 q 438 1046 446 1037 q 419 1055 431 1055 q 400 1046 408 1055 q 392 1022 392 1037 q 395 904 392 991 q 398 786 398 834 l 404 608 q 410 349 410 437 l 410 191 q 409 144 410 172 q 401 97 407 121 q 385 58 395 73 q 356 29 374 40 q 313 18 337 18 q 266 40 288 18 q 231 89 245 60 q 207 161 218 118 q 184 286 189 226 q 164 602 174 382 q 155 985 155 822 q 155 996 155 991 l 155 1006 q 149 1031 155 1023 q 127 1039 143 1039 q 105 1003 105 1039 q 106 991 105 996 l 106 982 q 116 619 106 852 q 134 321 127 387 l 135 298 z "},"Ü":{"ha":583,"x_min":90,"x_max":467,"o":"m 402 1265 q 411 1244 402 1254 q 430 1234 420 1234 q 467 1266 467 1234 q 457 1288 467 1277 q 436 1299 448 1299 q 413 1289 423 1299 q 402 1265 402 1278 m 90 1263 q 98 1240 90 1251 q 117 1229 106 1229 q 141 1235 130 1229 q 151 1253 151 1242 q 144 1285 151 1272 q 123 1298 137 1298 q 101 1287 111 1298 q 90 1263 90 1276 m 135 298 q 138 254 136 269 q 145 196 140 230 q 158 136 151 162 q 180 75 166 105 q 212 23 195 44 q 258 -13 231 1 q 318 -26 286 -26 q 376 -11 351 -26 q 415 27 401 4 q 438 83 429 50 q 449 140 446 114 q 452 200 452 167 q 450 430 452 277 q 447 667 447 566 l 447 791 q 446 917 446 847 l 446 1022 q 438 1046 446 1037 q 419 1055 431 1055 q 400 1046 408 1055 q 392 1022 392 1037 q 395 904 392 991 q 398 786 398 834 l 404 608 q 410 349 410 437 l 410 191 q 409 144 410 172 q 401 97 407 121 q 385 58 395 73 q 356 29 374 40 q 313 18 337 18 q 266 40 288 18 q 231 89 245 60 q 207 161 218 118 q 184 286 189 226 q 164 602 174 382 q 155 985 155 822 q 155 996 155 991 l 155 1006 q 149 1031 155 1023 q 127 1039 143 1039 q 105 1003 105 1039 q 106 991 105 996 l 106 982 q 116 619 106 852 q 134 321 127 387 l 135 298 z "},"Ù":{"ha":583,"x_min":72,"x_max":452,"o":"m 142 1323 q 213 1296 147 1320 q 282 1273 279 1273 q 293 1277 287 1273 q 298 1284 298 1280 q 272 1311 298 1296 q 215 1337 249 1324 q 160 1358 178 1352 q 149 1361 153 1360 q 143 1363 144 1362 q 90 1379 131 1379 l 81 1379 q 72 1348 72 1373 q 119 1320 72 1320 q 142 1323 130 1320 m 135 298 q 138 254 136 269 q 145 196 140 230 q 158 136 151 162 q 180 75 166 105 q 212 23 195 44 q 258 -13 231 1 q 318 -26 286 -26 q 376 -11 351 -26 q 415 27 401 4 q 438 83 429 50 q 449 140 446 114 q 452 200 452 167 q 450 430 452 277 q 447 667 447 566 l 447 791 q 446 917 446 847 l 446 1022 q 438 1046 446 1037 q 419 1055 431 1055 q 400 1046 408 1055 q 392 1022 392 1037 q 395 904 392 991 q 398 786 398 834 l 404 608 q 410 349 410 437 l 410 191 q 409 144 410 172 q 401 97 407 121 q 385 58 395 73 q 356 29 374 40 q 313 18 337 18 q 266 40 288 18 q 231 89 245 60 q 207 161 218 118 q 184 286 189 226 q 164 602 174 382 q 155 985 155 822 q 155 996 155 991 l 155 1006 q 149 1031 155 1023 q 127 1039 143 1039 q 105 1003 105 1039 q 106 991 105 996 l 106 982 q 116 619 106 852 q 134 321 127 387 l 135 298 z "},"Ű":{"ha":583,"x_min":63,"x_max":549,"o":"m 70 1200 q 127 1231 93 1205 q 175 1262 159 1255 q 312 1364 195 1275 q 321 1378 321 1370 q 315 1392 321 1384 q 306 1399 309 1399 q 238 1355 298 1399 q 122 1264 178 1311 q 63 1208 65 1217 l 70 1200 m 272 1215 q 279 1204 272 1204 q 311 1220 285 1204 q 366 1255 344 1240 q 402 1277 397 1275 q 477 1314 463 1309 l 549 1355 q 538 1377 547 1366 q 521 1389 528 1389 q 444 1348 515 1389 q 337 1273 401 1322 q 272 1215 272 1224 m 135 298 q 138 254 136 269 q 145 196 140 230 q 158 136 151 162 q 180 75 166 105 q 212 23 195 44 q 258 -13 231 1 q 318 -26 286 -26 q 376 -11 351 -26 q 415 27 401 4 q 438 83 429 50 q 449 140 446 114 q 452 200 452 167 q 450 430 452 277 q 447 667 447 566 l 447 791 q 446 917 446 847 l 446 1022 q 438 1046 446 1037 q 419 1055 431 1055 q 400 1046 408 1055 q 392 1022 392 1037 q 395 904 392 991 q 398 786 398 834 l 404 608 q 410 349 410 437 l 410 191 q 409 144 410 172 q 401 97 407 121 q 385 58 395 73 q 356 29 374 40 q 313 18 337 18 q 266 40 288 18 q 231 89 245 60 q 207 161 218 118 q 184 286 189 226 q 164 602 174 382 q 155 985 155 822 q 155 996 155 991 l 155 1006 q 149 1031 155 1023 q 127 1039 143 1039 q 105 1003 105 1039 q 106 991 105 996 l 106 982 q 116 619 106 852 q 134 321 127 387 l 135 298 z "},"Ȗ":{"ha":583,"x_min":105,"x_max":452,"o":"m 199 1235 q 212 1257 208 1236 q 225 1312 218 1289 q 248 1346 233 1335 l 262 1357 l 297 1357 q 320 1345 309 1357 q 338 1317 331 1333 q 345 1286 345 1300 q 344 1277 345 1281 q 343 1267 343 1272 q 368 1240 343 1240 q 383 1246 376 1240 q 389 1260 389 1252 q 386 1272 389 1263 l 382 1282 l 385 1292 q 381 1300 384 1295 q 374 1316 378 1306 q 368 1332 370 1326 q 363 1340 365 1337 q 336 1375 349 1369 q 285 1389 311 1389 q 236 1376 257 1389 q 205 1341 216 1364 q 184 1247 184 1299 l 199 1235 m 135 298 q 138 254 136 269 q 145 196 140 230 q 158 136 151 162 q 180 75 166 105 q 212 23 195 44 q 258 -13 231 1 q 318 -26 286 -26 q 376 -11 351 -26 q 415 27 401 4 q 438 83 429 50 q 449 140 446 114 q 452 200 452 167 q 450 430 452 277 q 447 667 447 566 l 447 791 q 446 917 446 847 l 446 1022 q 438 1046 446 1037 q 419 1055 431 1055 q 400 1046 408 1055 q 392 1022 392 1037 q 395 904 392 991 q 398 786 398 834 l 404 608 q 410 349 410 437 l 410 191 q 409 144 410 172 q 401 97 407 121 q 385 58 395 73 q 356 29 374 40 q 313 18 337 18 q 266 40 288 18 q 231 89 245 60 q 207 161 218 118 q 184 286 189 226 q 164 602 174 382 q 155 985 155 822 q 155 996 155 991 l 155 1006 q 149 1031 155 1023 q 127 1039 143 1039 q 105 1003 105 1039 q 106 991 105 996 l 106 982 q 116 619 106 852 q 134 321 127 387 l 135 298 z "},"Ū":{"ha":583,"x_min":105,"x_max":452,"o":"m 437 1255 q 430 1268 437 1263 q 407 1275 423 1273 q 376 1277 391 1277 q 336 1278 360 1278 l 258 1278 q 169 1266 170 1278 q 172 1257 169 1261 q 199 1246 176 1251 q 243 1244 212 1244 l 270 1244 l 348 1244 q 437 1255 435 1244 m 135 298 q 138 254 136 269 q 145 196 140 230 q 158 136 151 162 q 180 75 166 105 q 212 23 195 44 q 258 -13 231 1 q 318 -26 286 -26 q 376 -11 351 -26 q 415 27 401 4 q 438 83 429 50 q 449 140 446 114 q 452 200 452 167 q 450 430 452 277 q 447 667 447 566 l 447 791 q 446 917 446 847 l 446 1022 q 438 1046 446 1037 q 419 1055 431 1055 q 400 1046 408 1055 q 392 1022 392 1037 q 395 904 392 991 q 398 786 398 834 l 404 608 q 410 349 410 437 l 410 191 q 409 144 410 172 q 401 97 407 121 q 385 58 395 73 q 356 29 374 40 q 313 18 337 18 q 266 40 288 18 q 231 89 245 60 q 207 161 218 118 q 184 286 189 226 q 164 602 174 382 q 155 985 155 822 q 155 996 155 991 l 155 1006 q 149 1031 155 1023 q 127 1039 143 1039 q 105 1003 105 1039 q 106 991 105 996 l 106 982 q 116 619 106 852 q 134 321 127 387 l 135 298 z "},"Ų":{"ha":583,"x_min":105,"x_max":452,"o":"m 450 430 q 452 200 452 277 q 449 140 452 167 q 438 83 446 114 q 415 27 429 50 q 376 -11 401 4 q 337 -25 358 -22 q 298 -96 311 -61 q 286 -149 286 -125 q 283 -181 286 -164 l 282 -195 q 281 -210 281 -201 q 297 -248 281 -229 q 328 -267 312 -267 q 351 -260 336 -267 q 373 -253 364 -253 q 388 -267 388 -253 q 369 -294 388 -284 q 328 -304 350 -304 q 277 -287 302 -304 q 238 -242 253 -269 q 223 -195 223 -216 q 233 -129 223 -163 q 257 -69 242 -96 q 287 -23 275 -39 q 245 -5 264 -18 q 212 23 226 7 q 180 75 195 44 q 158 136 166 105 q 145 196 151 162 q 138 254 140 230 q 135 298 136 269 l 134 321 q 116 619 127 387 q 106 982 106 852 l 106 991 q 105 1003 105 996 q 127 1039 105 1039 q 149 1031 143 1039 q 155 1006 155 1023 l 155 996 q 155 985 155 991 q 164 602 155 822 q 184 286 174 382 q 207 161 189 226 q 231 89 218 118 q 266 40 245 60 q 313 18 288 18 q 356 29 337 18 q 385 58 374 40 q 401 97 395 73 q 409 144 407 121 q 410 191 410 172 l 410 349 q 404 608 410 437 l 398 786 q 395 904 398 834 q 392 1022 392 991 q 400 1046 392 1037 q 419 1055 408 1055 q 438 1046 431 1055 q 446 1022 446 1037 l 446 917 q 447 791 446 847 l 447 667 q 450 430 447 566 z "},"Ů":{"ha":583,"x_min":105,"x_max":452,"o":"m 197 1286 q 207 1251 197 1267 q 232 1223 216 1234 q 265 1213 248 1213 q 330 1233 305 1213 q 354 1292 354 1254 q 342 1328 354 1309 q 313 1359 331 1347 q 278 1372 295 1372 q 240 1359 258 1372 q 209 1326 221 1346 q 197 1286 197 1306 m 229 1293 q 245 1329 229 1312 q 278 1345 261 1345 q 308 1325 297 1345 q 318 1278 318 1305 q 298 1251 318 1263 q 260 1239 278 1239 q 240 1250 247 1239 q 231 1269 233 1259 q 229 1293 229 1279 m 135 298 q 138 254 136 269 q 145 196 140 230 q 158 136 151 162 q 180 75 166 105 q 212 23 195 44 q 258 -13 231 1 q 318 -26 286 -26 q 376 -11 351 -26 q 415 27 401 4 q 438 83 429 50 q 449 140 446 114 q 452 200 452 167 q 450 430 452 277 q 447 667 447 566 l 447 791 q 446 917 446 847 l 446 1022 q 438 1046 446 1037 q 419 1055 431 1055 q 400 1046 408 1055 q 392 1022 392 1037 q 395 904 392 991 q 398 786 398 834 l 404 608 q 410 349 410 437 l 410 191 q 409 144 410 172 q 401 97 407 121 q 385 58 395 73 q 356 29 374 40 q 313 18 337 18 q 266 40 288 18 q 231 89 245 60 q 207 161 218 118 q 184 286 189 226 q 164 602 174 382 q 155 985 155 822 q 155 996 155 991 l 155 1006 q 149 1031 155 1023 q 127 1039 143 1039 q 105 1003 105 1039 q 106 991 105 996 l 106 982 q 116 619 106 852 q 134 321 127 387 l 135 298 z "},"Ũ":{"ha":583,"x_min":105,"x_max":452,"o":"m 117 1211 q 126 1195 117 1203 q 144 1187 135 1187 l 159 1208 q 152 1238 152 1231 q 168 1264 152 1253 q 203 1275 183 1275 l 213 1271 q 248 1232 235 1244 q 288 1202 263 1216 q 336 1189 313 1189 q 372 1199 355 1189 q 400 1226 389 1209 q 410 1262 410 1243 q 402 1296 410 1282 q 378 1310 394 1310 q 364 1301 368 1310 q 369 1289 366 1296 q 372 1275 372 1279 q 336 1225 372 1225 q 292 1242 316 1225 q 257 1279 267 1259 q 198 1308 233 1308 q 141 1281 164 1308 q 117 1211 117 1255 m 135 298 q 138 254 136 269 q 145 196 140 230 q 158 136 151 162 q 180 75 166 105 q 212 23 195 44 q 258 -13 231 1 q 318 -26 286 -26 q 376 -11 351 -26 q 415 27 401 4 q 438 83 429 50 q 449 140 446 114 q 452 200 452 167 q 450 430 452 277 q 447 667 447 566 l 447 791 q 446 917 446 847 l 446 1022 q 438 1046 446 1037 q 419 1055 431 1055 q 400 1046 408 1055 q 392 1022 392 1037 q 395 904 392 991 q 398 786 398 834 l 404 608 q 410 349 410 437 l 410 191 q 409 144 410 172 q 401 97 407 121 q 385 58 395 73 q 356 29 374 40 q 313 18 337 18 q 266 40 288 18 q 231 89 245 60 q 207 161 218 118 q 184 286 189 226 q 164 602 174 382 q 155 985 155 822 q 155 996 155 991 l 155 1006 q 149 1031 155 1023 q 127 1039 143 1039 q 105 1003 105 1039 q 106 991 105 996 l 106 982 q 116 619 106 852 q 134 321 127 387 l 135 298 z "},"V":{"ha":502,"x_min":80,"x_max":416,"o":"m 397 865 q 370 642 391 821 q 325 255 347 456 q 302 18 303 55 q 276 -12 292 -12 q 270 -11 274 -12 l 255 -7 q 199 300 232 87 l 123 796 l 110 857 q 80 1025 80 981 q 86 1042 80 1035 q 100 1050 92 1050 q 109 1048 105 1050 q 121 1032 115 1045 q 127 1011 125 1023 l 130 991 q 161 812 136 959 l 231 334 l 250 203 l 267 76 q 277 175 273 134 l 292 335 q 326 640 301 413 l 346 835 l 351 880 q 361 950 353 897 q 370 1028 369 1006 q 397 1054 372 1054 l 405 1048 l 402 1048 l 416 1038 q 405 919 416 996 l 397 865 m 264 68 l 269 68 l 267 72 l 264 68 z "},"W":{"ha":651,"x_min":56,"x_max":595,"o":"m 242 37 q 218 -18 242 -18 q 192 13 192 -18 q 193 28 192 22 q 193 43 193 35 l 193 50 q 168 218 189 84 l 156 294 q 130 511 151 325 q 87 854 108 700 q 56 1026 66 1010 q 69 1039 60 1034 q 85 1044 77 1044 q 114 1037 106 1044 q 121 1013 121 1029 l 121 1000 q 121 986 121 994 q 121 971 121 975 q 212 121 159 564 l 214 121 q 231 342 220 160 q 245 568 243 534 q 262 690 249 611 q 278 803 275 770 l 283 866 l 285 895 q 286 913 286 912 q 287 922 286 916 q 288 930 288 927 q 291 935 288 932 q 296 940 293 938 q 312 938 307 940 q 321 930 318 936 q 326 921 325 925 q 329 909 328 917 l 331 897 q 391 515 345 825 q 446 106 437 204 l 450 103 l 502 665 q 519 832 506 722 q 534 1019 534 954 q 533 1033 534 1027 q 532 1046 532 1039 q 540 1071 532 1063 q 568 1079 548 1079 q 586 1072 577 1079 q 595 1057 595 1065 q 580 1031 595 1043 q 581 1022 581 1027 q 578 1004 581 1015 q 576 991 576 993 q 538 623 562 880 q 510 336 515 377 q 498 227 505 276 l 483 85 q 480 60 482 79 q 475 16 475 22 q 470 -10 475 -2 q 450 -18 465 -18 q 424 -1 429 -18 q 419 37 420 12 l 417 58 q 317 820 376 329 l 313 823 l 312 821 l 311 820 q 242 61 257 218 l 242 37 z "},"Ẃ":{"ha":651,"x_min":56,"x_max":595,"o":"m 238 1268 q 245 1253 238 1259 q 263 1248 252 1248 q 437 1367 366 1335 l 441 1388 q 410 1410 441 1410 q 359 1369 406 1405 q 276 1304 307 1329 q 238 1268 238 1274 m 242 37 q 218 -18 242 -18 q 192 13 192 -18 q 193 28 192 22 q 193 43 193 35 l 193 50 q 168 218 189 84 l 156 294 q 130 511 151 325 q 87 854 108 700 q 56 1026 66 1010 q 69 1039 60 1034 q 85 1044 77 1044 q 114 1037 106 1044 q 121 1013 121 1029 l 121 1000 q 121 986 121 994 q 121 971 121 975 q 212 121 159 564 l 214 121 q 231 342 220 160 q 245 568 243 534 q 262 690 249 611 q 278 803 275 770 l 283 866 l 285 895 q 286 913 286 912 q 287 922 286 916 q 288 930 288 927 q 291 935 288 932 q 296 940 293 938 q 312 938 307 940 q 321 930 318 936 q 326 921 325 925 q 329 909 328 917 l 331 897 q 391 515 345 825 q 446 106 437 204 l 450 103 l 502 665 q 519 832 506 722 q 534 1019 534 954 q 533 1033 534 1027 q 532 1046 532 1039 q 540 1071 532 1063 q 568 1079 548 1079 q 586 1072 577 1079 q 595 1057 595 1065 q 580 1031 595 1043 q 581 1022 581 1027 q 578 1004 581 1015 q 576 991 576 993 q 538 623 562 880 q 510 336 515 377 q 498 227 505 276 l 483 85 q 480 60 482 79 q 475 16 475 22 q 470 -10 475 -2 q 450 -18 465 -18 q 424 -1 429 -18 q 419 37 420 12 l 417 58 q 317 820 376 329 l 313 823 l 312 821 l 311 820 q 242 61 257 218 l 242 37 z "},"Ŵ":{"ha":651,"x_min":56,"x_max":595,"o":"m 393 1140 q 418 1157 418 1144 q 412 1172 418 1160 l 414 1179 l 404 1200 l 405 1208 q 389 1259 399 1228 q 370 1319 376 1293 q 363 1371 363 1345 q 344 1400 363 1400 q 303 1351 331 1400 q 252 1244 276 1302 q 227 1165 228 1185 l 252 1147 l 276 1179 q 288 1227 277 1194 q 313 1300 298 1257 q 334 1360 328 1343 q 374 1152 367 1239 l 393 1140 m 242 37 q 218 -18 242 -18 q 192 13 192 -18 q 193 28 192 22 q 193 43 193 35 l 193 50 q 168 218 189 84 l 156 294 q 130 511 151 325 q 87 854 108 700 q 56 1026 66 1010 q 69 1039 60 1034 q 85 1044 77 1044 q 114 1037 106 1044 q 121 1013 121 1029 l 121 1000 q 121 986 121 994 q 121 971 121 975 q 212 121 159 564 l 214 121 q 231 342 220 160 q 245 568 243 534 q 262 690 249 611 q 278 803 275 770 l 283 866 l 285 895 q 286 913 286 912 q 287 922 286 916 q 288 930 288 927 q 291 935 288 932 q 296 940 293 938 q 312 938 307 940 q 321 930 318 936 q 326 921 325 925 q 329 909 328 917 l 331 897 q 391 515 345 825 q 446 106 437 204 l 450 103 l 502 665 q 519 832 506 722 q 534 1019 534 954 q 533 1033 534 1027 q 532 1046 532 1039 q 540 1071 532 1063 q 568 1079 548 1079 q 586 1072 577 1079 q 595 1057 595 1065 q 580 1031 595 1043 q 581 1022 581 1027 q 578 1004 581 1015 q 576 991 576 993 q 538 623 562 880 q 510 336 515 377 q 498 227 505 276 l 483 85 q 480 60 482 79 q 475 16 475 22 q 470 -10 475 -2 q 450 -18 465 -18 q 424 -1 429 -18 q 419 37 420 12 l 417 58 q 317 820 376 329 l 313 823 l 312 821 l 311 820 q 242 61 257 218 l 242 37 z "},"Ẅ":{"ha":651,"x_min":56,"x_max":595,"o":"m 450 1265 q 458 1244 450 1254 q 477 1234 467 1234 q 514 1266 514 1234 q 505 1288 514 1277 q 484 1299 495 1299 q 460 1289 471 1299 q 450 1265 450 1278 m 138 1263 q 145 1240 138 1251 q 164 1229 153 1229 q 188 1235 178 1229 q 199 1253 199 1242 q 192 1285 199 1272 q 171 1298 184 1298 q 148 1287 159 1298 q 138 1263 138 1276 m 242 37 q 218 -18 242 -18 q 192 13 192 -18 q 193 28 192 22 q 193 43 193 35 l 193 50 q 168 218 189 84 l 156 294 q 130 511 151 325 q 87 854 108 700 q 56 1026 66 1010 q 69 1039 60 1034 q 85 1044 77 1044 q 114 1037 106 1044 q 121 1013 121 1029 l 121 1000 q 121 986 121 994 q 121 971 121 975 q 212 121 159 564 l 214 121 q 231 342 220 160 q 245 568 243 534 q 262 690 249 611 q 278 803 275 770 l 283 866 l 285 895 q 286 913 286 912 q 287 922 286 916 q 288 930 288 927 q 291 935 288 932 q 296 940 293 938 q 312 938 307 940 q 321 930 318 936 q 326 921 325 925 q 329 909 328 917 l 331 897 q 391 515 345 825 q 446 106 437 204 l 450 103 l 502 665 q 519 832 506 722 q 534 1019 534 954 q 533 1033 534 1027 q 532 1046 532 1039 q 540 1071 532 1063 q 568 1079 548 1079 q 586 1072 577 1079 q 595 1057 595 1065 q 580 1031 595 1043 q 581 1022 581 1027 q 578 1004 581 1015 q 576 991 576 993 q 538 623 562 880 q 510 336 515 377 q 498 227 505 276 l 483 85 q 480 60 482 79 q 475 16 475 22 q 470 -10 475 -2 q 450 -18 465 -18 q 424 -1 429 -18 q 419 37 420 12 l 417 58 q 317 820 376 329 l 313 823 l 312 821 l 311 820 q 242 61 257 218 l 242 37 z "},"Ẁ":{"ha":651,"x_min":56,"x_max":595,"o":"m 189 1323 q 261 1296 195 1320 q 330 1273 327 1273 q 340 1277 334 1273 q 346 1284 346 1280 q 319 1311 346 1296 q 262 1337 296 1324 q 208 1358 226 1352 q 196 1361 201 1360 q 191 1363 192 1362 q 137 1379 178 1379 l 128 1379 q 119 1348 119 1373 q 167 1320 119 1320 q 189 1323 178 1320 m 242 37 q 218 -18 242 -18 q 192 13 192 -18 q 193 28 192 22 q 193 43 193 35 l 193 50 q 168 218 189 84 l 156 294 q 130 511 151 325 q 87 854 108 700 q 56 1026 66 1010 q 69 1039 60 1034 q 85 1044 77 1044 q 114 1037 106 1044 q 121 1013 121 1029 l 121 1000 q 121 986 121 994 q 121 971 121 975 q 212 121 159 564 l 214 121 q 231 342 220 160 q 245 568 243 534 q 262 690 249 611 q 278 803 275 770 l 283 866 l 285 895 q 286 913 286 912 q 287 922 286 916 q 288 930 288 927 q 291 935 288 932 q 296 940 293 938 q 312 938 307 940 q 321 930 318 936 q 326 921 325 925 q 329 909 328 917 l 331 897 q 391 515 345 825 q 446 106 437 204 l 450 103 l 502 665 q 519 832 506 722 q 534 1019 534 954 q 533 1033 534 1027 q 532 1046 532 1039 q 540 1071 532 1063 q 568 1079 548 1079 q 586 1072 577 1079 q 595 1057 595 1065 q 580 1031 595 1043 q 581 1022 581 1027 q 578 1004 581 1015 q 576 991 576 993 q 538 623 562 880 q 510 336 515 377 q 498 227 505 276 l 483 85 q 480 60 482 79 q 475 16 475 22 q 470 -10 475 -2 q 450 -18 465 -18 q 424 -1 429 -18 q 419 37 420 12 l 417 58 q 317 820 376 329 l 313 823 l 312 821 l 311 820 q 242 61 257 218 l 242 37 z "},"X":{"ha":461,"x_min":94,"x_max":361,"o":"m 94 8 q 102 -3 94 3 q 115 -8 109 -8 q 125 -7 119 -8 q 132 -5 127 -6 q 139 1 136 -3 q 145 15 144 9 q 149 33 147 22 q 150 41 150 41 q 194 256 159 95 q 235 427 229 417 q 284 189 246 382 l 291 153 l 298 113 q 305 36 305 68 q 309 24 305 28 q 317 19 313 20 q 330 18 321 18 q 353 47 353 18 q 350 74 353 60 l 347 91 l 332 161 l 258 536 q 260 569 258 552 q 272 645 263 598 q 279 685 275 663 q 286 720 283 707 q 343 982 325 918 q 353 1006 345 989 q 361 1038 361 1026 q 336 1053 361 1053 q 320 1043 327 1053 q 309 1018 313 1034 q 297 957 301 991 q 294 936 295 937 q 240 625 248 681 q 205 806 231 679 q 172 972 180 926 q 171 991 172 972 q 170 1001 170 996 q 170 1011 170 1006 q 161 1026 168 1019 q 143 1032 155 1032 q 121 1014 132 1032 q 137 937 122 986 q 155 873 153 886 q 178 777 161 844 q 203 652 195 702 q 211 557 211 603 q 210 524 211 547 q 199 453 207 494 l 184 383 q 120 115 161 271 q 94 8 94 24 z "},"Y":{"ha":420,"x_min":94,"x_max":329,"o":"m 220 17 q 225 -6 220 4 q 240 -17 231 -17 q 262 -5 254 -17 q 271 24 271 7 q 270 28 271 26 q 269 33 269 31 l 265 37 q 268 318 268 119 q 263 401 268 349 q 258 485 258 461 l 258 496 l 267 517 q 264 540 267 525 q 262 562 262 555 q 268 665 262 607 q 281 766 274 723 q 317 972 292 831 q 323 1000 319 981 q 329 1029 329 1020 q 326 1040 329 1037 q 320 1044 323 1043 q 313 1044 317 1044 q 308 1044 310 1044 q 267 953 285 1044 q 239 751 249 857 q 226 631 228 637 q 195 729 214 646 q 158 906 175 812 q 138 1038 141 1000 l 122 1048 q 102 1042 111 1048 q 94 1026 94 1036 q 115 936 94 1002 q 136 850 126 896 q 161 732 146 804 l 179 636 q 181 627 180 634 q 186 605 182 620 q 201 526 201 545 q 210 463 201 504 q 218 397 218 420 q 222 341 218 376 q 227 285 227 306 q 224 151 227 250 q 220 17 220 51 z "},"Ý":{"ha":420,"x_min":94,"x_max":339,"o":"m 136 1268 q 143 1253 136 1259 q 161 1248 151 1248 q 335 1367 264 1335 l 339 1388 q 309 1410 339 1410 q 257 1369 304 1405 q 174 1304 205 1329 q 136 1268 136 1274 m 220 17 q 225 -6 220 4 q 240 -17 231 -17 q 262 -5 254 -17 q 271 24 271 7 q 270 28 271 26 q 269 33 269 31 l 265 37 q 268 318 268 119 q 263 401 268 349 q 258 485 258 461 l 258 496 l 267 517 q 264 540 267 525 q 262 562 262 555 q 268 665 262 607 q 281 766 274 723 q 317 972 292 831 q 323 1000 319 981 q 329 1029 329 1020 q 326 1040 329 1037 q 320 1044 323 1043 q 313 1044 317 1044 q 308 1044 310 1044 q 267 953 285 1044 q 239 751 249 857 q 226 631 228 637 q 195 729 214 646 q 158 906 175 812 q 138 1038 141 1000 l 122 1048 q 102 1042 111 1048 q 94 1026 94 1036 q 115 936 94 1002 q 136 850 126 896 q 161 732 146 804 l 179 636 q 181 627 180 634 q 186 605 182 620 q 201 526 201 545 q 210 463 201 504 q 218 397 218 420 q 222 341 218 376 q 227 285 227 306 q 224 151 227 250 q 220 17 220 51 z "},"Ŷ":{"ha":420,"x_min":94,"x_max":329,"o":"m 291 1140 q 316 1157 316 1144 q 311 1172 316 1160 l 312 1179 l 302 1200 l 303 1208 q 287 1259 297 1228 q 268 1319 274 1293 q 262 1371 262 1345 q 242 1400 262 1400 q 202 1351 229 1400 q 150 1244 174 1302 q 125 1165 126 1185 l 151 1147 l 174 1179 q 186 1227 176 1194 q 211 1300 196 1257 q 233 1360 227 1343 q 273 1152 265 1239 l 291 1140 m 220 17 q 225 -6 220 4 q 240 -17 231 -17 q 262 -5 254 -17 q 271 24 271 7 q 270 28 271 26 q 269 33 269 31 l 265 37 q 268 318 268 119 q 263 401 268 349 q 258 485 258 461 l 258 496 l 267 517 q 264 540 267 525 q 262 562 262 555 q 268 665 262 607 q 281 766 274 723 q 317 972 292 831 q 323 1000 319 981 q 329 1029 329 1020 q 326 1040 329 1037 q 320 1044 323 1043 q 313 1044 317 1044 q 308 1044 310 1044 q 267 953 285 1044 q 239 751 249 857 q 226 631 228 637 q 195 729 214 646 q 158 906 175 812 q 138 1038 141 1000 l 122 1048 q 102 1042 111 1048 q 94 1026 94 1036 q 115 936 94 1002 q 136 850 126 896 q 161 732 146 804 l 179 636 q 181 627 180 634 q 186 605 182 620 q 201 526 201 545 q 210 463 201 504 q 218 397 218 420 q 222 341 218 376 q 227 285 227 306 q 224 151 227 250 q 220 17 220 51 z "},"Ÿ":{"ha":420,"x_min":36,"x_max":412,"o":"m 348 1265 q 357 1244 348 1254 q 376 1234 366 1234 q 412 1266 412 1234 q 403 1288 412 1277 q 382 1299 393 1299 q 358 1289 369 1299 q 348 1265 348 1278 m 36 1263 q 44 1240 36 1251 q 62 1229 52 1229 q 86 1235 76 1229 q 97 1253 97 1242 q 90 1285 97 1272 q 69 1298 83 1298 q 46 1287 57 1298 q 36 1263 36 1276 m 220 17 q 225 -6 220 4 q 240 -17 231 -17 q 262 -5 254 -17 q 271 24 271 7 q 270 28 271 26 q 269 33 269 31 l 265 37 q 268 318 268 119 q 263 401 268 349 q 258 485 258 461 l 258 496 l 267 517 q 264 540 267 525 q 262 562 262 555 q 268 665 262 607 q 281 766 274 723 q 317 972 292 831 q 323 1000 319 981 q 329 1029 329 1020 q 326 1040 329 1037 q 320 1044 323 1043 q 313 1044 317 1044 q 308 1044 310 1044 q 267 953 285 1044 q 239 751 249 857 q 226 631 228 637 q 195 729 214 646 q 158 906 175 812 q 138 1038 141 1000 l 122 1048 q 102 1042 111 1048 q 94 1026 94 1036 q 115 936 94 1002 q 136 850 126 896 q 161 732 146 804 l 179 636 q 181 627 180 634 q 186 605 182 620 q 201 526 201 545 q 210 463 201 504 q 218 397 218 420 q 222 341 218 376 q 227 285 227 306 q 224 151 227 250 q 220 17 220 51 z "},"Ỳ":{"ha":420,"x_min":18,"x_max":329,"o":"m 87 1323 q 159 1296 93 1320 q 228 1273 225 1273 q 238 1277 233 1273 q 244 1284 244 1280 q 218 1311 244 1296 q 161 1337 195 1324 q 106 1358 124 1352 q 95 1361 99 1360 q 89 1363 90 1362 q 35 1379 77 1379 l 26 1379 q 18 1348 18 1373 q 65 1320 18 1320 q 87 1323 76 1320 m 220 17 q 225 -6 220 4 q 240 -17 231 -17 q 262 -5 254 -17 q 271 24 271 7 q 270 28 271 26 q 269 33 269 31 l 265 37 q 268 318 268 119 q 263 401 268 349 q 258 485 258 461 l 258 496 l 267 517 q 264 540 267 525 q 262 562 262 555 q 268 665 262 607 q 281 766 274 723 q 317 972 292 831 q 323 1000 319 981 q 329 1029 329 1020 q 326 1040 329 1037 q 320 1044 323 1043 q 313 1044 317 1044 q 308 1044 310 1044 q 267 953 285 1044 q 239 751 249 857 q 226 631 228 637 q 195 729 214 646 q 158 906 175 812 q 138 1038 141 1000 l 122 1048 q 102 1042 111 1048 q 94 1026 94 1036 q 115 936 94 1002 q 136 850 126 896 q 161 732 146 804 l 179 636 q 181 627 180 634 q 186 605 182 620 q 201 526 201 545 q 210 463 201 504 q 218 397 218 420 q 222 341 218 376 q 227 285 227 306 q 224 151 227 250 q 220 17 220 51 z "},"Ȳ":{"ha":420,"x_min":94,"x_max":382,"o":"m 382 1255 q 376 1268 382 1263 q 353 1275 369 1273 q 321 1277 337 1277 q 282 1278 306 1278 l 203 1278 q 115 1266 116 1278 q 118 1257 115 1261 q 144 1246 122 1251 q 189 1244 157 1244 l 216 1244 l 294 1244 q 382 1255 381 1244 m 220 17 q 225 -6 220 4 q 240 -17 231 -17 q 262 -5 254 -17 q 271 24 271 7 q 270 28 271 26 q 269 33 269 31 l 265 37 q 268 318 268 119 q 263 401 268 349 q 258 485 258 461 l 258 496 l 267 517 q 264 540 267 525 q 262 562 262 555 q 268 665 262 607 q 281 766 274 723 q 317 972 292 831 q 323 1000 319 981 q 329 1029 329 1020 q 326 1040 329 1037 q 320 1044 323 1043 q 313 1044 317 1044 q 308 1044 310 1044 q 267 953 285 1044 q 239 751 249 857 q 226 631 228 637 q 195 729 214 646 q 158 906 175 812 q 138 1038 141 1000 l 122 1048 q 102 1042 111 1048 q 94 1026 94 1036 q 115 936 94 1002 q 136 850 126 896 q 161 732 146 804 l 179 636 q 181 627 180 634 q 186 605 182 620 q 201 526 201 545 q 210 463 201 504 q 218 397 218 420 q 222 341 218 376 q 227 285 227 306 q 224 151 227 250 q 220 17 220 51 z "},"Ỹ":{"ha":420,"x_min":63,"x_max":356,"o":"m 63 1211 q 72 1195 63 1203 q 90 1187 81 1187 l 104 1208 q 98 1238 98 1231 q 113 1264 98 1253 q 149 1275 129 1275 l 159 1271 q 194 1232 181 1244 q 234 1202 209 1216 q 282 1189 259 1189 q 318 1199 301 1189 q 346 1226 335 1209 q 356 1262 356 1243 q 348 1296 356 1282 q 324 1310 340 1310 q 310 1301 314 1310 q 315 1289 311 1296 q 318 1275 318 1279 q 282 1225 318 1225 q 237 1242 262 1225 q 203 1279 213 1259 q 144 1308 178 1308 q 86 1281 110 1308 q 63 1211 63 1255 m 220 17 q 225 -6 220 4 q 240 -17 231 -17 q 262 -5 254 -17 q 271 24 271 7 q 270 28 271 26 q 269 33 269 31 l 265 37 q 268 318 268 119 q 263 401 268 349 q 258 485 258 461 l 258 496 l 267 517 q 264 540 267 525 q 262 562 262 555 q 268 665 262 607 q 281 766 274 723 q 317 972 292 831 q 323 1000 319 981 q 329 1029 329 1020 q 326 1040 329 1037 q 320 1044 323 1043 q 313 1044 317 1044 q 308 1044 310 1044 q 267 953 285 1044 q 239 751 249 857 q 226 631 228 637 q 195 729 214 646 q 158 906 175 812 q 138 1038 141 1000 l 122 1048 q 102 1042 111 1048 q 94 1026 94 1036 q 115 936 94 1002 q 136 850 126 896 q 161 732 146 804 l 179 636 q 181 627 180 634 q 186 605 182 620 q 201 526 201 545 q 210 463 201 504 q 218 397 218 420 q 222 341 218 376 q 227 285 227 306 q 224 151 227 250 q 220 17 220 51 z "},"Z":{"ha":420,"x_min":105,"x_max":312,"o":"m 105 5 q 126 -12 113 -12 q 209 -9 160 -12 q 291 -7 257 -7 l 304 5 q 245 33 304 33 q 201 30 233 33 q 155 26 168 26 q 170 82 155 47 q 187 132 185 117 q 243 526 208 260 l 260 661 q 284 840 285 843 q 290 901 287 857 q 298 984 294 952 q 312 1035 303 1016 q 290 1060 312 1060 q 224 1053 265 1060 q 159 1046 180 1046 q 126 1048 136 1046 l 116 1038 q 178 1010 116 1010 q 226 1013 191 1010 q 272 1017 261 1017 q 260 908 271 977 l 256 882 l 254 860 q 201 476 241 764 l 190 399 q 172 276 182 366 q 148 119 163 183 q 105 5 133 54 z "},"Ź":{"ha":420,"x_min":105,"x_max":339,"o":"m 136 1268 q 143 1253 136 1259 q 161 1248 151 1248 q 335 1367 264 1335 l 339 1388 q 309 1410 339 1410 q 257 1369 304 1405 q 174 1304 205 1329 q 136 1268 136 1274 m 105 5 q 126 -12 113 -12 q 209 -9 160 -12 q 291 -7 257 -7 l 304 5 q 245 33 304 33 q 201 30 233 33 q 155 26 168 26 q 170 82 155 47 q 187 132 185 117 q 243 526 208 260 l 260 661 q 284 840 285 843 q 290 901 287 857 q 298 984 294 952 q 312 1035 303 1016 q 290 1060 312 1060 q 224 1053 265 1060 q 159 1046 180 1046 q 126 1048 136 1046 l 116 1038 q 178 1010 116 1010 q 226 1013 191 1010 q 272 1017 261 1017 q 260 908 271 977 l 256 882 l 254 860 q 201 476 241 764 l 190 399 q 172 276 182 366 q 148 119 163 183 q 105 5 133 54 z "},"Ž":{"ha":420,"x_min":105,"x_max":312,"o":"m 266 1389 q 226 1181 258 1301 q 204 1240 220 1197 q 180 1314 189 1284 q 168 1361 169 1347 l 144 1393 l 119 1375 q 143 1296 119 1354 q 195 1189 168 1238 q 235 1140 222 1140 q 255 1169 255 1140 q 261 1221 255 1195 q 280 1282 267 1246 q 296 1332 290 1312 l 295 1340 l 305 1361 l 304 1368 q 309 1383 309 1380 q 284 1400 309 1396 l 266 1389 m 105 5 q 126 -12 113 -12 q 209 -9 160 -12 q 291 -7 257 -7 l 304 5 q 245 33 304 33 q 201 30 233 33 q 155 26 168 26 q 170 82 155 47 q 187 132 185 117 q 243 526 208 260 l 260 661 q 284 840 285 843 q 290 901 287 857 q 298 984 294 952 q 312 1035 303 1016 q 290 1060 312 1060 q 224 1053 265 1060 q 159 1046 180 1046 q 126 1048 136 1046 l 116 1038 q 178 1010 116 1010 q 226 1013 191 1010 q 272 1017 261 1017 q 260 908 271 977 l 256 882 l 254 860 q 201 476 241 764 l 190 399 q 172 276 182 366 q 148 119 163 183 q 105 5 133 54 z "},"Ż":{"ha":420,"x_min":105,"x_max":312,"o":"m 181 1311 q 190 1288 181 1299 q 212 1278 199 1278 q 250 1312 250 1278 q 240 1336 250 1324 q 217 1348 229 1348 q 192 1336 203 1348 q 181 1311 181 1324 m 105 5 q 126 -12 113 -12 q 209 -9 160 -12 q 291 -7 257 -7 l 304 5 q 245 33 304 33 q 201 30 233 33 q 155 26 168 26 q 170 82 155 47 q 187 132 185 117 q 243 526 208 260 l 260 661 q 284 840 285 843 q 290 901 287 857 q 298 984 294 952 q 312 1035 303 1016 q 290 1060 312 1060 q 224 1053 265 1060 q 159 1046 180 1046 q 126 1048 136 1046 l 116 1038 q 178 1010 116 1010 q 226 1013 191 1010 q 272 1017 261 1017 q 260 908 271 977 l 256 882 l 254 860 q 201 476 241 764 l 190 399 q 172 276 182 366 q 148 119 163 183 q 105 5 133 54 z "},"a":{"ha":502,"x_min":83,"x_max":414,"o":"m 178 214 q 226 210 191 214 q 277 207 261 207 q 345 200 320 207 l 368 18 q 373 -3 370 3 q 382 -11 376 -9 q 403 -12 388 -12 q 414 8 414 -6 l 414 12 q 336 685 353 489 l 328 758 q 320 839 323 806 q 318 911 318 871 q 310 926 318 920 q 293 932 302 932 q 268 924 285 924 q 258 924 262 924 l 249 925 q 240 884 245 919 q 233 827 237 865 l 231 805 l 225 754 q 201 625 218 710 q 176 504 182 543 l 161 412 l 153 363 q 144 307 149 332 l 128 221 q 86 25 109 114 l 85 21 l 83 17 q 93 1 83 9 q 111 -7 102 -7 q 132 17 122 -7 q 149 75 141 40 q 164 175 161 140 l 167 203 q 168 205 168 203 q 168 208 168 206 q 171 212 169 211 q 178 214 173 214 m 179 255 q 211 457 179 299 q 286 828 214 471 q 339 237 329 383 l 325 237 q 233 243 286 237 q 179 255 179 248 z "},"á":{"ha":502,"x_min":83,"x_max":414,"o":"m 197 1146 q 204 1131 197 1137 q 222 1126 212 1126 q 396 1245 325 1213 l 400 1266 q 370 1288 400 1288 q 318 1247 365 1283 q 235 1182 266 1207 q 197 1146 197 1152 m 178 214 q 226 210 191 214 q 277 207 261 207 q 345 200 320 207 l 368 18 q 373 -3 370 3 q 382 -11 376 -9 q 403 -12 388 -12 q 414 8 414 -6 l 414 12 q 336 685 353 489 l 328 758 q 320 839 323 806 q 318 911 318 871 q 310 926 318 920 q 293 932 302 932 q 268 924 285 924 q 258 924 262 924 l 249 925 q 240 884 245 919 q 233 827 237 865 l 231 805 l 225 754 q 201 625 218 710 q 176 504 182 543 l 161 412 l 153 363 q 144 307 149 332 l 128 221 q 86 25 109 114 l 85 21 l 83 17 q 93 1 83 9 q 111 -7 102 -7 q 132 17 122 -7 q 149 75 141 40 q 164 175 161 140 l 167 203 q 168 205 168 203 q 168 208 168 206 q 171 212 169 211 q 178 214 173 214 m 179 255 q 211 457 179 299 q 286 828 214 471 q 339 237 329 383 l 325 237 q 233 243 286 237 q 179 255 179 248 z "},"ă":{"ha":502,"x_min":83,"x_max":414,"o":"m 197 1194 q 218 1100 197 1143 q 250 1065 229 1078 q 298 1053 271 1053 q 328 1057 316 1053 q 350 1067 342 1062 q 366 1083 358 1072 q 377 1103 373 1094 q 388 1126 382 1112 q 395 1141 392 1136 q 399 1149 397 1147 l 395 1160 l 399 1170 q 403 1181 403 1179 q 396 1195 403 1190 q 382 1201 390 1201 q 357 1175 357 1201 q 357 1165 357 1169 q 358 1155 358 1160 q 351 1125 358 1141 q 333 1096 345 1108 q 311 1084 322 1084 l 276 1084 l 261 1095 q 239 1129 246 1106 q 226 1185 231 1153 q 212 1206 222 1205 l 197 1194 m 178 214 q 226 210 191 214 q 277 207 261 207 q 345 200 320 207 l 368 18 q 373 -3 370 3 q 382 -11 376 -9 q 403 -12 388 -12 q 414 8 414 -6 l 414 12 q 336 685 353 489 l 328 758 q 320 839 323 806 q 318 911 318 871 q 310 926 318 920 q 293 932 302 932 q 268 924 285 924 q 258 924 262 924 l 249 925 q 240 884 245 919 q 233 827 237 865 l 231 805 l 225 754 q 201 625 218 710 q 176 504 182 543 l 161 412 l 153 363 q 144 307 149 332 l 128 221 q 86 25 109 114 l 85 21 l 83 17 q 93 1 83 9 q 111 -7 102 -7 q 132 17 122 -7 q 149 75 141 40 q 164 175 161 140 l 167 203 q 168 205 168 203 q 168 208 168 206 q 171 212 169 211 q 178 214 173 214 m 179 255 q 211 457 179 299 q 286 828 214 471 q 339 237 329 383 l 325 237 q 233 243 286 237 q 179 255 179 248 z "},"ǎ":{"ha":502,"x_min":83,"x_max":414,"o":"m 327 1267 q 287 1059 319 1179 q 266 1118 281 1075 q 241 1192 250 1162 q 229 1239 230 1225 l 205 1271 l 180 1253 q 204 1174 180 1232 q 256 1067 229 1116 q 296 1018 283 1018 q 316 1047 316 1018 q 322 1099 316 1073 q 341 1160 328 1124 q 357 1210 351 1190 l 356 1218 l 366 1239 l 365 1246 q 370 1261 370 1258 q 345 1278 370 1274 l 327 1267 m 178 214 q 226 210 191 214 q 277 207 261 207 q 345 200 320 207 l 368 18 q 373 -3 370 3 q 382 -11 376 -9 q 403 -12 388 -12 q 414 8 414 -6 l 414 12 q 336 685 353 489 l 328 758 q 320 839 323 806 q 318 911 318 871 q 310 926 318 920 q 293 932 302 932 q 268 924 285 924 q 258 924 262 924 l 249 925 q 240 884 245 919 q 233 827 237 865 l 231 805 l 225 754 q 201 625 218 710 q 176 504 182 543 l 161 412 l 153 363 q 144 307 149 332 l 128 221 q 86 25 109 114 l 85 21 l 83 17 q 93 1 83 9 q 111 -7 102 -7 q 132 17 122 -7 q 149 75 141 40 q 164 175 161 140 l 167 203 q 168 205 168 203 q 168 208 168 206 q 171 212 169 211 q 178 214 173 214 m 179 255 q 211 457 179 299 q 286 828 214 471 q 339 237 329 383 l 325 237 q 233 243 286 237 q 179 255 179 248 z "},"â":{"ha":502,"x_min":83,"x_max":414,"o":"m 352 1018 q 377 1035 377 1022 q 372 1050 377 1038 l 373 1057 l 363 1078 l 364 1086 q 348 1137 358 1106 q 329 1197 335 1171 q 323 1249 323 1223 q 303 1278 323 1278 q 263 1229 290 1278 q 211 1122 235 1180 q 186 1043 187 1063 l 212 1025 l 235 1057 q 248 1105 237 1072 q 272 1178 257 1135 q 294 1238 288 1221 q 334 1029 326 1117 l 352 1018 m 178 214 q 226 210 191 214 q 277 207 261 207 q 345 200 320 207 l 368 18 q 373 -3 370 3 q 382 -11 376 -9 q 403 -12 388 -12 q 414 8 414 -6 l 414 12 q 336 685 353 489 l 328 758 q 320 839 323 806 q 318 911 318 871 q 310 926 318 920 q 293 932 302 932 q 268 924 285 924 q 258 924 262 924 l 249 925 q 240 884 245 919 q 233 827 237 865 l 231 805 l 225 754 q 201 625 218 710 q 176 504 182 543 l 161 412 l 153 363 q 144 307 149 332 l 128 221 q 86 25 109 114 l 85 21 l 83 17 q 93 1 83 9 q 111 -7 102 -7 q 132 17 122 -7 q 149 75 141 40 q 164 175 161 140 l 167 203 q 168 205 168 203 q 168 208 168 206 q 171 212 169 211 q 178 214 173 214 m 179 255 q 211 457 179 299 q 286 828 214 471 q 339 237 329 383 l 325 237 q 233 243 286 237 q 179 255 179 248 z "},"ȁ":{"ha":502,"x_min":-60,"x_max":414,"o":"m 381 1160 q 325 1215 379 1168 q 214 1304 271 1261 q 149 1347 157 1347 q 140 1339 146 1347 q 134 1326 134 1332 q 143 1312 134 1317 q 269 1214 243 1232 q 317 1183 285 1207 q 375 1152 352 1157 l 381 1160 m 141 1227 q 46 1296 69 1282 q -32 1337 -25 1337 q -49 1325 -39 1337 q -60 1303 -58 1314 l 12 1262 q 87 1225 35 1253 q 105 1214 89 1224 l 121 1204 q 171 1171 144 1187 q 199 1156 194 1156 q 207 1166 207 1156 q 141 1227 207 1177 m 178 214 q 226 210 191 214 q 277 207 261 207 q 345 200 320 207 l 368 18 q 373 -3 370 3 q 382 -11 376 -9 q 403 -12 388 -12 q 414 8 414 -6 l 414 12 q 336 685 353 489 l 328 758 q 320 839 323 806 q 318 911 318 871 q 310 926 318 920 q 293 932 302 932 q 268 924 285 924 q 258 924 262 924 l 249 925 q 240 884 245 919 q 233 827 237 865 l 231 805 l 225 754 q 201 625 218 710 q 176 504 182 543 l 161 412 l 153 363 q 144 307 149 332 l 128 221 q 86 25 109 114 l 85 21 l 83 17 q 93 1 83 9 q 111 -7 102 -7 q 132 17 122 -7 q 149 75 141 40 q 164 175 161 140 l 167 203 q 168 205 168 203 q 168 208 168 206 q 171 212 169 211 q 178 214 173 214 m 179 255 q 211 457 179 299 q 286 828 214 471 q 339 237 329 383 l 325 237 q 233 243 286 237 q 179 255 179 248 z "},"ä":{"ha":502,"x_min":83,"x_max":473,"o":"m 409 1143 q 418 1122 409 1132 q 437 1112 427 1112 q 473 1144 473 1112 q 464 1166 473 1155 q 443 1177 454 1177 q 419 1166 430 1177 q 409 1143 409 1156 m 97 1141 q 105 1118 97 1128 q 123 1107 113 1107 q 148 1113 137 1107 q 158 1131 158 1120 q 151 1163 158 1149 q 130 1176 144 1176 q 107 1165 118 1176 q 97 1141 97 1154 m 178 214 q 226 210 191 214 q 277 207 261 207 q 345 200 320 207 l 368 18 q 373 -3 370 3 q 382 -11 376 -9 q 403 -12 388 -12 q 414 8 414 -6 l 414 12 q 336 685 353 489 l 328 758 q 320 839 323 806 q 318 911 318 871 q 310 926 318 920 q 293 932 302 932 q 268 924 285 924 q 258 924 262 924 l 249 925 q 240 884 245 919 q 233 827 237 865 l 231 805 l 225 754 q 201 625 218 710 q 176 504 182 543 l 161 412 l 153 363 q 144 307 149 332 l 128 221 q 86 25 109 114 l 85 21 l 83 17 q 93 1 83 9 q 111 -7 102 -7 q 132 17 122 -7 q 149 75 141 40 q 164 175 161 140 l 167 203 q 168 205 168 203 q 168 208 168 206 q 171 212 169 211 q 178 214 173 214 m 179 255 q 211 457 179 299 q 286 828 214 471 q 339 237 329 383 l 325 237 q 233 243 286 237 q 179 255 179 248 z "},"ȧ":{"ha":502,"x_min":83,"x_max":414,"o":"m 242 1189 q 251 1166 242 1177 q 273 1156 260 1156 q 311 1190 311 1156 q 301 1214 311 1202 q 278 1226 290 1226 q 253 1214 264 1226 q 242 1189 242 1202 m 178 214 q 226 210 191 214 q 277 207 261 207 q 345 200 320 207 l 368 18 q 373 -3 370 3 q 382 -11 376 -9 q 403 -12 388 -12 q 414 8 414 -6 l 414 12 q 336 685 353 489 l 328 758 q 320 839 323 806 q 318 911 318 871 q 310 926 318 920 q 293 932 302 932 q 268 924 285 924 q 258 924 262 924 l 249 925 q 240 884 245 919 q 233 827 237 865 l 231 805 l 225 754 q 201 625 218 710 q 176 504 182 543 l 161 412 l 153 363 q 144 307 149 332 l 128 221 q 86 25 109 114 l 85 21 l 83 17 q 93 1 83 9 q 111 -7 102 -7 q 132 17 122 -7 q 149 75 141 40 q 164 175 161 140 l 167 203 q 168 205 168 203 q 168 208 168 206 q 171 212 169 211 q 178 214 173 214 m 179 255 q 211 457 179 299 q 286 828 214 471 q 339 237 329 383 l 325 237 q 233 243 286 237 q 179 255 179 248 z "},"à":{"ha":502,"x_min":79,"x_max":414,"o":"m 149 1201 q 220 1174 154 1198 q 289 1151 286 1151 q 299 1155 294 1151 q 305 1162 305 1158 q 279 1189 305 1174 q 222 1215 256 1202 q 167 1236 185 1230 q 156 1239 160 1238 q 150 1241 151 1240 q 96 1257 138 1257 l 87 1257 q 79 1226 79 1251 q 126 1198 79 1198 q 149 1201 137 1198 m 178 214 q 226 210 191 214 q 277 207 261 207 q 345 200 320 207 l 368 18 q 373 -3 370 3 q 382 -11 376 -9 q 403 -12 388 -12 q 414 8 414 -6 l 414 12 q 336 685 353 489 l 328 758 q 320 839 323 806 q 318 911 318 871 q 310 926 318 920 q 293 932 302 932 q 268 924 285 924 q 258 924 262 924 l 249 925 q 240 884 245 919 q 233 827 237 865 l 231 805 l 225 754 q 201 625 218 710 q 176 504 182 543 l 161 412 l 153 363 q 144 307 149 332 l 128 221 q 86 25 109 114 l 85 21 l 83 17 q 93 1 83 9 q 111 -7 102 -7 q 132 17 122 -7 q 149 75 141 40 q 164 175 161 140 l 167 203 q 168 205 168 203 q 168 208 168 206 q 171 212 169 211 q 178 214 173 214 m 179 255 q 211 457 179 299 q 286 828 214 471 q 339 237 329 383 l 325 237 q 233 243 286 237 q 179 255 179 248 z "},"ȃ":{"ha":502,"x_min":83,"x_max":414,"o":"m 205 1113 q 219 1135 215 1114 q 232 1190 224 1166 q 254 1224 239 1213 l 269 1235 l 304 1235 q 327 1223 315 1235 q 345 1195 338 1211 q 351 1164 351 1178 q 351 1155 351 1159 q 350 1145 350 1150 q 375 1118 350 1118 q 390 1124 383 1118 q 396 1138 396 1130 q 393 1149 396 1141 l 389 1160 l 392 1170 q 388 1178 391 1173 q 381 1194 385 1184 q 374 1210 377 1204 q 370 1218 372 1215 q 342 1253 355 1246 q 292 1267 318 1267 q 243 1254 264 1267 q 212 1219 222 1242 q 191 1125 191 1177 l 205 1113 m 178 214 q 226 210 191 214 q 277 207 261 207 q 345 200 320 207 l 368 18 q 373 -3 370 3 q 382 -11 376 -9 q 403 -12 388 -12 q 414 8 414 -6 l 414 12 q 336 685 353 489 l 328 758 q 320 839 323 806 q 318 911 318 871 q 310 926 318 920 q 293 932 302 932 q 268 924 285 924 q 258 924 262 924 l 249 925 q 240 884 245 919 q 233 827 237 865 l 231 805 l 225 754 q 201 625 218 710 q 176 504 182 543 l 161 412 l 153 363 q 144 307 149 332 l 128 221 q 86 25 109 114 l 85 21 l 83 17 q 93 1 83 9 q 111 -7 102 -7 q 132 17 122 -7 q 149 75 141 40 q 164 175 161 140 l 167 203 q 168 205 168 203 q 168 208 168 206 q 171 212 169 211 q 178 214 173 214 m 179 255 q 211 457 179 299 q 286 828 214 471 q 339 237 329 383 l 325 237 q 233 243 286 237 q 179 255 179 248 z "},"ā":{"ha":502,"x_min":83,"x_max":444,"o":"m 444 1133 q 437 1146 444 1141 q 414 1153 430 1151 q 382 1155 398 1155 q 343 1156 367 1156 l 264 1156 q 176 1144 177 1156 q 179 1135 176 1139 q 205 1124 183 1129 q 250 1122 218 1122 l 277 1122 l 355 1122 q 444 1133 442 1122 m 178 214 q 226 210 191 214 q 277 207 261 207 q 345 200 320 207 l 368 18 q 373 -3 370 3 q 382 -11 376 -9 q 403 -12 388 -12 q 414 8 414 -6 l 414 12 q 336 685 353 489 l 328 758 q 320 839 323 806 q 318 911 318 871 q 310 926 318 920 q 293 932 302 932 q 268 924 285 924 q 258 924 262 924 l 249 925 q 240 884 245 919 q 233 827 237 865 l 231 805 l 225 754 q 201 625 218 710 q 176 504 182 543 l 161 412 l 153 363 q 144 307 149 332 l 128 221 q 86 25 109 114 l 85 21 l 83 17 q 93 1 83 9 q 111 -7 102 -7 q 132 17 122 -7 q 149 75 141 40 q 164 175 161 140 l 167 203 q 168 205 168 203 q 168 208 168 206 q 171 212 169 211 q 178 214 173 214 m 179 255 q 211 457 179 299 q 286 828 214 471 q 339 237 329 383 l 325 237 q 233 243 286 237 q 179 255 179 248 z "},"ą":{"ha":502,"x_min":83,"x_max":439,"o":"m 425 -253 q 439 -267 439 -253 q 420 -294 439 -284 q 380 -304 401 -304 q 329 -287 353 -304 q 290 -242 304 -269 q 275 -195 275 -216 q 284 -129 275 -163 q 309 -69 294 -95 q 361 5 339 -17 l 369 14 l 368 18 l 345 200 q 277 207 320 207 q 226 210 261 207 q 178 214 191 214 q 171 212 173 214 q 168 208 169 211 q 168 205 168 206 q 167 203 168 203 l 164 175 q 149 75 161 140 q 132 17 141 40 q 111 -7 122 -7 q 93 1 102 -7 q 83 17 83 9 l 85 21 l 86 25 q 128 221 109 114 l 144 307 q 153 363 149 332 l 161 412 l 176 504 q 201 625 182 543 q 225 754 218 710 l 231 805 l 233 827 q 240 884 237 865 q 249 925 245 919 l 258 924 q 268 924 262 924 q 293 932 285 924 q 310 926 302 932 q 318 911 318 920 q 320 839 318 871 q 328 758 323 806 l 336 685 q 414 12 353 489 l 414 8 q 403 -12 414 -6 l 398 -12 q 349 -96 367 -53 q 337 -149 337 -125 q 334 -181 337 -164 l 334 -195 q 333 -210 333 -201 q 348 -248 333 -229 q 380 -267 363 -267 q 402 -260 387 -267 q 425 -253 416 -253 m 339 237 q 286 828 329 383 q 211 457 214 471 q 179 255 179 299 q 233 243 179 248 q 325 237 286 237 l 339 237 z "},"å":{"ha":502,"x_min":83,"x_max":414,"o":"m 204 1164 q 214 1128 204 1145 q 239 1101 223 1112 q 272 1090 254 1090 q 336 1111 312 1090 q 361 1170 361 1132 q 349 1206 361 1187 q 320 1237 338 1225 q 285 1250 302 1250 q 247 1237 265 1250 q 216 1204 228 1224 q 204 1164 204 1184 m 236 1171 q 252 1206 236 1190 q 285 1223 268 1223 q 314 1203 304 1223 q 325 1156 325 1183 q 305 1129 325 1141 q 267 1117 285 1117 q 247 1128 254 1117 q 238 1147 240 1137 q 236 1171 236 1157 m 178 214 q 226 210 191 214 q 277 207 261 207 q 345 200 320 207 l 368 18 q 373 -3 370 3 q 382 -11 376 -9 q 403 -12 388 -12 q 414 8 414 -6 l 414 12 q 336 685 353 489 l 328 758 q 320 839 323 806 q 318 911 318 871 q 310 926 318 920 q 293 932 302 932 q 268 924 285 924 q 258 924 262 924 l 249 925 q 240 884 245 919 q 233 827 237 865 l 231 805 l 225 754 q 201 625 218 710 q 176 504 182 543 l 161 412 l 153 363 q 144 307 149 332 l 128 221 q 86 25 109 114 l 85 21 l 83 17 q 93 1 83 9 q 111 -7 102 -7 q 132 17 122 -7 q 149 75 141 40 q 164 175 161 140 l 167 203 q 168 205 168 203 q 168 208 168 206 q 171 212 169 211 q 178 214 173 214 m 179 255 q 211 457 179 299 q 286 828 214 471 q 339 237 329 383 l 325 237 q 233 243 286 237 q 179 255 179 248 z "},"ǻ":{"ha":502,"x_min":83,"x_max":459,"o":"m 256 1353 q 263 1338 256 1343 q 281 1333 271 1333 q 455 1452 384 1420 l 459 1473 q 429 1495 459 1495 q 377 1454 424 1490 q 294 1389 325 1414 q 256 1353 256 1358 m 204 1164 q 214 1128 204 1145 q 239 1101 223 1112 q 272 1090 254 1090 q 336 1111 312 1090 q 361 1170 361 1132 q 349 1206 361 1187 q 320 1237 338 1225 q 285 1250 302 1250 q 247 1237 265 1250 q 216 1204 228 1224 q 204 1164 204 1184 m 236 1171 q 252 1206 236 1190 q 285 1223 268 1223 q 314 1203 304 1223 q 325 1156 325 1183 q 305 1129 325 1141 q 267 1117 285 1117 q 247 1128 254 1117 q 238 1147 240 1137 q 236 1171 236 1157 m 178 214 q 226 210 191 214 q 277 207 261 207 q 345 200 320 207 l 368 18 q 373 -3 370 3 q 382 -11 376 -9 q 403 -12 388 -12 q 414 8 414 -6 l 414 12 q 336 685 353 489 l 328 758 q 320 839 323 806 q 318 911 318 871 q 310 926 318 920 q 293 932 302 932 q 268 924 285 924 q 258 924 262 924 l 249 925 q 240 884 245 919 q 233 827 237 865 l 231 805 l 225 754 q 201 625 218 710 q 176 504 182 543 l 161 412 l 153 363 q 144 307 149 332 l 128 221 q 86 25 109 114 l 85 21 l 83 17 q 93 1 83 9 q 111 -7 102 -7 q 132 17 122 -7 q 149 75 141 40 q 164 175 161 140 l 167 203 q 168 205 168 203 q 168 208 168 206 q 171 212 169 211 q 178 214 173 214 m 179 255 q 211 457 179 299 q 286 828 214 471 q 339 237 329 383 l 325 237 q 233 243 286 237 q 179 255 179 248 z "}}}
